<?xml version="1.0" encoding="UTF-8"?>
<svg width="1154px" height="668px" viewBox="0 0 1154 668" version="1.1" xmlns="http://www.w3.org/2000/svg" xmlns:xlink="http://www.w3.org/1999/xlink">
    <!-- Generator: Sketch 50.2 (55047) - http://www.bohemiancoding.com/sketch -->
    <title>Group 2</title>
    <desc>Created with Sketch.</desc>
    <defs>
        <linearGradient x1="50.2214665%" y1="100.075781%" x2="50.2214665%" y2="0.0757805396%" id="linearGradient-1">
            <stop stop-color="#808080" stop-opacity="0.25" offset="0%"></stop>
            <stop stop-color="#808080" stop-opacity="0.12" offset="54%"></stop>
            <stop stop-color="#808080" stop-opacity="0.1" offset="100%"></stop>
        </linearGradient>
        <linearGradient x1="50.0431012%" y1="100%" x2="50.0431012%" y2="0.0212018504%" id="linearGradient-2">
            <stop stop-color="#808080" stop-opacity="0.25" offset="0%"></stop>
            <stop stop-color="#808080" stop-opacity="0.12" offset="54%"></stop>
            <stop stop-color="#808080" stop-opacity="0.1" offset="100%"></stop>
        </linearGradient>
        <linearGradient x1="50.0109197%" y1="100%" x2="50.0109197%" y2="0.0525102479%" id="linearGradient-3">
            <stop stop-color="#808080" stop-opacity="0.25" offset="0%"></stop>
            <stop stop-color="#808080" stop-opacity="0.12" offset="54%"></stop>
            <stop stop-color="#808080" stop-opacity="0.1" offset="100%"></stop>
        </linearGradient>
        <linearGradient x1="49.7790183%" y1="100.045388%" x2="49.7790183%" y2="-0.0487253807%" id="linearGradient-4">
            <stop stop-color="#808080" stop-opacity="0.25" offset="0%"></stop>
            <stop stop-color="#808080" stop-opacity="0.12" offset="54%"></stop>
            <stop stop-color="#808080" stop-opacity="0.1" offset="100%"></stop>
        </linearGradient>
        <linearGradient x1="50.0839387%" y1="100.047075%" x2="50.0839387%" y2="0.0202966231%" id="linearGradient-5">
            <stop stop-color="#808080" stop-opacity="0.25" offset="0%"></stop>
            <stop stop-color="#808080" stop-opacity="0.12" offset="54%"></stop>
            <stop stop-color="#808080" stop-opacity="0.1" offset="100%"></stop>
        </linearGradient>
    </defs>
    <g id="Website" stroke="none" stroke-width="1" fill="none" fill-rule="evenodd">
        <g id="Artboard-4" transform="translate(-534.000000, -329.000000)">
            <g id="Group-2" transform="translate(534.000000, 329.000000)">
                <path d="M1152.70928,328.931719 C1145.47876,359.990673 1108.35866,375.558767 1087.56183,398.728858 C1048.37141,442.398961 1063.63351,506.171876 1088.49816,557.245375 C1096.82105,574.347109 1106.26753,592.452879 1102.74071,610.790351 C1098.44401,633.221205 1075.60807,649.616802 1051.62774,658.311103 C1007.93255,674.143998 955.602359,670.370583 915.433996,648.469331 C880.727532,629.54709 855.862888,598.819137 820.563418,580.702333 C761.48128,550.481916 686.283941,561.945594 622.124838,582.721441 C576.744263,597.450999 527.119013,616.615973 482.019336,601.235447 C450.288306,590.400671 428.347079,564.030902 416.393323,536.138526 C410.62972,522.644707 406.437063,508.036517 395.419633,497.345175 C388.865354,490.978917 380.313582,486.466266 371.56414,482.670785 C291.581137,447.915649 190.541215,466.528955 112.899025,427.978338 C60.4439911,401.950603 26.8507137,352.852079 11.9839458,301.646179 C-2.88282204,250.44028 -1.15582171,196.75187 2.62069105,144.012331 C5.30482409,106.498852 10.1216985,66.5359628 37.4415952,37.6064501 C66.3428416,7.01089751 115.936881,-4.32037999 160.776468,1.45007583 C205.616055,7.22053166 246.242177,27.9963793 281.999406,52.4022077 C326.734957,82.9205267 368.120543,120.908441 422.978813,133.265823 C460.338199,141.684289 499.632658,137.072338 538.167654,135.472498 C602.586847,132.813454 667.026847,138.782511 731.081913,145.226003 C762.292762,148.392582 793.607648,151.713628 824.548003,156.52418 C831.483747,157.598096 838.419492,158.7566 845.355236,159.999694 C848.830044,160.628596 852.304852,161.279565 855.758852,161.952601 C858.463793,162.47117 861.158329,163.055939 863.852866,163.574508 C868.104477,164.449822 872.342217,165.36927 876.566085,166.332852 C888.696702,169.091196 900.712879,172.213641 912.604212,175.766389 C953.948184,188.134803 987.094106,210.598758 1026.13888,226.288219 C1051.58612,236.516159 1079.33257,239.340703 1103.42734,252.360087 C1133.07765,268.347449 1160.31432,296.272925 1152.70928,328.931719 Z" id="Shape" fill="#487BB3" fill-rule="nonzero" opacity="0.075390625"></path>
                <g id="day-scene" transform="translate(120.000000, 89.000000)">
                    <g id="Group" opacity="0.398939732" transform="translate(259.000000, 143.000000)" fill="#487BB3" fill-rule="nonzero">
                        <path d="M124.137739,134.194824 C124.137739,112.206761 117.782261,92.2240845 107.442087,77.3557394 C117.567958,54.9349557 111.80623,28.0286189 93.5568651,12.5139924 C75.3074997,-3.00063411 49.4201525,-3.00063411 31.1707871,12.5139924 C12.9214218,28.0286189 7.15969458,54.9349557 17.2855652,77.3557394 C6.92313043,92.2240845 0.589913043,112.206761 0.589913043,134.194824 C0.589913043,156.182887 6.9453913,176.165563 17.2855652,191.033908 C7.15969458,213.454692 12.9214218,240.361029 31.1707871,255.875655 C49.4201525,271.390282 75.3074997,271.390282 93.5568651,255.875655 C111.80623,240.361029 117.567958,213.454692 107.442087,191.033908 C117.77113,176.165563 124.137739,156.182887 124.137739,134.194824 Z" id="Shape"></path>
                        <path d="M124.137739,134.194824 C124.137739,112.206761 117.782261,92.2240845 107.442087,77.3557394 C117.567958,54.9349557 111.80623,28.0286189 93.5568651,12.5139924 C75.3074997,-3.00063411 49.4201525,-3.00063411 31.1707871,12.5139924 C12.9214218,28.0286189 7.15969458,54.9349557 17.2855652,77.3557394 C6.92313043,92.2240845 0.589913043,112.206761 0.589913043,134.194824 C0.589913043,156.182887 6.9453913,176.165563 17.2855652,191.033908 C7.15969458,213.454692 12.9214218,240.361029 31.1707871,255.875655 C49.4201525,271.390282 75.3074997,271.390282 93.5568651,255.875655 C111.80623,240.361029 117.567958,213.454692 107.442087,191.033908 C117.77113,176.165563 124.137739,156.182887 124.137739,134.194824 Z" id="Shape" opacity="0.1"></path>
                        <path d="M127.076174,134.194824 C127.076174,112.206761 120.720696,92.2240845 110.380522,77.3557394 C120.506392,54.9349557 114.744665,28.0286189 96.4952998,12.5139924 C78.2459345,-3.00063411 52.3585873,-3.00063411 34.1092219,12.5139924 C15.8598565,28.0286189 10.0981294,54.9349557 20.224,77.3557394 C9.86156522,92.2240845 3.52834783,112.206761 3.52834783,134.194824 C3.52834783,156.182887 9.88382609,176.165563 20.224,191.033908 C10.0981294,213.454692 15.8598565,240.361029 34.1092219,255.875655 C52.3585873,271.390282 78.2459345,271.390282 96.4952998,255.875655 C114.744665,240.361029 120.506392,213.454692 110.380522,191.033908 C120.676174,176.165563 127.076174,156.182887 127.076174,134.194824 Z" id="Shape"></path>
                        <polygon id="Shape" points="71.168 336.549085 59.392 336.549085 65.28 129.483944"></polygon>
                        <polygon id="Shape" points="66.7492174 181.23243 105.004522 163.990845 66.7492174 185.955176"></polygon>
                        <polygon id="Shape" points="63.2765217 200.075951 52.0347826 185.955176 63.053913 207.919507"></polygon>
                    </g>
                    <g id="Group" opacity="0.398549107" transform="translate(393.000000, 262.000000)" fill="#487BB3" fill-rule="nonzero">
                        <path d="M80.9474324,86.453587 C80.9474324,72.2361957 76.8086486,59.3694565 70.0564865,49.7253261 C76.6497503,35.2578538 72.8967738,17.8969058 61.0120266,7.88642944 C49.1272795,-2.12404696 32.2688016,-2.12404696 20.3840544,7.88642944 C8.49930726,17.8969058 4.74633074,35.2578538 11.3395946,49.7253261 C4.60986486,59.3220652 0.448648649,72.2361957 0.448648649,86.453587 C0.448648649,100.670978 4.58743243,113.537717 11.3395946,123.181848 C4.74633074,137.64932 8.49930726,155.010268 20.3840544,165.020744 C32.2688016,175.031221 49.1272795,175.031221 61.0120266,165.020744 C72.8967738,155.010268 76.6497503,137.64932 70.0564865,123.181848 C76.7974324,113.490326 80.9474324,100.647283 80.9474324,86.453587 Z" id="Shape"></path>
                        <path d="M80.9474324,86.453587 C80.9474324,72.2361957 76.8086486,59.3694565 70.0564865,49.7253261 C76.6497503,35.2578538 72.8967738,17.8969058 61.0120266,7.88642944 C49.1272795,-2.12404696 32.2688016,-2.12404696 20.3840544,7.88642944 C8.49930726,17.8969058 4.74633074,35.2578538 11.3395946,49.7253261 C4.60986486,59.3220652 0.448648649,72.2361957 0.448648649,86.453587 C0.448648649,100.670978 4.58743243,113.537717 11.3395946,123.181848 C4.74633074,137.64932 8.49930726,155.010268 20.3840544,165.020744 C32.2688016,175.031221 49.1272795,175.031221 61.0120266,165.020744 C72.8967738,155.010268 76.6497503,137.64932 70.0564865,123.181848 C76.7974324,113.490326 80.9474324,100.647283 80.9474324,86.453587 Z" id="Shape" opacity="0.1"></path>
                        <path d="M82.8654054,86.453587 C82.8654054,72.2361957 78.7266216,59.3694565 71.9744595,49.7253261 C78.5677233,35.2578538 74.8147468,17.8969058 62.9299996,7.88642944 C51.0452525,-2.12404696 34.1867746,-2.12404696 22.3020274,7.88642944 C10.4172802,17.8969058 6.66430371,35.2578538 13.2575676,49.7253261 C6.52783784,59.3220652 2.36662162,72.2361957 2.36662162,86.453587 C2.36662162,100.670978 6.50540541,113.537717 13.2575676,123.181848 C6.66430371,137.64932 10.4172802,155.010268 22.3020274,165.020744 C34.1867746,175.031221 51.0452525,175.031221 62.9299996,165.020744 C74.8147468,155.010268 78.5677233,137.64932 71.9744595,123.181848 C78.7154054,113.490326 82.8654054,100.647283 82.8654054,86.453587 Z" id="Shape"></path>
                        <polygon id="Shape" points="46.4463514 217.040326 38.7744595 217.040326 42.6104054 83.4205435"></polygon>
                        <polygon id="Shape" points="43.575 116.819565 68.4862162 105.682609 43.575 119.864457"></polygon>
                        <polygon id="Shape" points="41.3093243 128.975435 33.9851351 119.864457 41.1635135 134.034457"></polygon>
                    </g>
                    <rect id="Rectangle-path" fill="#535461" fill-rule="nonzero" x="351" y="428" width="1" height="22"></rect>
                    <rect id="Rectangle-path" fill="#535461" fill-rule="nonzero" x="349" y="453" width="3" height="25"></rect>
                    <rect id="Rectangle-path" fill="#535461" fill-rule="nonzero" x="422" y="453" width="3" height="25"></rect>
                    <rect id="Rectangle-path" fill="#000000" fill-rule="nonzero" opacity="0.1" x="349" y="453" width="3" height="25"></rect>
                    <rect id="Rectangle-path" fill="#000000" fill-rule="nonzero" opacity="0.1" x="422" y="453" width="3" height="25"></rect>
                    <rect id="Rectangle-path" fill="#535461" fill-rule="nonzero" transform="translate(423.500000, 439.000000) rotate(-180.000000) translate(-423.500000, -439.000000) " x="423" y="428" width="1" height="22"></rect>
                    <rect id="Rectangle-path" fill="#000000" fill-rule="nonzero" opacity="0.1" x="351" y="428" width="1" height="22"></rect>
                    <rect id="Rectangle-path" fill="#000000" fill-rule="nonzero" opacity="0.1" transform="translate(423.500000, 439.000000) rotate(-180.000000) translate(-423.500000, -439.000000) " x="423" y="428" width="1" height="22"></rect>
                    <rect id="Rectangle-path" fill="#535461" fill-rule="nonzero" x="345" y="427" width="86" height="4"></rect>
                    <rect id="Rectangle-path" fill="#535461" fill-rule="nonzero" x="345" y="434" width="86" height="4"></rect>
                    <rect id="Rectangle-path" fill="#535461" fill-rule="nonzero" x="345" y="441" width="86" height="4"></rect>
                    <rect id="Rectangle-path" fill="#535461" fill-rule="nonzero" x="345" y="449" width="86" height="8"></rect>
                    <rect id="Rectangle-path" fill="#E0E0E0" fill-rule="nonzero" x="240" y="165" width="31" height="63"></rect>
                    <polygon id="Shape" fill="#EEEEEE" fill-rule="nonzero" points="302 262.380797 302 478 26 478 26 262.380797 49.227778 247.204696 71.0944662 232.917819 164.340272 172"></polygon>
                    <polygon id="Shape" fill="#000000" fill-rule="nonzero" opacity="0.1" points="267 478 267 251 263 253.682177 263 478"></polygon>
                    <rect id="Rectangle-path" fill="#487BB3" fill-rule="nonzero" x="134" y="377" width="61" height="100"></rect>
                    <ellipse id="Oval" fill="#535461" fill-rule="nonzero" cx="185.5" cy="427" rx="2.5" ry="3"></ellipse>
                    <rect id="Rectangle-path" fill="#000000" fill-rule="nonzero" opacity="0.1" x="240" y="166" width="31" height="4"></rect>
                    <rect id="Rectangle-path" fill="#E0E0E0" fill-rule="nonzero" x="234" y="162" width="41" height="7"></rect>
                    <rect id="Rectangle-path" fill="#000000" fill-rule="nonzero" opacity="0.1" x="26" y="313" width="276" height="6"></rect>
                    <rect id="Rectangle-path" fill="#FFFFFF" fill-rule="nonzero" x="26" y="312" width="276" height="6"></rect>
                    <rect id="Rectangle-path" fill="#000000" fill-rule="nonzero" opacity="0.1" x="260" y="162" width="8" height="67"></rect>
                    <rect id="Rectangle-path" fill="#000000" fill-rule="nonzero" opacity="0.1" x="254" y="162" width="2" height="67"></rect>
                    <polygon id="Shape" fill="#000000" fill-rule="nonzero" opacity="0.1" points="296 253.46743 296 478 274 478 274 247"></polygon>
                    <polygon id="Shape" fill="#000000" fill-rule="nonzero" opacity="0.1" points="65 233 65 478 43 478 43 247.282086"></polygon>
                    <polygon id="Shape" fill="#000000" fill-rule="nonzero" opacity="0.1" points="37 478 37 251 33 253.682177 33 478"></polygon>
                    <polygon id="Shape" fill="#000000" fill-rule="nonzero" opacity="0.1" points="164.5 148 0 275.115372 10.9243071 294 164.5 182.863016 318.08684 294 329 275.115372"></polygon>
                    <polygon id="Shape" fill="#487BB3" fill-rule="nonzero" points="164.5 146 0 273.115372 10.9243071 292 164.5 180.874878 318.08684 292 329 273.115372"></polygon>
                    <rect id="Rectangle-path" fill="#487BB3" fill-rule="nonzero" opacity="0.7" x="49" y="352" width="57" height="61"></rect>
                    <rect id="Rectangle-path" fill="#000000" fill-rule="nonzero" opacity="0.1" x="47" y="412" width="61" height="7"></rect>
                    <rect id="Rectangle-path" fill="#535461" fill-rule="nonzero" x="47" y="410" width="61" height="7"></rect>
                    <polygon id="Shape" fill="#FFFFFF" fill-rule="nonzero" opacity="0.15" points="74 353 50 388 50 370.17094 63.4943396 353"></polygon>
                    <polygon id="Shape" fill="#FFFFFF" fill-rule="nonzero" opacity="0.15" points="94 353 50 402 50 393.350157 82.835321 353"></polygon>
                    <path d="M49,383 L106,383" id="Shape" stroke="#535461" stroke-width="2"></path>
                    <path d="M50,353 L107,353" id="Shape" stroke="#535461" stroke-width="2"></path>
                    <path d="M78,352 L78,413" id="Shape" stroke="#535461" stroke-width="2"></path>
                    <path d="M106,353 L106,414" id="Shape" stroke="#535461" stroke-width="2"></path>
                    <path d="M50,352 L50,413" id="Shape" stroke="#535461" stroke-width="2"></path>
                    <rect id="Rectangle-path" fill="#487BB3" fill-rule="nonzero" opacity="0.7" transform="translate(250.500000, 382.500000) rotate(-180.000000) translate(-250.500000, -382.500000) " x="222" y="352" width="57" height="61"></rect>
                    <rect id="Rectangle-path" fill="#000000" fill-rule="nonzero" opacity="0.1" transform="translate(250.500000, 415.500000) rotate(-180.000000) translate(-250.500000, -415.500000) " x="220" y="412" width="61" height="7"></rect>
                    <rect id="Rectangle-path" fill="#535461" fill-rule="nonzero" transform="translate(250.500000, 413.500000) rotate(-180.000000) translate(-250.500000, -413.500000) " x="220" y="410" width="61" height="7"></rect>
                    <polygon id="Shape" fill="#FFFFFF" fill-rule="nonzero" opacity="0.15" points="255 353 279 388 279 370.17094 265.50566 353"></polygon>
                    <polygon id="Shape" fill="#FFFFFF" fill-rule="nonzero" opacity="0.15" points="235 353 279 402 279 393.350157 246.164679 353"></polygon>
                    <path d="M279,383 L222,383" id="Shape" stroke="#535461" stroke-width="2"></path>
                    <path d="M279,353 L222,353" id="Shape" stroke="#535461" stroke-width="2"></path>
                    <path d="M251,352 L251,413" id="Shape" stroke="#535461" stroke-width="2"></path>
                    <path d="M222,353 L222,414" id="Shape" stroke="#535461" stroke-width="2"></path>
                    <path d="M279,352 L279,413" id="Shape" stroke="#535461" stroke-width="2"></path>
                    <rect id="Rectangle-path" fill="#487BB3" fill-rule="nonzero" opacity="0.7" transform="translate(163.500000, 258.500000) rotate(-180.000000) translate(-163.500000, -258.500000) " x="135" y="228" width="57" height="61"></rect>
                    <rect id="Rectangle-path" fill="#000000" fill-rule="nonzero" opacity="0.1" transform="translate(164.500000, 291.500000) rotate(-180.000000) translate(-164.500000, -291.500000) " x="134" y="288" width="61" height="7"></rect>
                    <rect id="Rectangle-path" fill="#535461" fill-rule="nonzero" transform="translate(164.500000, 289.500000) rotate(-180.000000) translate(-164.500000, -289.500000) " x="134" y="286" width="61" height="7"></rect>
                    <polygon id="Shape" fill="#FFFFFF" fill-rule="nonzero" opacity="0.15" points="169 229 193 264 193 246.17094 179.516981 229"></polygon>
                    <polygon id="Shape" fill="#FFFFFF" fill-rule="nonzero" opacity="0.15" points="148 229 192 278 192 269.350157 159.164679 229"></polygon>
                    <path d="M192,259 L135,259" id="Shape" stroke="#535461" stroke-width="2"></path>
                    <path d="M192,229 L135,229" id="Shape" stroke="#535461" stroke-width="2"></path>
                    <path d="M164,228 L164,289" id="Shape" stroke="#535461" stroke-width="2"></path>
                    <path d="M136,229 L136,290" id="Shape" stroke="#535461" stroke-width="2"></path>
                    <path d="M192,228 L192,289" id="Shape" stroke="#535461" stroke-width="2"></path>
                    <rect id="Rectangle-path" fill="#535461" fill-rule="nonzero" x="134" y="463" width="61" height="15"></rect>
                    <rect id="Rectangle-path" fill="#E0E0E0" fill-rule="nonzero" x="743" y="311" width="214" height="166"></rect>
                    <polygon id="Shape" fill="#000000" fill-rule="nonzero" opacity="0.1" points="941 478 941 251 937 253.682177 937 478"></polygon>
                    <polygon id="Shape" fill="#000000" fill-rule="nonzero" opacity="0.1" points="953 478 953 251 949 253.682177 949 478"></polygon>
                    <rect id="Rectangle-path" fill="#000000" fill-rule="nonzero" opacity="0.1" x="743" y="315" width="214" height="19"></rect>
                    <polygon id="Shape" fill="#487BB3" fill-rule="nonzero" points="977 330 651 330 651 171 923.804606 171"></polygon>
                    <polygon id="Shape" fill="#000000" fill-rule="nonzero" opacity="0.1" points="977 330 651 330 651 171 923.804606 171"></polygon>
                    <rect id="Rectangle-path" fill="#000000" fill-rule="nonzero" opacity="0.1" x="745" y="311" width="18" height="166"></rect>
                    <rect id="Rectangle-path" fill="#E0E0E0" fill-rule="nonzero" x="698" y="165" width="31" height="63"></rect>
                    <polygon id="Shape" fill="#EEEEEE" fill-rule="nonzero" points="761 262.380797 761 478 485 478 485 262.380797 508.228717 247.204696 530.085132 232.917819 623.345865 172"></polygon>
                    <rect id="Rectangle-path" fill="#487BB3" fill-rule="nonzero" x="592" y="377" width="61" height="100"></rect>
                    <ellipse id="Oval" fill="#535461" fill-rule="nonzero" cx="643.5" cy="427" rx="2.5" ry="3"></ellipse>
                    <rect id="Rectangle-path" fill="#000000" fill-rule="nonzero" opacity="0.1" x="698" y="166" width="31" height="4"></rect>
                    <rect id="Rectangle-path" fill="#E0E0E0" fill-rule="nonzero" x="692" y="162" width="41" height="7"></rect>
                    <rect id="Rectangle-path" fill="#000000" fill-rule="nonzero" opacity="0.1" x="485" y="313" width="276" height="6"></rect>
                    <rect id="Rectangle-path" fill="#FFFFFF" fill-rule="nonzero" x="485" y="312" width="276" height="6"></rect>
                    <rect id="Rectangle-path" fill="#000000" fill-rule="nonzero" opacity="0.1" x="718" y="162" width="8" height="67"></rect>
                    <rect id="Rectangle-path" fill="#000000" fill-rule="nonzero" opacity="0.1" x="713" y="162" width="2" height="67"></rect>
                    <polygon id="Shape" fill="#000000" fill-rule="nonzero" opacity="0.1" points="754 253.46743 754 478 732 478 732 247"></polygon>
                    <polygon id="Shape" fill="#000000" fill-rule="nonzero" opacity="0.1" points="524 233 524 478 502 478 502 247.282086"></polygon>
                    <polygon id="Shape" fill="#000000" fill-rule="nonzero" opacity="0.1" points="495 478 495 251 491 253.682177 491 478"></polygon>
                    <polygon id="Shape" fill="#000000" fill-rule="nonzero" opacity="0.1" points="622.505573 148 458 275.115372 468.923937 294 622.505573 182.863016 776.076063 294 787 275.115372"></polygon>
                    <polygon id="Shape" fill="#487BB3" fill-rule="nonzero" points="622.505573 146 458 273.115372 468.923937 292 622.505573 180.874878 776.076063 292 787 273.115372"></polygon>
                    <rect id="Rectangle-path" fill="#487BB3" fill-rule="nonzero" opacity="0.7" x="507" y="352" width="57" height="61"></rect>
                    <rect id="Rectangle-path" fill="#000000" fill-rule="nonzero" opacity="0.1" x="505" y="412" width="61" height="7"></rect>
                    <rect id="Rectangle-path" fill="#535461" fill-rule="nonzero" x="505" y="410" width="61" height="7"></rect>
                    <polygon id="Shape" fill="#FFFFFF" fill-rule="nonzero" opacity="0.15" points="532 353 508 388 508 370.17094 521.483019 353"></polygon>
                    <polygon id="Shape" fill="#FFFFFF" fill-rule="nonzero" opacity="0.15" points="552 353 508 402 508 393.350157 540.835321 353"></polygon>
                    <path d="M507,383 L564,383" id="Shape" stroke="#535461" stroke-width="2"></path>
                    <path d="M508,353 L565,353" id="Shape" stroke="#535461" stroke-width="2"></path>
                    <path d="M536,352 L536,413" id="Shape" stroke="#535461" stroke-width="2"></path>
                    <path d="M564,353 L564,414" id="Shape" stroke="#535461" stroke-width="2"></path>
                    <path d="M508,352 L508,413" id="Shape" stroke="#535461" stroke-width="2"></path>
                    <rect id="Rectangle-path" fill="#487BB3" fill-rule="nonzero" opacity="0.7" transform="translate(708.500000, 382.500000) rotate(-180.000000) translate(-708.500000, -382.500000) " x="680" y="352" width="57" height="61"></rect>
                    <rect id="Rectangle-path" fill="#000000" fill-rule="nonzero" opacity="0.1" transform="translate(708.500000, 415.500000) rotate(-180.000000) translate(-708.500000, -415.500000) " x="678" y="412" width="61" height="7"></rect>
                    <rect id="Rectangle-path" fill="#535461" fill-rule="nonzero" transform="translate(708.500000, 413.500000) rotate(-180.000000) translate(-708.500000, -413.500000) " x="678" y="410" width="61" height="7"></rect>
                    <polygon id="Shape" fill="#FFFFFF" fill-rule="nonzero" opacity="0.15" points="714 353 738 388 738 370.17094 724.516981 353"></polygon>
                    <polygon id="Shape" fill="#FFFFFF" fill-rule="nonzero" opacity="0.15" points="693 353 737 402 737 393.350157 704.164679 353"></polygon>
                    <path d="M737,383 L680,383" id="Shape" stroke="#535461" stroke-width="2"></path>
                    <path d="M737,353 L680,353" id="Shape" stroke="#535461" stroke-width="2"></path>
                    <path d="M709,352 L709,413" id="Shape" stroke="#535461" stroke-width="2"></path>
                    <path d="M681,353 L681,414" id="Shape" stroke="#535461" stroke-width="2"></path>
                    <path d="M737,352 L737,413" id="Shape" stroke="#535461" stroke-width="2"></path>
                    <rect id="Rectangle-path" fill="#487BB3" fill-rule="nonzero" opacity="0.7" transform="translate(621.500000, 258.500000) rotate(-180.000000) translate(-621.500000, -258.500000) " x="593" y="228" width="57" height="61"></rect>
                    <rect id="Rectangle-path" fill="#000000" fill-rule="nonzero" opacity="0.1" transform="translate(622.500000, 291.500000) rotate(-180.000000) translate(-622.500000, -291.500000) " x="592" y="288" width="61" height="7"></rect>
                    <rect id="Rectangle-path" fill="#535461" fill-rule="nonzero" transform="translate(622.500000, 289.500000) rotate(-180.000000) translate(-622.500000, -289.500000) " x="592" y="286" width="61" height="7"></rect>
                    <polygon id="Shape" fill="#FFFFFF" fill-rule="nonzero" opacity="0.15" points="627 229 651 264 651 246.17094 637.50566 229"></polygon>
                    <polygon id="Shape" fill="#FFFFFF" fill-rule="nonzero" opacity="0.15" points="607 229 651 278 651 269.350157 618.164679 229"></polygon>
                    <path d="M650,259 L593,259" id="Shape" stroke="#535461" stroke-width="2"></path>
                    <path d="M650,229 L593,229" id="Shape" stroke="#535461" stroke-width="2"></path>
                    <path d="M622,228 L622,289" id="Shape" stroke="#535461" stroke-width="2"></path>
                    <path d="M594,229 L594,290" id="Shape" stroke="#535461" stroke-width="2"></path>
                    <path d="M650,228 L650,289" id="Shape" stroke="#535461" stroke-width="2"></path>
                    <rect id="Rectangle-path" fill="#535461" fill-rule="nonzero" x="592" y="463" width="61" height="15"></rect>
                    <rect id="Rectangle-path" fill="#487BB3" fill-rule="nonzero" opacity="0.7" x="777" y="364" width="156" height="75"></rect>
                    <rect id="Rectangle-path" fill="#000000" fill-rule="nonzero" opacity="0.1" x="775" y="438" width="160" height="7"></rect>
                    <rect id="Rectangle-path" fill="#535461" fill-rule="nonzero" x="775" y="436" width="160" height="7"></rect>
                    <polygon id="Shape" fill="#FFFFFF" fill-rule="nonzero" opacity="0.2" points="798.219 364 777 383.085573 777 393 810 364"></polygon>
                    <rect id="Rectangle-path" fill="#535461" fill-rule="nonzero" x="852" y="366" width="5" height="75"></rect>
                    <rect id="Rectangle-path" fill="#535461" fill-rule="nonzero" x="777" y="366" width="5" height="75"></rect>
                    <rect id="Rectangle-path" fill="#535461" fill-rule="nonzero" x="927" y="366" width="5" height="75"></rect>
                    <rect id="Rectangle-path" fill="#535461" fill-rule="nonzero" transform="translate(854.500000, 401.500000) rotate(90.000000) translate(-854.500000, -401.500000) " x="852" y="319" width="5" height="165"></rect>
                    <rect id="Rectangle-path" fill="#535461" fill-rule="nonzero" transform="translate(854.500000, 367.500000) rotate(90.000000) translate(-854.500000, -367.500000) " x="852" y="285" width="5" height="165"></rect>
                    <polygon id="Shape" fill="#FFFFFF" fill-rule="nonzero" opacity="0.2" points="819.768966 364.129893 777 407.148043 777 418 829 364"></polygon>
                    <path d="M322.997211,383.5 C323.099524,374.100222 320.383989,364.911685 315.247116,357.27606 C319.910863,346.933502 317.255474,334.522945 308.847706,327.366977 C300.439938,320.211008 288.513781,320.211008 280.106013,327.366977 C271.698244,334.522945 269.042856,346.933502 273.706603,357.27606 C263.431132,373.038403 263.431132,393.961597 273.706603,409.72394 C269.042856,420.066498 271.698244,432.477055 280.106013,439.633023 C288.513781,446.788992 300.439938,446.788992 308.847706,439.633023 C317.255474,432.477055 319.910863,420.066498 315.247116,409.72394 C320.383989,402.088315 323.099524,392.899778 322.997211,383.5 Z" id="Shape" fill="#4DB6AC" fill-rule="nonzero"></path>
                    <path d="M322.997211,383.5 C323.099524,374.100222 320.383989,364.911685 315.247116,357.27606 C319.910863,346.933502 317.255474,334.522945 308.847706,327.366977 C300.439938,320.211008 288.513781,320.211008 280.106013,327.366977 C271.698244,334.522945 269.042856,346.933502 273.706603,357.27606 C263.431132,373.038403 263.431132,393.961597 273.706603,409.72394 C269.042856,420.066498 271.698244,432.477055 280.106013,439.633023 C288.513781,446.788992 300.439938,446.788992 308.847706,439.633023 C317.255474,432.477055 319.910863,420.066498 315.247116,409.72394 C320.383989,402.088315 323.099524,392.899778 322.997211,383.5 Z" id="Shape" fill="#000000" fill-rule="nonzero" opacity="0.1"></path>
                    <path d="M323.997211,383.5 C324.099524,374.100222 321.383989,364.911685 316.247116,357.27606 C320.910863,346.933502 318.255474,334.522945 309.847706,327.366977 C301.439938,320.211008 289.513781,320.211008 281.106013,327.366977 C272.698244,334.522945 270.042856,346.933502 274.706603,357.27606 C264.431132,373.038403 264.431132,393.961597 274.706603,409.72394 C270.042856,420.066498 272.698244,432.477055 281.106013,439.633023 C289.513781,446.788992 301.439938,446.788992 309.847706,439.633023 C318.255474,432.477055 320.910863,420.066498 316.247116,409.72394 C321.383989,402.088315 324.099524,392.899778 323.997211,383.5 Z" id="Shape" fill="#4DB6AC" fill-rule="nonzero"></path>
                    <polygon id="Shape" fill="#5D291B" fill-rule="nonzero" points="298 478 293 478 295.505112 382"></polygon>
                    <polygon id="Shape" fill="#5D291B" fill-rule="nonzero" points="297 405.852975 315 398 297 408"></polygon>
                    <polygon id="Shape" fill="#5D291B" fill-rule="nonzero" points="295 414.429405 290 408 294.90364 418"></polygon>
                    <path d="M1013.99721,383.5 C1014.09952,374.100222 1011.38399,364.911685 1006.24712,357.27606 C1010.91086,346.933502 1008.25547,334.522945 999.847706,327.366977 C991.439938,320.211008 979.513781,320.211008 971.106013,327.366977 C962.698244,334.522945 960.042856,346.933502 964.706603,357.27606 C954.431132,373.038403 954.431132,393.961597 964.706603,409.72394 C960.042856,420.066498 962.698244,432.477055 971.106013,439.633023 C979.513781,446.788992 991.439938,446.788992 999.847706,439.633023 C1008.25547,432.477055 1010.91086,420.066498 1006.24712,409.72394 C1011.38399,402.088315 1014.09952,392.899778 1013.99721,383.5 Z" id="Shape" fill="#4DB6AC" fill-rule="nonzero"></path>
                    <path d="M1013.99721,383.5 C1014.09952,374.100222 1011.38399,364.911685 1006.24712,357.27606 C1010.91086,346.933502 1008.25547,334.522945 999.847706,327.366977 C991.439938,320.211008 979.513781,320.211008 971.106013,327.366977 C962.698244,334.522945 960.042856,346.933502 964.706603,357.27606 C954.431132,373.038403 954.431132,393.961597 964.706603,409.72394 C960.042856,420.066498 962.698244,432.477055 971.106013,439.633023 C979.513781,446.788992 991.439938,446.788992 999.847706,439.633023 C1008.25547,432.477055 1010.91086,420.066498 1006.24712,409.72394 C1011.38399,402.088315 1014.09952,392.899778 1013.99721,383.5 Z" id="Shape" fill="#000000" fill-rule="nonzero" opacity="0.1"></path>
                    <path d="M1014.99721,383.5 C1015.09952,374.100222 1012.38399,364.911685 1007.24712,357.27606 C1011.91086,346.933502 1009.25547,334.522945 1000.84771,327.366977 C992.439938,320.211008 980.513781,320.211008 972.106013,327.366977 C963.698244,334.522945 961.042856,346.933502 965.706603,357.27606 C955.431132,373.038403 955.431132,393.961597 965.706603,409.72394 C961.042856,420.066498 963.698244,432.477055 972.106013,439.633023 C980.513781,446.788992 992.439938,446.788992 1000.84771,439.633023 C1009.25547,432.477055 1011.91086,420.066498 1007.24712,409.72394 C1012.38399,402.088315 1015.09952,392.899778 1014.99721,383.5 Z" id="Shape" fill="#4DB6AC" fill-rule="nonzero"></path>
                    <polygon id="Shape" fill="#5D291B" fill-rule="nonzero" points="989 478 984 478 986.505112 382"></polygon>
                    <polygon id="Shape" fill="#5D291B" fill-rule="nonzero" points="988 405.852975 1006 398 988 408"></polygon>
                    <polygon id="Shape" fill="#5D291B" fill-rule="nonzero" points="986 414.429405 981 408 985.903846 418"></polygon>
                    <path d="M511.997211,383.5 C512.099524,374.100222 509.383989,364.911685 504.247116,357.27606 C508.910863,346.933502 506.255474,334.522945 497.847706,327.366977 C489.439938,320.211008 477.513781,320.211008 469.106013,327.366977 C460.698244,334.522945 458.042856,346.933502 462.706603,357.27606 C452.431132,373.038403 452.431132,393.961597 462.706603,409.72394 C458.042856,420.066498 460.698244,432.477055 469.106013,439.633023 C477.513781,446.788992 489.439938,446.788992 497.847706,439.633023 C506.255474,432.477055 508.910863,420.066498 504.247116,409.72394 C509.383989,402.088315 512.099524,392.899778 511.997211,383.5 Z" id="Shape" fill="#4DB6AC" fill-rule="nonzero"></path>
                    <path d="M511.997211,383.5 C512.099524,374.100222 509.383989,364.911685 504.247116,357.27606 C508.910863,346.933502 506.255474,334.522945 497.847706,327.366977 C489.439938,320.211008 477.513781,320.211008 469.106013,327.366977 C460.698244,334.522945 458.042856,346.933502 462.706603,357.27606 C452.431132,373.038403 452.431132,393.961597 462.706603,409.72394 C458.042856,420.066498 460.698244,432.477055 469.106013,439.633023 C477.513781,446.788992 489.439938,446.788992 497.847706,439.633023 C506.255474,432.477055 508.910863,420.066498 504.247116,409.72394 C509.383989,402.088315 512.099524,392.899778 511.997211,383.5 Z" id="Shape" fill="#000000" fill-rule="nonzero" opacity="0.1"></path>
                    <path d="M512.997211,383.5 C513.099524,374.100222 510.383989,364.911685 505.247116,357.27606 C509.910863,346.933502 507.255474,334.522945 498.847706,327.366977 C490.439938,320.211008 478.513781,320.211008 470.106013,327.366977 C461.698244,334.522945 459.042856,346.933502 463.706603,357.27606 C453.431132,373.038403 453.431132,393.961597 463.706603,409.72394 C459.042856,420.066498 461.698244,432.477055 470.106013,439.633023 C478.513781,446.788992 490.439938,446.788992 498.847706,439.633023 C507.255474,432.477055 509.910863,420.066498 505.247116,409.72394 C510.383989,402.088315 513.099524,392.899778 512.997211,383.5 Z" id="Shape" fill="#4DB6AC" fill-rule="nonzero"></path>
                    <polygon id="Shape" fill="#5D291B" fill-rule="nonzero" points="487 478 482 478 484.5 382"></polygon>
                    <polygon id="Shape" fill="#5D291B" fill-rule="nonzero" points="486 405.852975 504 398 486 408"></polygon>
                    <polygon id="Shape" fill="#5D291B" fill-rule="nonzero" points="484 414.429405 479 408 483.893162 418"></polygon>
                    <g id="Group" opacity="0.7" transform="translate(355.000000, 400.000000)" fill="url(#linearGradient-1)" fill-rule="nonzero">
                        <path d="M22.125,46.0676119 L21.5568182,45.9614925 L22.6931818,41.6341791 C24.4772727,27.7797015 17.75,26.3883582 15.2272727,26.3058209 C14.9371348,26.1944169 14.641218,26.099941 14.3409091,26.0228358 L14.3409091,24.3838806 C17.581239,23.5504147 20.0335269,20.7973239 20.5795455,17.38 C20.9772727,17.38 21.3068182,16.7432836 21.3068182,15.9650746 C21.3250168,15.5468461 21.2134974,15.1335823 20.9886364,14.7859701 C20.9886364,14.4872637 20.9886364,14.1846269 20.9886364,13.8780597 C20.992934,11.4117908 20.0238124,9.05125265 18.3068182,7.3458209 C18.1914249,6.74189203 17.984298,6.16081928 17.6931818,5.62432836 C17.0795455,4.44522388 16.0454545,3.2661194 16.4659091,2.08701493 L13.75,2.38179104 L13.75,0.51880597 C12.8977273,0.672089552 12.5454545,1.69791045 12.0454545,2.42895522 C10.8295455,4.17402985 8.40909091,4.42164179 6.79545455,5.77761194 C6.25,6.23746269 5.02272727,7.65238806 5.25,8.57208955 C4.16914587,10.1136818 3.58817941,11.9716817 3.59090909,13.8780597 C3.59090909,14.1846269 3.59090909,14.4872637 3.59090909,14.7859701 C3.36604807,15.1335823 3.25452866,15.5468461 3.27272727,15.9650746 C3.27272727,16.7432836 3.60227273,17.38 4,17.38 C4.54601851,20.7973239 6.9983065,23.5504147 10.2386364,24.3838806 L10.2386364,26.0228358 C9.93832749,26.099941 9.64241066,26.1944169 9.35227273,26.3058209 C6.82954545,26.3058209 0.102272727,27.7443284 1.88636364,41.6341791 L3.02272727,45.9614925 L2.75,45.9614925 C1.06943177,46.2893065 -0.0385801581,47.966372 0.272727273,49.7110448 L4.72727273,74.4722388 C4.77354933,74.7345591 4.92099043,74.9659238 5.13549514,75.1128217 C5.34999985,75.2597197 5.6129887,75.3094272 5.86363636,75.2504478 L6.64772727,75.0971642 L6.64772727,75.580597 C5.75744235,76.0376746 5.19381063,76.9788869 5.19318182,78.0095522 L5.19318182,78.3161194 L10.4545455,78.3161194 L10.4545455,78.0095522 C10.4672753,77.0438785 9.98197616,76.1446783 9.18181818,75.6513433 L9.18181818,74.5783582 L9.89772727,74.4368657 C10.1505388,74.3888485 10.3735169,74.2358619 10.51509,74.0132892 C10.6566631,73.7907166 10.7045688,73.5178362 10.6477273,73.2577612 L6.45454545,49.9704478 L18.0681818,49.9704478 L13.875,73.2577612 C13.8181584,73.5178362 13.8660642,73.7907166 14.0076373,74.0132892 C14.1492104,74.2358619 14.3721884,74.3888485 14.625,74.4368657 L15.3409091,74.5783582 L15.3409091,75.6513433 C14.5407511,76.1446783 14.055452,77.0438785 14.0681818,78.0095522 L14.0681818,78.3161194 L19.3295455,78.3161194 L19.3295455,78.0095522 C19.3289166,76.9788869 18.7652849,76.0376746 17.875,75.580597 L17.875,75.2150746 L18.6590909,75.3683582 C18.9097386,75.4273377 19.1727274,75.3776301 19.3872321,75.2307322 C19.6017368,75.0838343 19.7491779,74.8524696 19.7954545,74.5901493 L24.3409091,49.498806 C24.4941886,48.7380129 24.3455448,47.945227 23.9285587,47.2995505 C23.5115726,46.6538741 22.8614271,46.2097858 22.125,46.0676119 Z" id="Shape"></path>
                    </g>
                    <rect id="Rectangle-path" fill="#FDB797" fill-rule="nonzero" x="361" y="472" width="2" height="3"></rect>
                    <rect id="Rectangle-path" fill="#FDB797" fill-rule="nonzero" x="370" y="472" width="2" height="3"></rect>
                    <rect id="Rectangle-path" fill="#4D8AF0" fill-rule="nonzero" x="359" y="444" width="16" height="6"></rect>
                    <g id="Group" opacity="0.05" transform="translate(358.000000, 444.000000)" fill="#000000" fill-rule="nonzero">
                        <rect id="Rectangle-path" x="0.895333333" y="0.0933333333" width="16.0366667" height="5.915"></rect>
                    </g>
                    <path d="M359,444.77 C361.632856,445.336311 364.305423,445.747218 367,446 C369.694577,445.747218 372.367144,445.336311 375,444.77 L375,444 L359,444 L359,444.77 Z" id="Shape" fill="#000000" fill-rule="nonzero" opacity="0.1"></path>
                    <path d="M375,445.53222 C372.367144,446.208009 369.694577,446.698351 367,447 C364.305423,446.698351 361.632856,446.208009 359,445.53222 L359,435.436754 C359,433.199188 359.842855,431.053266 361.343146,429.471068 C362.843437,427.88887 364.878268,427 367,427 C369.121732,427 371.156563,427.88887 372.656854,429.471068 C374.157145,431.053266 375,433.199188 375,435.436754 L375,445.53222 Z" id="Shape" fill="#F55F44" fill-rule="nonzero"></path>
                    <path d="M365,422 L369,422 L369,426.902527 C369,427.458811 368.793027,427.992312 368.424612,428.385664 C368.056197,428.779017 367.55652,429 367.035503,429 L366.964497,429 C366.44348,429 365.943803,428.779017 365.575388,428.385664 C365.206973,427.992312 365,427.458811 365,426.902527 L365,422 Z" id="Shape" fill="#FDB797" fill-rule="nonzero"></path>
                    <path d="M364.875072,474.363369 L361.716803,474.976846 C360.983173,475.115782 360.279139,474.615182 360.143496,473.858153 L356.076205,451.388067 C355.858362,450.18835 356.11193,448.948468 356.780963,447.941979 C357.449995,446.93549 358.479512,446.245109 359.642368,446.023154 L359.747255,446.023154 C360.480886,445.884218 361.18492,446.384818 361.320563,447.141847 L365.982214,472.763518 C366.101624,473.520175 365.607253,474.234555 364.875072,474.363369 Z" id="Shape" fill="#4D8AF0" fill-rule="nonzero"></path>
                    <path d="M369.212298,474.407853 L372.152202,474.974045 C372.532823,475.047968 372.926289,474.96251 373.245819,474.736518 C373.565349,474.510527 373.784695,474.162566 373.85548,473.76938 L377.927014,451.266246 C378.137953,450.091845 377.887394,448.879047 377.230688,447.895778 C376.573981,446.912508 375.565175,446.239689 374.427128,446.025955 L374.322132,446.025955 C373.94151,445.952032 373.548045,446.03749 373.228515,446.263482 C372.908985,446.489473 372.689639,446.837434 372.618854,447.23062 L368.022337,472.661089 C367.95466,473.055816 368.042196,473.462116 368.265553,473.789986 C368.488911,474.117856 368.829652,474.340232 369.212298,474.407853 Z" id="Shape" fill="#4D8AF0" fill-rule="nonzero"></path>
                    <path d="M365,425.765178 C366.31378,426.078274 367.68622,426.078274 369,425.765178 L369,423 L365,423 L365,425.765178 Z" id="Shape" fill="#000000" fill-rule="nonzero" opacity="0.1"></path>
                    <ellipse id="Oval" fill="#333333" fill-rule="nonzero" cx="367" cy="414.5" rx="8" ry="8.5"></ellipse>
                    <ellipse id="Oval" fill="#FDB797" fill-rule="nonzero" cx="367" cy="417.5" rx="8" ry="8.5"></ellipse>
                    <path d="M361.475607,406.864683 C362.936135,405.605989 365.148405,405.379197 366.243801,403.757636 C366.705586,403.0886 367.027761,402.136075 367.800982,402 L367.800982,403.723617 L370.270993,403.451467 C369.884382,404.585426 370.82943,405.719384 371.34491,406.728608 C371.757175,407.501684 371.982204,408.370322 372,409.257335 C371.140866,409.801636 370.077687,409.257335 369.121901,408.894469 C368.179805,408.630207 367.207716,408.504287 366.233062,408.520262 C365.733844,408.484697 365.232374,408.515172 364.740316,408.610979 C364.316265,408.731343 363.903016,408.890706 363.505311,409.087242 C362.850221,409.382071 360.766821,410.470671 360.154688,409.767617 C359.542555,409.064562 360.90643,407.340945 361.475607,406.864683 Z" id="Shape" fill="#333333" fill-rule="nonzero"></path>
                    <path d="M362.238914,413.160065 C362.676619,413.423923 363.158227,413.586199 363.654369,413.636997 C365.706264,413.950255 367.796249,413.691429 369.735166,412.883946 C370.102494,413.766201 370.803052,414.423225 371.648861,414.678718 C372.487064,414.923063 373.35324,415.028795 374.219328,414.99249 C374.410332,415.017893 374.603795,414.978508 374.774187,414.879532 C375.159191,414.590862 374.978013,413.925667 374.774187,413.473836 L373.641823,411.227233 C373.360788,410.545957 372.977948,409.922191 372.509458,409.382257 C371.83277,408.793683 371.028291,408.412778 370.176788,408.277781 C368.194678,407.84237 366.148659,407.919679 364.197904,408.503697 C362.069059,409.118689 359.385356,411.227233 362.238914,413.160065 Z" id="Shape" fill="#000000" fill-rule="nonzero" opacity="0.1"></path>
                    <path d="M362.238914,413.160065 C362.676619,413.423923 363.158227,413.586199 363.654369,413.636997 C365.706264,413.950255 367.796249,413.691429 369.735166,412.883946 C370.102494,413.766201 370.803052,414.423225 371.648861,414.678718 C372.487064,414.923063 373.35324,415.028795 374.219328,414.99249 C374.410332,415.017893 374.603795,414.978508 374.774187,414.879532 C375.159191,414.590862 374.978013,413.925667 374.774187,413.473836 L373.641823,411.227233 C373.360788,410.545957 372.977948,409.922191 372.509458,409.382257 C371.83277,408.793683 371.028291,408.412778 370.176788,408.277781 C368.194678,407.84237 366.148659,407.919679 364.197904,408.503697 C362.069059,409.13124 359.385356,411.252335 362.238914,413.160065 Z" id="Shape" fill="#333333" fill-rule="nonzero"></path>
                    <ellipse id="Oval" fill="#FDB797" fill-rule="nonzero" cx="374.5" cy="417.5" rx="1" ry="1.5"></ellipse>
                    <ellipse id="Oval" fill="#FDB797" fill-rule="nonzero" cx="358.5" cy="417.5" rx="1" ry="1.5"></ellipse>
                    <path d="M365,427.047257 C365,427.047257 355.260916,425.360255 357.274023,442.145318 L358.449242,447 L361.800792,446.85436 C361.800792,446.85436 359.624461,441.259339 360.962905,437.521233 C362.301349,433.783128 365,427.047257 365,427.047257 Z" id="Shape" fill="#F55F44" fill-rule="nonzero"></path>
                    <path d="M369,427.047257 C369,427.047257 378.739084,425.360255 376.725977,442.145318 L375.550758,447 L372.199208,446.85436 C372.199208,446.85436 374.375539,441.259339 373.037095,437.521233 C371.698651,433.783128 369,427.047257 369,427.047257 Z" id="Shape" fill="#F55F44" fill-rule="nonzero"></path>
                    <circle id="Oval" fill="#FDB797" fill-rule="nonzero" cx="360" cy="447" r="2"></circle>
                    <circle id="Oval" fill="#FDB797" fill-rule="nonzero" cx="374" cy="447" r="2"></circle>
                    <path d="M362.455157,474 L362.544843,474 C363.900789,474 365,475.195727 365,476.670732 L365,477 L360,477 L360,476.670732 C360,475.195727 361.099211,474 362.455157,474 Z" id="Shape" fill="#333333" fill-rule="nonzero"></path>
                    <path d="M370.449438,474 L370.539326,474 C371.898319,474 373,475.195727 373,476.670732 L373,477 L368,477 L368,476.670732 C367.999986,475.200477 369.094835,474.006713 370.449438,474 Z" id="Shape" fill="#333333" fill-rule="nonzero"></path>
                    <path d="M360.177117,436 C360.177117,436 359.557117,439.503254 360.637117,441" id="Shape" fill="#000000" fill-rule="nonzero" opacity="0.1"></path>
                    <path d="M372.46,436 C372.46,436 373.08,439.503254 372,441" id="Shape" fill="#000000" fill-rule="nonzero" opacity="0.1"></path>
                    <circle id="Oval" fill="#F55F44" fill-rule="nonzero" cx="498.5" cy="389.5" r="3.5"></circle>
                    <path d="M502.981669,402.968284 L502.981669,404 L507,401.2369 L506.575298,400.655819 L506.379282,400.786265 L503.264803,395.817429 L503.264803,392.93574 L502.077816,393.054328 L502.077816,392.591835 C498.952447,388.678432 498.625754,393.054328 499.279141,394.32322 C499.753368,395.176129 500.374605,395.921103 501.108625,396.517098 C501.772902,397.121897 502.91633,401.687534 503.199464,402.825979 L502.981669,402.968284 Z" id="Shape" fill="url(#linearGradient-2)" fill-rule="nonzero"></path>
                    <path d="M529.438513,400.428152 L528.886791,400.027049 L528.379207,398.422635 L528.191621,398.422635 L527.562659,397.077759 C528.10585,396.778822 528.595241,396.379419 529.00817,395.898043 C530.365941,394.333945 530.976202,392.189583 530.663336,390.082043 C530.663336,389.456793 531.579194,387.852379 528.71024,387.014781 C528.53591,385.232362 527.328369,383.761653 525.697839,383.345864 C524.591093,383.051474 523.448084,382.944 522.310266,383.027341 C520.100826,383.097025 518.308407,384.962101 518.183386,387.321507 C518.183386,387.321507 517.52132,387.545653 517.477182,389.869694 L517.565458,389.869694 C517.165467,391.592129 517.422119,393.413907 518.278912,394.933963 C519.135706,396.45402 520.5224,397.547741 522.133715,397.974343 L522.133715,398.222083 L522.255094,398.281069 L522.663368,399.460785 L521.361304,400.298384 L518.746143,400.392761 C517.537745,400.436135 516.346054,400.707723 515.226157,401.194968 C513.016307,402.031872 510.756557,402.709756 508.462047,403.224079 L507.071708,401.100591 L503,404.108866 L505.681368,408.485613 C506.1086,408.831685 506.575928,409.117188 507.071708,409.335009 L507.193086,409.335009 C507.857106,409.60981 508.544446,409.815252 509.245492,409.948461 C511.582496,410.427731 513.979769,410.467652 516.329601,410.066433 L517.245459,429.803082 L517.300631,429.803082 L516.870288,433.188867 C512.577892,438.922287 511.353069,455.603472 511.353069,455.603472 L517.786147,475.104178 C517.664768,475.658645 517.179253,476.861955 515.248226,477.711351 C512.644099,478.891067 517.090977,479.657882 517.090977,479.657882 L521.129581,478.324803 C521.460614,479.04443 523.336469,480 523.336469,480 L531.380574,479.775854 L531.380574,475.481688 L531.27023,475.481688 C531.27023,475.481688 532.020571,467.801736 531.479884,466.197322 C530.939196,464.592908 531.479884,456.759594 531.479884,456.759594 L531.910227,440.137395 C533.343532,437.50457 533.463384,434.283494 532.230226,431.537265 C531.875788,430.737583 531.648313,429.880409 531.557125,429.000875 C531.962831,427.592318 532.008551,426.093343 531.689538,424.65952 C530.729542,418.159285 533.830219,411.682643 533.830219,411.682643 C534.570543,407.333458 532.850412,402.925331 529.438513,400.428152 Z M524.638533,476.519838 L523.733709,473.051472 L523.524054,473.110458 L519.595794,455.414718 L523.237159,447.274677 L523.237159,455.0726 L525.27853,470.326328 L525.27853,475.481688 C525.159418,475.884517 524.937823,476.243971 524.638533,476.519838 Z" id="Shape" fill="url(#linearGradient-3)" fill-rule="nonzero"></path>
                    <path d="M504.026173,393.925573 L504.026173,396.784698 L507,401.778963 L504.026173,404 C504.026173,404 502.699718,398.159041 501.993702,397.47187 C501.299549,396.882608 500.711127,396.145122 500.260753,395.299917 C499.651011,394.072824 499.950533,389.679835 502.902965,393.581988 L502.902965,394.036012 L504.026173,393.925573 Z" id="Shape" fill="#FDA57D" fill-rule="nonzero"></path>
                    <path d="M528.945049,400.92088 L527.681215,398.477805 C527.604603,398.335559 527.456216,398.242758 527.290575,398.233498 L522.488004,398.000295 C522.33141,397.99485 522.182265,398.065022 522.090101,398.187506 C521.997938,398.30999 521.974821,398.468751 522.028428,398.611064 L523.269283,401.709327 C523.345369,401.898932 523.542323,402.016776 523.751838,401.998054 L528.577388,401.587173 C528.733226,401.571597 528.870854,401.482157 528.944581,401.348547 C529.018307,401.214936 529.018483,401.054641 528.945049,400.92088 Z" id="Shape" fill="#FDA57D" fill-rule="nonzero"></path>
                    <polygon id="Shape" fill="#EDEEF9" fill-rule="nonzero" points="528.221918 400 529 402 521 401.75 524.079452 400.134615"></polygon>
                    <polygon id="Shape" fill="#EDEEF9" fill-rule="nonzero" points="508 402.511111 507.583099 402 504 404.066667 504 405"></polygon>
                    <path d="M531.637258,427 C531.311681,428.717654 531.502561,430.501816 532.182429,432.095714 C533.373879,434.763962 533.257239,437.891692 531.870903,440.449342 L531.459243,456.607647 C531.459243,456.607647 530.936325,464.185582 531.459243,465.748904 C531.982162,467.312226 531.247851,474.770823 531.247851,474.770823 L525.428992,474.770823 L525.428992,469.758646 L523.459703,454.99659 L523.459703,447.418656 L519.921659,455.330736 L523.971496,473.613249 L518.675555,476 L512,455.497808 C512,455.497808 513.112593,439.339503 517.29594,433.766439 L518.074755,427.692158 L531.637258,427 Z" id="Shape" fill="#7A7478" fill-rule="nonzero"></path>
                    <path d="M531,477.76087 L531,474 L525.069398,474 C525.069398,474 524.656932,475.521739 521.948029,475.826087 C519.239126,476.130435 523.196577,478 523.196577,478 L531,477.76087 Z" id="Shape" fill="#333333" fill-rule="nonzero"></path>
                    <path d="M525,475.693161 L523.968313,472 L518.277396,473.608133 C518.277396,473.608133 518.277396,475.216266 515.781379,476.236599 C513.285363,477.256932 517.567418,478 517.567418,478 L525,475.693161 Z" id="Shape" fill="#333333" fill-rule="nonzero"></path>
                    <path d="M518.326104,427.608113 L532,427 C531.845772,427.891949 531.822989,428.805523 531.93253,429.705484 C531.682012,430.632676 530.815638,431.179059 529.964659,430.946532 L518,430.536986 L518.326104,427.608113 Z" id="Shape" fill="#000000" fill-rule="nonzero" opacity="0.1"></path>
                    <path d="M529.018354,401 L529.550895,401.388144 C532.877855,403.774227 534.558448,408.020715 533.833416,412.209131 C533.833416,412.209131 530.826776,418.442961 531.758723,424.67679 C532.690671,430.91062 529.684031,429.946141 529.684031,429.946141 L517.823889,429.557996 L516.947414,410.644793 C516.947414,410.644793 509.802483,411.726892 506.585045,409.092216 L504,404.893203 L507.938588,402.011527 L509.281036,404.046343 C511.497661,403.554639 513.680778,402.906284 515.815764,402.105623 C516.895403,401.636724 518.044749,401.373915 519.210715,401.329334 L529.018354,401 Z" id="Shape" fill="#252A62" fill-rule="nonzero"></path>
                    <path d="M527.958298,432 C527.958298,432 528.582614,435.762946 525,442" id="Shape" fill="#000000" fill-rule="nonzero" opacity="0.1"></path>
                    <path d="M516,410.702099 C516,410.702099 511.016649,409 508.836433,409 C506.656217,409 507.023294,409.970996 507.023294,409.970996 C509.900974,411.020595 512.997196,411.272765 516,410.702099 Z" id="Shape" fill="#000000" fill-rule="nonzero" opacity="0.1"></path>
                    <path d="M522.179739,398.001279 L523.867273,398.275613 C523.924156,398.275613 523.971558,398.380121 524,398.52382 C523.63026,399.451331 523.165714,400 522.653765,400 C522.4737,399.996685 522.297326,399.929176 522.141817,399.804047 L522.00909,398.719773 C521.971168,398.353994 522.056492,397.975152 522.179739,398.001279 Z" id="Shape" fill="#000000" fill-rule="nonzero" opacity="0.1"></path>
                    <ellipse id="Oval" fill="#FDA57D" fill-rule="nonzero" cx="523" cy="393.5" rx="6" ry="6.5"></ellipse>
                    <path d="M518.000124,389.482461 L518.300425,389.781697 C518.563378,390.040586 518.685673,390.425795 518.624893,390.803716 C518.564113,391.181637 518.328632,391.500206 518.000124,391.64893 C518.000124,391.64893 520.713957,394.569475 521.092114,395.1081 C521.470271,395.646725 521.02538,397.083058 521.02538,397.083058 C521.02538,397.083058 519.824175,399.476947 526.141623,398.914383 C526.141623,398.914383 530.301351,397.968797 529.867582,391.924227 C529.867582,391.313786 530.746241,389.745788 527.976797,388.931866 C527.812128,387.186526 526.637949,385.745139 525.051641,385.341033 C523.961799,385.047454 522.835486,384.942405 521.714961,385.029827 C519.593834,385.258553 517.983756,387.188406 518.000124,389.482461 Z" id="Shape" fill="#000000" fill-rule="nonzero" opacity="0.1"></path>
                    <path d="M518.683087,389.219133 C518.683087,389.219133 518.033594,389.434583 518,391.708777 L518.918249,391.636961 C518.918249,391.636961 521.045898,397.729408 520.821935,396.939425 C519.993271,394.01888 521.650598,394.545536 522.031335,395.1081 C522.412073,395.670664 521.964147,397.083058 521.964147,397.083058 C521.964147,397.083058 520.754746,399.476947 527.115297,398.914383 C527.115297,398.914383 531.303407,397.968797 530.866679,391.924227 C530.866679,391.313786 531.751333,389.745788 528.962993,388.931866 C528.7972,387.186526 527.61501,385.745139 526.017878,385.341033 C524.9206,385.047454 523.786602,384.942405 522.658432,385.029827 C520.522207,385.124833 518.802262,386.937349 518.683087,389.219133 Z" id="Shape" fill="#72351C" fill-rule="nonzero"></path>
                    <path d="M77.1825528,459.96756 C77.1825528,459.639107 77.1825528,459.310653 77.1825528,458.970469 C77.1938696,454.327878 74.8247141,450.036803 70.9785872,447.733687 C67.1324602,445.43057 62.4023407,445.470498 58.5921062,447.838242 C56.6001452,443.918027 52.8245451,441.347068 48.5974701,441.032489 C44.3703952,440.717909 40.2860669,442.703932 37.7855799,446.289818 C32.6424021,445.184083 27.3960658,447.61847 24.7197433,452.352583 C22.0434208,457.086695 22.526051,463.078767 25.9217187,467.27565 C24.0812665,472.184839 25.2768958,477.773796 28.9410398,481.389437 C32.6051838,485.005077 38.0000551,485.91938 42.5647013,483.698325 C47.0248143,485.845774 52.2758476,485.011489 55.9283336,481.575108 C59.2716166,484.734763 63.9995421,485.716805 68.2398876,484.132353 C74.5912234,486.697865 81.7243437,483.38128 84.1721578,476.724553 C86.6199718,470.067827 83.4555423,462.591725 77.1042065,460.026212 L77.1825528,459.96756 Z" id="Shape" fill="#4DB6AC" fill-rule="nonzero"></path>
                    <path d="M77.1825528,459.96756 C77.1825528,459.639107 77.1825528,459.310653 77.1825528,458.970469 C77.1938696,454.327878 74.8247141,450.036803 70.9785872,447.733687 C67.1324602,445.43057 62.4023407,445.470498 58.5921062,447.838242 C56.6001452,443.918027 52.8245451,441.347068 48.5974701,441.032489 C44.3703952,440.717909 40.2860669,442.703932 37.7855799,446.289818 C32.6424021,445.184083 27.3960658,447.61847 24.7197433,452.352583 C22.0434208,457.086695 22.526051,463.078767 25.9217187,467.27565 C24.0812665,472.184839 25.2768958,477.773796 28.9410398,481.389437 C32.6051838,485.005077 38.0000551,485.91938 42.5647013,483.698325 C47.0248143,485.845774 52.2758476,485.011489 55.9283336,481.575108 C59.2716166,484.734763 63.9995421,485.716805 68.2398876,484.132353 C74.5912234,486.697865 81.7243437,483.38128 84.1721578,476.724553 C86.6199718,470.067827 83.4555423,462.591725 77.1042065,460.026212 L77.1825528,459.96756 Z" id="Shape" fill="#000000" fill-rule="nonzero" opacity="0.1"></path>
                    <path d="M78.1825528,459.96756 C78.1825528,459.639107 78.1825528,459.310653 78.1825528,458.970469 C78.1938696,454.327878 75.8247141,450.036803 71.9785872,447.733687 C68.1324602,445.43057 63.4023407,445.470498 59.5921062,447.838242 C57.6001452,443.918027 53.8245451,441.347068 49.5974701,441.032489 C45.3703952,440.717909 41.2860669,442.703932 38.7855799,446.289818 C33.6424021,445.184083 28.3960658,447.61847 25.7197433,452.352583 C23.0434208,457.086695 23.526051,463.078767 26.9217187,467.27565 C25.0812665,472.184839 26.2768958,477.773796 29.9410398,481.389437 C33.6051838,485.005077 39.0000551,485.91938 43.5647013,483.698325 C48.0248143,485.845774 53.2758476,485.011489 56.9283336,481.575108 C60.2716166,484.734763 64.9995421,485.716805 69.2398876,484.132353 C75.5912234,486.697865 82.7243437,483.38128 85.1721578,476.724553 C87.6199718,470.067827 84.4555423,462.591725 78.1042065,460.026212 L78.1825528,459.96756 Z" id="Shape" fill="#4DB6AC" fill-rule="nonzero"></path>
                    <path d="M940.330619,455.350993 C940.330619,455.015899 940.330619,454.680806 940.330619,454.333745 C940.341967,449.597304 937.966337,445.219483 934.1097,442.869809 C930.253063,440.520135 925.510017,440.560869 921.68937,442.976478 C919.691966,438.977016 915.906048,436.354084 911.667421,436.033145 C907.428795,435.712207 903.333305,437.738377 900.825985,441.396753 C895.668752,440.268665 890.408079,442.752264 887.724443,447.582077 C885.040807,452.411891 885.524756,458.525093 888.929703,462.806817 C889.760013,469.944409 894.01412,476.106698 900.158695,479.072581 C906.30327,482.038464 913.452495,481.380371 919.029541,477.335502 C922.116285,483.47758 928.502525,486.87298 934.960228,485.80544 C941.417931,484.737899 946.540343,479.439972 947.738255,472.589586 C948.936166,465.7392 945.948622,458.82865 940.285728,455.350993 L940.330619,455.350993 Z" id="Shape" fill="#4DB6AC" fill-rule="nonzero"></path>
                    <path d="M940.330619,455.350993 C940.330619,455.015899 940.330619,454.680806 940.330619,454.333745 C940.341967,449.597304 937.966337,445.219483 934.1097,442.869809 C930.253063,440.520135 925.510017,440.560869 921.68937,442.976478 C919.691966,438.977016 915.906048,436.354084 911.667421,436.033145 C907.428795,435.712207 903.333305,437.738377 900.825985,441.396753 C895.668752,440.268665 890.408079,442.752264 887.724443,447.582077 C885.040807,452.411891 885.524756,458.525093 888.929703,462.806817 C889.760013,469.944409 894.01412,476.106698 900.158695,479.072581 C906.30327,482.038464 913.452495,481.380371 919.029541,477.335502 C922.116285,483.47758 928.502525,486.87298 934.960228,485.80544 C941.417931,484.737899 946.540343,479.439972 947.738255,472.589586 C948.936166,465.7392 945.948622,458.82865 940.285728,455.350993 L940.330619,455.350993 Z" id="Shape" fill="#000000" fill-rule="nonzero" opacity="0.1"></path>
                    <path d="M941.330619,455.350993 C941.330619,455.015899 941.330619,454.680806 941.330619,454.333745 C941.341967,449.597304 938.966337,445.219483 935.1097,442.869809 C931.253063,440.520135 926.510017,440.560869 922.68937,442.976478 C920.691966,438.977016 916.906048,436.354084 912.667421,436.033145 C908.428795,435.712207 904.333305,437.738377 901.825985,441.396753 C896.668752,440.268665 891.408079,442.752264 888.724443,447.582077 C886.040807,452.411891 886.524756,458.525093 889.929703,462.806817 C890.760013,469.944409 895.01412,476.106698 901.158695,479.072581 C907.30327,482.038464 914.452495,481.380371 920.029541,477.335502 C923.116285,483.47758 929.502525,486.87298 935.960228,485.80544 C942.417931,484.737899 947.540343,479.439972 948.738255,472.589586 C949.936166,465.7392 946.948622,458.82865 941.285728,455.350993 L941.330619,455.350993 Z" id="Shape" fill="#4DB6AC" fill-rule="nonzero"></path>
                    <rect id="Rectangle-path" fill="#333333" fill-rule="nonzero" x="11" y="478" width="1001" height="11"></rect>
                    <ellipse id="Oval" fill="#FCCC63" fill-rule="nonzero" cx="93.5" cy="33.5" rx="31.5" ry="33.5"></ellipse>
                    <g id="Group" opacity="0.547823661" transform="translate(642.000000, 67.000000)" fill="#E0E0E0" fill-rule="nonzero">
                        <rect id="Rectangle-path" x="26.6335294" y="0.181052632" width="105.64" height="21.9985965" rx="9.22"></rect>
                        <rect id="Rectangle-path" x="0.871764706" y="22.1796491" width="105.64" height="21.9985965" rx="9.22"></rect>
                        <rect id="Rectangle-path" x="26.6335294" y="44.1782456" width="105.64" height="21.9985965" rx="9.22"></rect>
                    </g>
                    <g id="Group" opacity="0.546261161" transform="translate(156.000000, 55.000000)" fill="#E0E0E0" fill-rule="nonzero">
                        <rect id="Rectangle-path" x="26.6558824" y="0.954385965" width="105.64" height="21.9985965" rx="9.22"></rect>
                        <rect id="Rectangle-path" x="0.894117647" y="22.9529825" width="105.64" height="21.9985965" rx="9.22"></rect>
                        <rect id="Rectangle-path" x="26.6558824" y="44.9635088" width="105.64" height="21.9985965" rx="9.22"></rect>
                    </g>
                    <g id="Group" opacity="0.3" transform="translate(95.000000, 124.000000)" fill="#030B44" fill-rule="nonzero">
                        <path d="M0,11.2 L22.0909524,11.2 C22.0909524,11.2 13.7671429,26.9882353 0,11.2 Z" id="Shape"></path>
                        <path d="M1.33619048,17.9411765 L15.7933333,0.0117647059 C15.7933333,0.0117647059 21.4885714,17.1411765 1.33619048,17.9411765 Z" id="Shape"></path>
                    </g>
                    <g id="Group" opacity="0.3" transform="translate(341.000000, 38.000000)" fill="#030B44" fill-rule="nonzero">
                        <path d="M0.295714286,11.293125 L22.3647619,11.293125 C22.3647619,11.293125 14.0628571,27.253125 0.295714286,11.293125 Z" id="Shape"></path>
                        <path d="M1.62095238,18.085625 L16.1,0 C16.1,0 21.7733333,17.278125 1.62095238,18.085625 Z" id="Shape"></path>
                    </g>
                    <g id="Group" opacity="0.3" transform="translate(802.000000, 113.000000)" fill="#030B44" fill-rule="nonzero">
                        <path d="M0.25,12.8683333 L24.8409091,12.8683333 C24.8409091,12.8683333 15.5681818,29.6916667 0.25,12.8683333 Z" id="Shape"></path>
                        <path d="M1.72727273,20.02 L17.8522727,0.921666667 C17.8522727,0.921666667 24.1590909,19.18 1.72727273,20.02 Z" id="Shape"></path>
                    </g>
                    <g id="Group" opacity="0.5" transform="translate(680.000000, 384.000000)" fill="url(#linearGradient-4)" fill-rule="nonzero">
                        <path d="M32.265,93.926506 C30.88125,93.0645783 30.15,90.1954217 29.93625,89.2036145 L28.2825,66.8525301 C26.9921079,60.6466065 24.9978956,54.6253005 22.3425,48.9173494 C22.28625,42.6477108 22.06125,22.799759 21.5325,20.6626506 L18.4725,16.66 C18.6189158,16.3538014 18.7842692,16.0579885 18.9675,15.7744578 L19.13625,15.7744578 L19.35,15.5028916 C20.823367,14.9578724 21.9824379,13.7421042 22.5025993,12.196079 C23.0227608,10.6500538 22.8480879,8.93999203 22.0275,7.54481928 C22.7925,6.95445783 21.81375,6.70650602 21.81375,6.70650602 C21.2131319,3.92418027 18.6601667,2.10692618 15.975,2.55036145 C15.6335739,1.28808024 14.5364796,0.41607299 13.28625,0.413253012 L13.12875,0.413253012 C14.2946169,0.479950775 15.2987947,1.29861783 15.64875,2.46771084 C14.6774627,1.42864058 13.4378253,0.710401682 12.0825,0.401445783 L11.925,0.401445783 C12.4898471,0.436148227 13.0312914,0.650276242 13.4775,1.01542169 L13.23,1.01542169 C11.9639722,1.01329786 10.8539501,1.90265773 10.5221728,3.18495764 C10.1903955,4.46725755 10.7193405,5.82372646 11.8125,6.4939759 C11.5056424,7.70018101 11.6049894,8.98058897 12.09375,10.1187952 C11.8165241,11.9842231 12.7284543,13.8218541 14.34375,14.6527711 L14.00625,15.4556627 C13.60125,15.4556627 10.305,15.8925301 8.19,23.7207229 C7.27875,25.6925301 6.5925,28.8686747 6.6375,34.0166265 C6.5475,35.3390361 6.48,36.7440964 6.44625,38.2554217 L4.91625,44.8674699 L4.91625,45.0327711 C4.49706294,50.3334952 4.77720804,55.6695809 5.74875,60.8898795 C6.3225,63.8298795 6.7725,66.793494 6.5025,67.8089157 C5.895,70.1703614 3.735,78.6361446 4.03875,81.2455422 L3.31875,85.8149398 L0.61875,91.1990361 C0.61875,91.1990361 2.28375,92.793012 2.93625,92.840241 C3.58875,92.8874699 4.35375,94.0209639 4.35375,94.0209639 C4.35375,94.0209639 8.235,97.1616867 9.55125,96.193494 C10.8675,95.2253012 9.05625,94.0681928 7.81875,92.4742169 C6.80625,91.1636145 7.065,88.2118072 7.18875,87.1845783 L12.9825,65.6009639 C13.4152615,62.5915518 13.6371068,59.5528764 13.64625,56.5093976 C14.0913388,56.8835023 14.5986643,57.1677447 15.1425,57.3477108 C15.3255427,57.4083931 15.5219573,57.4083931 15.705,57.3477108 L16.07625,58.7527711 C16.07625,58.7527711 22.75875,68.7771084 22.95,71.1857831 C23.14125,73.5944578 23.90625,82.3436145 25.05375,84.693253 L25.88625,89.2390361 L25.12125,95.2725301 C25.9800563,95.6789481 26.9030846,95.9151303 27.84375,95.9691566 C28.47375,95.7684337 29.565,96.5949398 29.565,96.5949398 C29.565,96.5949398 34.23375,98.1416867 35.19,96.7484337 C36.14625,95.3551807 33.9525,94.9655422 32.265,93.926506 Z" id="Shape"></path>
                    </g>
                    <path d="M700.384615,429.961326 L702,434 C702,434 701.824176,407.513812 701.21978,405.071823 L697.318681,400 L696,403.721685 L699,407.701657 C700.119626,411.472904 700.646907,415.416221 700.56044,419.371547 C700.263736,425.15953 700.384615,429.961326 700.384615,429.961326 Z" id="Shape" fill="#3AD29F" fill-rule="nonzero"></path>
                    <path d="M700.384615,429.961326 L702,434 C702,434 701.824176,407.513812 701.21978,405.071823 L697.318681,400 L696,403.721685 L699,407.701657 C700.119626,411.472904 700.646907,415.416221 700.56044,419.371547 C700.263736,425.15953 700.384615,429.961326 700.384615,429.961326 Z" id="Shape" fill="#381E1D" fill-rule="nonzero"></path>
                    <path d="M700.384615,429.961326 L702,434 C702,434 701.824176,407.513812 701.21978,405.071823 L697.318681,400 L696,403.721685 L699,407.701657 C700.119626,411.472904 700.646907,415.416221 700.56044,419.371547 C700.263736,425.15953 700.384615,429.961326 700.384615,429.961326 Z" id="Shape" fill="#333333" fill-rule="nonzero"></path>
                    <path d="M685.544479,428.161128 C685.113424,433.338597 685.377134,438.553831 686.32791,443.654566 C686.876312,446.469422 687.312796,449.296007 687.044191,450.292935 C686.462213,452.521363 684.380524,460.672717 684.682705,463.194359 L684,467.569115 L687.726895,469 L693.322834,448.216978 C694.225722,441.176299 694.225722,434.040679 693.322834,427 L685.48852,428.172857 L685.544479,428.161128 Z" id="Shape" fill="#4D8AF0" fill-rule="nonzero"></path>
                    <path d="M683.743957,468 L681,473.749712 C681,473.749712 682.595065,475.362586 683.23086,475.399522 C683.866655,475.436458 684.58053,476.630724 684.58053,476.630724 C684.58053,476.630724 688.283757,479.794912 689.555347,478.809951 C690.826937,477.82499 689.086867,476.66766 687.893357,475.116346 C686.699847,473.565032 687.335642,469.428194 687.335642,469.428194 L683.743957,468 Z" id="Shape" fill="#381E1D" fill-rule="nonzero"></path>
                    <path d="M696.262742,442.451485 C696.262742,442.451485 702.855707,452.182178 703.039483,454.522772 C703.223259,456.863366 703.981335,465.358416 705.106963,467.592079 L705.922469,472 L710,472 L708.368988,450.19802 C706.865962,443.165142 704.459318,436.37211 701.213209,430 L694,434.087129 L696.262742,442.451485 Z" id="Shape" fill="#4D8AF0" fill-rule="nonzero"></path>
                    <path d="M701.504536,430.772112 C701.504536,431.28486 696,430.772112 696,430.772112 L696,405.950484 L698.521077,402 C699.403534,403.232393 700.053869,404.632918 700.436656,406.125285 C701.031446,407.789246 701.516999,409.49469 701.889854,411.22945 C702.077008,412.313212 701.405454,413.816493 701.526554,415.179935 C702.165103,420.355868 702.1577,425.598223 701.504536,430.772112 Z" id="Shape" fill="#FFFFFF" fill-rule="nonzero"></path>
                    <path d="M698.038023,403 C698.369517,401.604002 699.043775,400.312333 700,399.241458 L695.140684,398 L694,400.676538 L698.038023,403 Z" id="Shape" fill="#FDA57D" fill-rule="nonzero"></path>
                    <path d="M695.028687,400.000036 C695.028687,400.000036 688.118978,399.833836 687.50862,422.140243 L686,428.562684 C686,428.562684 698.207154,449.183349 700.660101,432.456511 C700.660101,432.456511 701.984462,414.233874 699.404837,408.072605 L700.660101,404.962291 L695.028687,400.000036 Z" id="Shape" fill="#000000" fill-rule="nonzero" opacity="0.1"></path>
                    <path d="M695.028687,400.000036 C695.028687,400.000036 688.118978,399.833836 687.50862,422.140243 L686,428.562684 C686,428.562684 698.207154,449.183349 700.660101,432.456511 C700.660101,432.456511 701.984462,414.233874 699.404837,408.072605 L700.660101,404.962291 L695.028687,400.000036 Z" id="Shape" fill="#333333" fill-rule="nonzero"></path>
                    <path d="M692.012602,432.918361 C692.012602,432.918361 691.578119,439.542042 695.811539,440.954022 C696.077045,441.043401 696.367753,441.001051 696.598807,440.839334 C696.829862,440.677616 696.975216,440.414763 696.992441,440.127497 C697.059284,438.979545 696.713926,436.683642 694.697481,432 L692.012602,432.918361 Z" id="Shape" fill="#000000" fill-rule="nonzero" opacity="0.1"></path>
                    <path d="M692.012602,431.918361 C692.012602,431.918361 691.578119,438.542042 695.811539,439.954022 C696.077045,440.043401 696.367753,440.001051 696.598807,439.839334 C696.829862,439.677616 696.975216,439.414763 696.992441,439.127497 C697.059284,437.979545 696.713926,435.683642 694.697481,431 L692.012602,431.918361 Z" id="Shape" fill="#FDA57D" fill-rule="nonzero"></path>
                    <circle id="Oval" fill="#FA9221" fill-rule="nonzero" cx="699.22" cy="412.22" r="1"></circle>
                    <circle id="Oval" fill="#FA9221" fill-rule="nonzero" cx="699.22" cy="422.22" r="1"></circle>
                    <path d="M705.796037,471.080171 L705,477.070126 C705.835791,477.450146 706.734073,477.671464 707.649666,477.722951 C708.263751,477.528249 709.332715,478.307057 709.332715,478.307057 C709.332715,478.307057 713.881497,479.761597 714.779881,478.455947 C715.678266,477.150297 713.642686,476.74944 711.993752,475.775929 C710.344819,474.802419 709.65113,471 709.65113,471 L705.796037,471.080171 Z" id="Shape" fill="#381E1D" fill-rule="nonzero"></path>
                    <path d="M692.348915,405.023838 C692.348915,405.023838 686.344273,403.731718 687.059111,420.173641 C687.059111,420.173641 688.499785,432.217616 691.029213,433 L694.812358,431.968675 L693.305698,420.707085 L694.812358,414.874766 C694.812358,414.874766 696.011087,406.067017 692.348915,405.023838 Z" id="Shape" fill="#DAA4A2" fill-rule="nonzero" opacity="0.1"></path>
                    <path d="M693.346824,405.023838 C693.346824,405.023838 687.344529,403.731718 688.059088,420.173641 C688.059088,420.173641 689.499199,432.217616 692.027638,433 L695.809303,431.968675 L694.303233,420.707085 L695.809303,414.874766 C695.809303,414.874766 697.018557,406.067017 693.346824,405.023838 Z" id="Shape" fill="#000000" fill-rule="nonzero" opacity="0.1"></path>
                    <path d="M692.348915,405.023838 C692.348915,405.023838 686.344273,403.731718 687.059111,420.173641 C687.059111,420.173641 688.499785,432.217616 691.029213,433 L694.812358,431.968675 L693.305698,420.707085 L694.812358,414.874766 C694.812358,414.874766 696.011087,406.067017 692.348915,405.023838 Z" id="Shape" fill="#333333" fill-rule="nonzero"></path>
                    <polygon id="Shape" fill="#000000" fill-rule="nonzero" opacity="0.1" points="692 433 692 432.660194 694.872792 432 695 432.281553"></polygon>
                    <polygon id="Shape" fill="#000000" fill-rule="nonzero" opacity="0.1" points="692 403.060362 698.808219 409 699 408.867203 692.119863 403"></polygon>
                    <polygon id="Shape" fill="#000000" fill-rule="nonzero" opacity="0.1" points="700.018018 432 700 432.27 701 432.13 700.945946 432"></polygon>
                    <path d="M694,399.569832 C694.872433,400.407829 695.984249,400.911355 697.157895,401 C697.614397,400.999782 698.068384,400.928252 698.505263,400.787709 C698.65333,400.582034 698.818943,400.391282 699,400.217877 L694.515789,399 L694,399.569832 Z" id="Shape" fill="#000000" fill-rule="nonzero" opacity="0.1"></path>
                    <circle id="Oval" fill="#FDD835" fill-rule="nonzero" cx="697" cy="393" r="5"></circle>
                    <circle id="Oval" fill="#FDA57D" fill-rule="nonzero" cx="698" cy="395" r="5"></circle>
                    <path d="M692.464481,393 C692.464481,393 690.49871,398.358025 694.655249,400 C695.358962,399.628846 695.848411,398.927383 695.970446,398.115099 C696.09248,397.302815 695.832194,396.478928 695.271032,395.901235 L692.464481,393 Z" id="Shape" fill="#FDD835" fill-rule="nonzero"></path>
                    <ellipse id="Oval" fill="#FDD835" fill-rule="nonzero" cx="693.5" cy="389" rx="2.5" ry="3"></ellipse>
                    <path d="M701.505031,391.669484 C701.505031,391.669484 703.246672,392.122562 700.195955,393.261378 C699.184739,393.629604 698.360511,394.432019 697.919301,395.477785 C697.654363,396.126247 697.150367,396.626739 696.528335,396.859079 C695.906303,397.091419 695.222425,397.034619 694.640919,396.702319 L693.673341,396.126788 L692,391.914391 L693.992072,389.465323 L697.407054,389 L701.505031,391.669484 Z" id="Shape" fill="#FDD835" fill-rule="nonzero"></path>
                    <path d="M695.675835,388.993763 C695.678044,387.401666 694.502309,386.086237 693,386 L693.165029,386 C694.73074,386 696,387.343146 696,389 C696,390.656854 694.73074,392 693.165029,392 L693,392 C694.506875,391.913525 695.684337,390.590675 695.675835,388.993763 Z" id="Shape" fill="#FDD835" fill-rule="nonzero"></path>
                    <path d="M694.675835,388.993763 C694.678044,387.401666 693.502309,386.086237 692,386 L692.165029,386 C693.73074,386 695,387.343146 695,389 C695,390.656854 693.73074,392 692.165029,392 L692,392 C693.506875,391.913525 694.684337,390.590675 694.675835,388.993763 Z" id="Shape" fill="#FDD835" fill-rule="nonzero"></path>
                    <ellipse id="Oval" fill="#FDA57D" fill-rule="nonzero" cx="696.44" cy="397" rx="1" ry="1"></ellipse>
                    <g id="Group" opacity="0.5" transform="translate(205.000000, 386.000000)" fill="url(#linearGradient-5)" fill-rule="nonzero">
                        <path d="M44.4502326,93.8674699 C43.0660465,92.9937349 42.3293023,90.1009639 42.1172093,89.0737349 L40.4651163,66.4746988 C39.1701125,60.1992629 37.1688713,54.1105625 34.504186,48.3387952 C34.4483721,41.9983133 34.2251163,21.9260241 33.6893023,19.7771084 L30.4967442,15.68 C30.65428,15.3888395 30.8295328,15.108812 31.0213953,14.8416867 L31.8362791,17.2739759 L34.772093,16.9315663 L33.1869767,13.72 C35.362982,11.8596281 35.7978832,8.53102806 34.1804651,6.11614458 C34.5730143,5.60764752 34.5730143,4.87717176 34.1804651,4.3686747 C33.6854547,3.7573897 33.0967809,3.23850759 32.4390698,2.83373494 C30.0678552,0.400493138 26.3087041,0.36339417 23.8949785,2.74941352 C21.4812529,5.13543287 21.262249,9.10502311 23.3972093,11.7718072 C23.232156,11.9663757 23.0197968,12.109315 22.7832558,12.1850602 C21.7763205,12.5348463 20.8827404,13.1772328 20.2046512,14.0387952 C20.0088464,14.29283 19.921684,14.6215235 19.9640241,14.9462111 C20.0063643,15.2708988 20.1743967,15.5623609 20.427907,15.7508434 L20.907907,16.0696386 C21.3013691,16.3153246 21.796661,16.2825817 22.1581395,15.986988 L23.1516279,15.113253 C23.1824531,15.0806482 23.2324306,15.0806482 23.2632558,15.113253 C23.294081,15.1458578 23.294081,15.1987205 23.2632558,15.2313253 C23.032936,15.4965913 22.9507815,15.8700685 23.0467361,16.2156317 C23.1426906,16.5611949 23.4027369,16.8283632 23.732093,16.919759 C22.5999982,18.1749717 21.7023853,19.6451905 21.0865116,21.253012 C19.7581395,22.9650602 18.5413953,26.4363855 18.6306977,33.4026506 C18.5339535,34.6699598 18.4669767,36.0277912 18.4297674,37.4761446 L16.9004651,44.1708434 C16.9004651,44.1708434 5.07906977,67.2185542 7.97023256,70.2648193 C7.97023256,70.2648193 9.74511628,70.5954217 12.2344186,71.2920482 L5.1572093,81.2101205 L5.25767442,81.3045783 L0.79255814,84.846747 C0.79255814,84.846747 1.61860465,87.0783133 2.19906977,87.4207229 C2.77953488,87.7631325 2.96930233,89.18 2.96930233,89.18 C2.96930233,89.18 5.14604651,93.8438554 6.74232558,93.5722892 C8.33860465,93.3007229 7.18883721,91.4115663 6.74232558,89.3807229 C6.39627907,87.7985542 7.71348837,85.413494 8.30511628,84.4216867 L8.46139535,84.586988 C8.46139535,84.586988 16.855814,77.9159036 20.0706977,74.1848193 C21.774948,74.9535294 23.3894009,75.9282013 24.8818605,77.0893976 C26.818517,71.7068598 28.3817273,66.1821862 29.5590698,60.5592771 C31.5460465,63.6881928 34.8837209,69.1785542 35.0176744,70.8906024 C35.2074419,73.3228916 35.9776744,82.1783133 37.1274419,84.539759 L37.9534884,89.1327711 L37.1832558,95.2253012 C38.0421836,95.6368055 38.9655772,95.8769781 39.9069767,95.9337349 C40.532093,95.733012 41.6372093,96.5595181 41.6372093,96.5595181 C41.6372093,96.5595181 46.3255814,98.1298795 47.2186047,96.713012 C48.1116279,95.2961446 46.1469767,94.9301205 44.4502326,93.8674699 Z" id="Shape"></path>
                    </g>
                    <ellipse id="Oval" fill="#000000" fill-rule="nonzero" cx="233" cy="395.5" rx="6" ry="6.5"></ellipse>
                    <path d="M218.5,455.000274 L211,465.828465 L214.032609,469 C214.032609,469 224.554348,460.396618 225.869565,457.556437 C225.944637,457.406822 225.98913,457.241313 226,457.07124 C226,454.92927 218.5,455.000274 218.5,455.000274 Z" id="Shape" fill="#7A7478" fill-rule="nonzero"></path>
                    <path d="M233.246418,444.374576 C233.246418,444.374576 239.836676,454.127119 240.031519,456.464407 C240.226361,458.801695 240.971347,467.320339 242.106017,469.586441 L242.919771,474 L247,474 L245.372493,452.169492 C243.866688,445.146687 241.461467,438.363548 238.22063,432 L231,436.09322 L233.246418,444.374576 Z" id="Shape" fill="#7A7478" fill-rule="nonzero"></path>
                    <rect id="Rectangle-path" fill="#FFFFFF" fill-rule="nonzero" x="232" y="408" width="6" height="25"></rect>
                    <path d="M237.3766,431.959352 L239,436 C239,436 238.824497,409.507406 238.221207,407.071306 L234.316271,402 L233,405.724423 L236.005484,409.706511 C237.128691,413.491442 237.655055,417.449354 237.563071,421.418533 C237.255941,427.145711 237.3766,431.959352 237.3766,431.959352 Z" id="Shape" fill="#000000" fill-rule="nonzero" opacity="0.1"></path>
                    <polygon id="Shape" fill="#000000" fill-rule="nonzero" points="237.031746 400 239 404.635417 236.333333 405 235 400.364583"></polygon>
                    <ellipse id="Oval" fill="#FDA57D" fill-rule="nonzero" cx="235" cy="397.5" rx="5" ry="5.5"></ellipse>
                    <path d="M235.132827,404 C235.49747,402.92866 236.139094,401.959483 237,401.179625 L232.13852,400 L231,402.530831 L235.132827,404 Z" id="Shape" fill="#FDA57D" fill-rule="nonzero"></path>
                    <path d="M232.57744,402.001995 C232.57744,402.001995 224.162417,401.346345 223.593065,423.805363 L222.124137,430.266503 C222.124137,430.266503 210.589064,452.534787 213.458598,455.467334 C213.458598,455.467334 224.310448,457.493891 229.92426,462 C233.12691,453.012478 235.387219,443.687243 236.665388,434.188487 C236.665388,434.188487 237.974898,415.842187 235.412813,409.643307 L236.665388,406.508104 L232.57744,402.001995 Z" id="Shape" fill="#3AD29F" fill-rule="nonzero"></path>
                    <path d="M237.3766,431.959352 L239,436 C239,436 238.824497,409.507406 238.221207,407.071306 L234.316271,402 L233,405.724423 L236.005484,409.706511 C237.128691,413.491442 237.655055,417.449354 237.563071,421.418533 C237.255941,427.145711 237.3766,431.959352 237.3766,431.959352 Z" id="Shape" fill="#3AD29F" fill-rule="nonzero"></path>
                    <path d="M237.3766,431.959352 L239,436 C239,436 238.824497,409.507406 238.221207,407.071306 L234.316271,402 L233,405.724423 L236.005484,409.706511 C237.128691,413.491442 237.655055,417.449354 237.563071,421.418533 C237.255941,427.145711 237.3766,431.959352 237.3766,431.959352 Z" id="Shape" fill="#000000" fill-rule="nonzero" opacity="0.05"></path>
                    <path d="M228.012602,433.938925 C228.012602,433.938925 227.578119,440.568652 231.811539,441.954139 C232.077045,442.043291 232.367753,442.001049 232.598807,441.839743 C232.829862,441.678437 232.975216,441.416252 232.992441,441.129717 C233.059284,439.984687 232.713926,437.694625 230.697481,433 L228.012602,433.938925 Z" id="Shape" fill="#000000" fill-rule="nonzero" opacity="0.1"></path>
                    <path d="M229.012602,433.938925 C229.012602,433.938925 228.578119,440.568652 232.811539,441.954139 C233.077045,442.043291 233.367753,442.001049 233.598807,441.839743 C233.829862,441.678437 233.975216,441.416252 233.992441,441.129717 C234.059284,439.984687 233.713926,437.694625 231.697481,433 L229.012602,433.938925 Z" id="Shape" fill="#FDA57D" fill-rule="nonzero"></path>
                    <circle id="Oval" fill="#4D8AF0" fill-rule="nonzero" cx="236.22" cy="414.22" r="1"></circle>
                    <circle id="Oval" fill="#4D8AF0" fill-rule="nonzero" cx="236.22" cy="423.22" r="1"></circle>
                    <path d="M211.474551,466 L207,469.674463 C207,469.674463 207.744012,471.806123 208.257485,472.124105 C208.770958,472.442088 208.949102,473.796457 208.949102,473.796457 C208.949102,473.796457 210.898204,478.24821 212.333832,477.989114 C213.769461,477.730017 212.732036,475.928117 212.333832,473.984891 C211.935629,472.041665 214,468.82651 214,468.82651 L211.474551,466 Z" id="Shape" fill="#000000" fill-rule="nonzero"></path>
                    <path d="M242.792698,473.091363 L242,479.075636 C242.835973,479.455436 243.734357,479.676131 244.649878,479.726597 C245.261388,479.532451 246.325868,480.309036 246.325868,480.309036 C246.325868,480.309036 250.855574,481.759422 251.772839,480.4575 C252.690104,479.155578 250.640413,478.755866 248.998394,477.773714 C247.356376,476.791562 246.654272,473 246.654272,473 L242.792698,473.091363 Z" id="Shape" fill="#000000" fill-rule="nonzero"></path>
                    <path d="M229.350979,407.024226 C229.350979,407.024226 223.336135,405.723577 224.06055,422.182697 C224.06055,422.182697 225.498405,434.231435 228.022884,435 L231.809602,433.959481 L230.305891,422.691132 L231.809602,416.861861 C231.809602,416.861861 233.016961,408.029272 229.350979,407.024226 Z" id="Shape" fill="#000000" fill-rule="nonzero" opacity="0.1"></path>
                    <path d="M230.350979,407.024226 C230.350979,407.024226 224.336135,405.723577 225.06055,422.182697 C225.06055,422.182697 226.498405,434.231435 229.022884,435 L232.809602,433.959481 L231.305891,422.691132 L232.809602,416.861861 C232.809602,416.861861 234.016961,408.029272 230.350979,407.024226 Z" id="Shape" fill="#000000" fill-rule="nonzero" opacity="0.1"></path>
                    <path d="M229.350979,407.024226 C229.350979,407.024226 223.336135,405.723577 224.06055,422.182697 C224.06055,422.182697 225.498405,434.231435 228.022884,435 L231.809602,433.959481 L230.305891,422.691132 L231.809602,416.861861 C231.809602,416.861861 233.016961,408.029272 229.350979,407.024226 Z" id="Shape" fill="#3AD29F" fill-rule="nonzero"></path>
                    <polygon id="Shape" fill="#000000" fill-rule="nonzero" opacity="0.1" points="229 435 229 434.663462 231.873239 434 232 434.288462"></polygon>
                    <polygon id="Shape" fill="#000000" fill-rule="nonzero" opacity="0.1" points="229 404.060241 235.796928 410 236 409.86747 229.131399 404"></polygon>
                    <polygon id="Shape" fill="#3AD29F" fill-rule="nonzero" points="231 404.778723 234.745 404 238 408.761702 236.11 410"></polygon>
                    <path d="M238.692611,393.890927 L236.36187,396.532268 L236.36187,398.153091 C236.360436,399.211643 236.166319,400.259733 235.79039,401.238659 L234.221623,405.320732 C234.004703,405.8774 233.411074,406.144645 232.88817,405.921037 L231.565923,405.35675 C231.30785,405.245354 231.102758,405.02692 230.997248,404.75108 C230.891737,404.47524 230.894767,404.165417 231.005648,403.892006 L231.375429,402.991549 C231.390985,402.952567 231.377008,402.907276 231.34283,402.885914 C231.308652,402.864553 231.264976,402.87381 231.240964,402.907506 L230.490196,404.108116 C230.239982,404.492164 229.790913,404.66538 229.369648,404.540335 L228.641291,404.348238 C228.32349,404.260594 228.072317,403.999991 227.980344,403.662477 C227.888371,403.324962 227.969212,402.960495 228.193072,402.703402 C228.211575,402.671617 228.20821,402.630548 228.184821,402.602704 C228.161432,402.574859 228.123667,402.566962 228.092222,402.583341 L227.139756,403.423768 C226.796024,403.729931 226.307307,403.763871 225.929564,403.507811 L225.470139,403.195652 C225.218622,403.020955 225.050524,402.737617 225.009641,402.41946 C224.968758,402.101303 225.059138,401.779835 225.257235,401.538811 C225.90871,400.701515 226.766861,400.077444 227.733647,399.737896 C228.854195,399.401726 229.257593,397.336677 229.392059,395.523756 C229.556569,393.197966 230.96356,391.18482 233.000225,390.361134 C235.045905,389.499073 237.376925,390.218294 238.681405,392.114024 C239.101893,392.618931 239.106692,393.379978 238.692611,393.890927 Z" id="Shape" fill="#000000" fill-rule="nonzero"></path>
                    <polygon id="Shape" fill="#000000" fill-rule="nonzero" opacity="0.1" points="237.018018 433 237 433.27 238 433.14 237.945946 433"></polygon>
                    <path d="M236.474359,434 L237,434 C237,434 235.487179,446.746283 234.115385,447 L234,446.842937 C234,446.842937 236.333333,436.452602 236.474359,434 Z" id="Shape" fill="#000000" fill-rule="nonzero" opacity="0.1"></path>
                </g>
            </g>
        </g>
    </g>
</svg>