<?xml version="1.0" encoding="UTF-8"?>
<svg width="672px" height="221px" viewBox="0 0 672 221" version="1.1" xmlns="http://www.w3.org/2000/svg" xmlns:xlink="http://www.w3.org/1999/xlink">
    <!-- Generator: Sketch 50.2 (55047) - http://www.bohemiancoding.com/sketch -->
    <title>flower-group-2</title>
    <desc>Created with Sketch.</desc>
    <defs></defs>
    <g id="Website" stroke="none" stroke-width="1" fill="none" fill-rule="evenodd">
        <g id="Artboard-2" transform="translate(-2284.000000, -1662.000000)">
            <g id="flower-group-2" transform="translate(2284.000000, 1662.000000)">
                <g id="Group-6" transform="translate(0.000000, 3.459883)">
                    <path d="M25.8307408,31.1692172 C25.8307408,31.1692172 49.7912549,78.2711937 30.2661136,104.042994 C10.7409722,129.814795 32.0411264,200.024462 32.0411264,200.024462" id="Shape" stroke="#FC6681" stroke-width="0.8625"></path>
                    <path d="M33.1767609,16.4647162 C33.1767609,25.546908 26.5215424,32.8991585 26.5215424,32.8991585 C26.5215424,32.8991585 19.8663239,25.546908 19.8663239,16.4647162 C19.8663239,7.38252446 26.5215424,0.0302739726 26.5215424,0.0302739726 C26.5215424,0.0302739726 33.1767609,7.38684932 33.1767609,16.4647162 Z" id="Shape" fill="#FC6681" fill-rule="nonzero"></path>
                    <path d="M38.440251,31.1692172 C38.440251,31.1692172 14.4797369,78.2711937 34.0048783,104.042994 C53.5300197,129.814795 32.2298654,200.024462 32.2298654,200.024462" id="Shape" stroke="#FFD037" stroke-width="0.8625"></path>
                    <path d="M31.0951157,16.4647162 C31.0951157,25.546908 37.7503342,32.8991585 37.7503342,32.8991585 C37.7503342,32.8991585 44.4055527,25.546908 44.4055527,16.4647162 C44.4055527,7.38252446 37.7503342,0.0302739726 37.7503342,0.0302739726 C37.7503342,0.0302739726 31.0951157,7.38684932 31.0951157,16.4647162 Z" id="Shape" fill="#FFD037" fill-rule="nonzero"></path>
                    <path d="M47.8502143,31.1692172 C47.8502143,31.1692172 71.8107285,78.2711937 52.2899058,104.042994 C32.7690832,129.814795 54.0649187,200.024462 54.0649187,200.024462" id="Shape" stroke="#FC6681" stroke-width="0.8625"></path>
                    <path d="M55.2024679,16.4647162 C55.2024679,25.546908 48.5472494,32.8991585 48.5472494,32.8991585 C48.5472494,32.8991585 41.8920308,25.546908 41.8920308,16.4647162 C41.8920308,7.38252446 48.5472494,0.0302739726 48.5472494,0.0302739726 C48.5472494,0.0302739726 55.2024679,7.38684932 55.2024679,16.4647162 Z" id="Shape" fill="#FC6681" fill-rule="nonzero"></path>
                    <path d="M51.5919794,54.0909393 C45.303856,60.6344423 35.4138817,61.3177691 35.4138817,61.3177691 C35.4138817,61.3177691 35.7118766,51.3706067 42,44.848728 C48.2881234,38.3268493 58.1780977,37.6564971 58.1780977,37.6564971 C58.1780977,37.6564971 57.8801028,47.5647358 51.5919794,54.0909393 Z" id="Shape" fill="#FC6681" fill-rule="nonzero"></path>
                    <path d="M52.023856,86.5619374 C45.7357326,93.1054403 35.8457584,93.7887671 35.8457584,93.7887671 C35.8457584,93.7887671 36.1437532,83.8416047 42.4318766,77.319726 C48.72,70.7978474 58.6099743,70.0928963 58.6099743,70.0928963 C58.6099743,70.0928963 58.3076607,80.001135 52.023856,86.5619374 Z" id="Shape" fill="#FC6681" fill-rule="nonzero"></path>
                    <path d="M17.9496735,104.518728 C23.8922956,111.37362 23.6849948,121.303483 23.6849948,121.303483 C23.6849948,121.303483 13.8382082,120.114149 7.89558608,113.259256 C1.95296398,106.404364 2.16026475,96.474501 2.16026475,96.474501 C2.16026475,96.474501 12.0070514,97.6638356 17.9496735,104.518728 Z" id="Shape" fill="#FC6681" fill-rule="nonzero"></path>
                    <path d="M23.4077121,35.332888 C30.9655527,40.3497177 33.4142931,49.9725161 33.4142931,49.9725161 C33.4142931,49.9725161 23.6106941,51.4602657 16.0528535,46.4477608 C8.49501285,41.4352559 6.04627249,31.8081326 6.04627249,31.8081326 C6.04627249,31.8081326 15.8498715,30.3203831 23.4077121,35.332888 Z" id="Shape" fill="#FC6681" fill-rule="nonzero"></path>
                    <path d="M60.465958,31.1692172 C60.465958,31.1692172 36.5054438,78.2711937 56.0305852,104.042994 C75.5557266,129.814795 54.2555724,200.024462 54.2555724,200.024462" id="Shape" stroke="#FFD037" stroke-width="0.8625"></path>
                    <path d="M53.5526992,16.4647162 C53.5526992,25.546908 60.2079177,32.8991585 60.2079177,32.8991585 C60.2079177,32.8991585 66.8631362,25.546908 66.8631362,16.4647162 C66.8631362,7.38252446 60.2079177,0.0302739726 60.2079177,0.0302739726 C60.2079177,0.0302739726 53.5526992,7.38684932 53.5526992,16.4647162 Z" id="Shape" fill="#FFD037" fill-rule="nonzero"></path>
                    <path d="M55.1549614,54.6358708 C48.7891003,61.1231507 48.3701799,71.0227397 48.3701799,71.0227397 C48.3701799,71.0227397 58.2687918,70.456184 64.634653,63.9905284 C71.0005141,57.5248728 71.4194344,47.6036595 71.4194344,47.6036595 C71.4194344,47.6036595 61.5208226,48.1658904 55.1549614,54.6358708 Z" id="Shape" fill="#FFD037" fill-rule="nonzero"></path>
                    <path d="M67.679383,100.04683 C61.3135219,106.53411 60.8946015,116.433699 60.8946015,116.433699 C60.8946015,116.433699 70.7932134,115.867143 77.1590746,109.401487 C83.5249357,102.935832 83.943856,93.0146184 83.943856,93.0146184 C83.943856,93.0146184 74.0452442,93.5768493 67.679383,100.04683 Z" id="Shape" fill="#FFD037" fill-rule="nonzero"></path>
                    <path d="M49.2339332,89.8877495 C49.2339332,89.8877495 63.6586118,67.1217221 83.9006684,66.6330137" id="Shape" stroke="#FFD037" stroke-width="0.8625"></path>
                    <path d="M38.1217481,76.0482192 C38.1217481,76.0482192 23.6970694,53.2821918 3.45501285,52.7934834" id="Shape" stroke="#FC6681" stroke-width="0.8625"></path>
                    <path d="M36.277635,108.484618 C36.277635,108.484618 50.7023136,85.718591 70.9443702,85.2298826" id="Shape" stroke="#FFD037" stroke-width="0.8625"></path>
                    <ellipse id="Oval" fill="#FFD037" fill-rule="nonzero" cx="83.6415424" cy="66.4902935" rx="3.74437018" ry="3.74964775"></ellipse>
                    <ellipse id="Oval" fill="#FC6681" fill-rule="nonzero" cx="3.74437018" cy="53.0832485" rx="3.74437018" ry="3.74964775"></ellipse>
                    <path d="M46.7592802,116.269354 C46.7592802,116.269354 32.3346015,93.5033268 12.092545,93.0146184" id="Shape" stroke="#FC6681" stroke-width="0.8625"></path>
                    <ellipse id="Oval" fill="#FC6681" fill-rule="nonzero" cx="12.8137789" cy="92.8718982" rx="3.74437018" ry="3.74964775"></ellipse>
                    <ellipse id="Oval" fill="#FFD037" fill-rule="nonzero" cx="71.1171208" cy="85.5196477" rx="3.74437018" ry="3.74964775"></ellipse>
                </g>
                <g id="Group-5" transform="translate(30.231362, 122.393346)">
                    <path d="M23.7366455,97.4778669 C23.7366455,97.4778669 -39.8096784,83.2490998 41.0462599,0 C41.0462599,0 75.8987021,33.0808023 63.1151545,74.2015068 C57.9758229,90.7354207 41.4349489,100.942074 24.6781365,97.6724853 L23.7366455,97.4778669 Z" id="Shape" fill="#487BB3" fill-rule="nonzero"></path>
                    <path d="M23.5366475,97.4778669 C22.1416861,97.1664775 -38.6535839,81.8435225 40.8462619,0 C40.8462619,0 75.698704,33.0808023 62.9151565,74.2015068 C57.7758249,90.7354207 41.2349508,100.942074 24.4781385,97.6724853 L23.5366475,97.4778669 Z" id="Shape" fill="#FFFFFF" fill-rule="nonzero" opacity="0.4"></path>
                    <path d="M24.18509,97.9492759 C24.18509,97.9492759 57.7505398,47.3095695 40.6611825,0" id="Shape" stroke="#535461" stroke-width="0.575"></path>
                </g>
                <g id="red-flower" transform="translate(414.601542, 12.974560)">
                    <path d="M37.2958202,207.718376 C37.2958202,207.718376 21.5452804,154.163718 40.2498562,114.734031 C48.1013729,98.1914677 50.7099076,79.6205479 47.0821441,61.6680822 C45.3463176,53.1538271 42.8352594,44.8167133 39.5804475,36.7612524" id="Shape" stroke="#535461" stroke-width="0.8625"></path>
                    <path d="M51.3760411,11.8933464 C51.3760411,18.4584736 39.508072,37.4921526 39.508072,37.4921526 C39.508072,37.4921526 27.6401028,18.4627984 27.6401028,11.8933464 C27.6401028,5.32483255 32.9574408,0 39.5167095,0 C46.0759783,0 51.3933162,5.32483255 51.3933162,11.8933464 L51.3760411,11.8933464 Z" id="Shape" fill="#FC6681" fill-rule="nonzero"></path>
                    <path d="M70.9270951,48.3013118 C67.3641131,53.8111748 47.0745501,63.3301768 47.0745501,63.3301768 C47.0745501,63.3301768 47.4416452,40.8928382 51.0046272,35.3829752 C53.2852039,31.7645096 57.3321259,29.653043 61.6002545,29.8547459 C65.8683831,30.0564487 69.6987566,32.5401798 71.6289156,36.357636 C73.5590746,40.1750921 73.2910194,44.7368914 70.9270951,48.3013118 Z" id="Shape" fill="#FC6681" fill-rule="nonzero"></path>
                    <path d="M70.0590231,110.252144 C64.2070951,113.206019 41.8920308,111.164688 41.8920308,111.164688 C41.8920308,111.164688 53.5181491,91.9839643 59.3700771,89.0300896 C65.2130328,86.1343848 72.2945601,88.5005696 75.2304779,94.3296017 C78.1663958,100.158634 75.8573874,107.267907 70.0590231,110.252144 Z" id="Shape" fill="#FC6681" fill-rule="nonzero"></path>
                    <path d="M58.7006684,157.241883 C53.4317738,161.13425 31.0951157,162.90744 31.0951157,162.90744 C31.0951157,162.90744 39.3007712,142.035699 44.5869409,138.130356 C49.8570152,134.227465 57.28872,135.341807 61.1861183,140.619309 C65.0835165,145.896811 63.9707427,153.338991 58.7006684,157.241883 Z" id="Shape" fill="#FC6681" fill-rule="nonzero"></path>
                    <path d="M22.0564475,64.4116715 C26.7595838,68.9830413 48.6600465,73.7230805 48.6600465,73.7230805 C48.6600465,73.7230805 43.2961391,51.9344699 38.5930028,47.3631 C33.8756825,42.8958602 26.4493052,43.0537869 21.925615,47.7175426 C17.4019248,52.3812984 17.460219,59.8195905 22.0564475,64.4116715 Z" id="Shape" fill="#FC6681" fill-rule="nonzero"></path>
                    <path d="M9.8426061,119.308298 C15.6945341,122.262173 38.0095984,120.220842 38.0095984,120.220842 C38.0095984,120.220842 26.3834801,101.040118 20.5099583,98.0732688 C14.6759371,95.2359938 7.64789767,97.6141232 4.72810048,103.413492 C1.80830328,109.212861 4.07822217,116.285421 9.82533104,119.295324 L9.8426061,119.308298 Z" id="Shape" fill="#FC6681" fill-rule="nonzero"></path>
                    <path d="M4.96130021,174.653658 C10.2301948,178.546026 32.5668529,180.319216 32.5668529,180.319216 C32.5668529,180.319216 24.3611974,159.447474 19.0750277,155.542132 C15.6709671,152.936681 11.1288336,152.370856 7.19107609,154.061718 C3.2533186,155.752581 0.531347812,159.437592 0.0693636054,163.703112 C-0.392620601,167.968631 1.47711348,172.152358 4.96130021,174.649333 L4.96130021,174.653658 Z" id="Shape" fill="#FC6681" fill-rule="nonzero"></path>
                </g>
                <g id="leaf" transform="translate(302.313625, 92.551859)">
                    <path d="M4.33155423,18.1005492 C1.82368287,20.3335119 -0.680952528,23.8174521 0.529297651,28.6787641 C2.92067434,38.2458262 14.9714007,38.7902931 18.4015216,48.1823479 C19.4273218,50.9954271 19.327007,53.8927691 18.799545,56.3072207 C17.7672728,61.0291751 15.2917611,64.4094074 13.4310823,68.3729971 C11.5704036,72.3365868 10.308378,77.4766141 11.8745841,83.0736046 C13.3825429,88.4599383 17.2106872,92.9971629 21.074427,95.7292202 C24.9381669,98.4612775 28.9410532,99.76735 32.8954,101.5077 C37.7353148,103.669846 42.3378322,106.32976 46.6288272,109.444602 C48.5283375,110.80901 50.4375557,112.306294 52.0878969,114.348045 C53.9679914,116.674993 55.3950511,119.569094 56.7865152,122.40486 C57.4757754,123.811399 57.2913255,126.617997 58.8575316,126.617997 C98.8572708,126.48188 70.8305949,126.462435 90.4664186,126.55642 C93.9580227,126.572624 98.9543497,126.595311 106.109064,126.617997 C113.723285,126.643924 112.351237,112.88317 111.348088,103.931874 C109.924264,91.2535723 99.2844179,80.8049923 93.9839105,68.4572598 C90.1848898,59.609672 89.291764,50.0620552 86.1140483,40.990847 C81.5351606,27.9203995 72.4388685,16.8560533 62.9251371,10.2608734 C53.4114058,3.66569344 43.5093588,1.07947545 34.0862345,0.214161917 C30.099528,-0.155297796 26.0836978,-0.220115289 22.737712,1.47162129 C19.1781527,3.27030673 18.3562181,7.79780865 15.6185933,10.5882017 C12.4602934,13.8452808 7.73902332,15.0670905 4.33155423,18.1005492 Z" id="Shape" fill="#487BB3" fill-rule="nonzero"></path>
                    <path d="M4.43995899,18.1005492 C1.93208763,20.3335119 -0.572547766,23.8174521 0.637702413,28.6787641 C3.02907911,38.2458262 15.0798055,38.7902931 18.5099263,48.1823479 C19.5357266,50.9954271 19.4354118,53.8927691 18.9079498,56.3072207 C17.8756776,61.0291751 15.4001658,64.4094074 13.5394871,68.3729971 C11.6788083,72.3365868 10.4167827,77.4766141 11.9829889,83.0736046 C13.4909476,88.4599383 17.3190919,92.9971629 21.1828318,95.7292202 C25.0465717,98.4612775 29.049458,99.76735 33.0038048,101.5077 C37.8437196,103.669846 42.446237,106.32976 46.737232,109.444602 C48.6367423,110.80901 50.5459605,112.306294 52.1963016,114.348045 C54.0763962,116.674993 55.5034559,119.569094 56.89492,122.40486 C57.5841801,123.811399 57.3997302,126.617997 58.9659363,126.617997 C98.9656756,126.48188 70.9389996,126.462435 90.5748234,126.55642 C94.0664275,126.572624 99.0627545,126.595311 106.217469,126.617997 C113.83169,126.643924 112.459641,112.88317 111.456493,103.931874 C110.032669,91.2535723 99.3928227,80.8049923 94.0923152,68.4572598 C90.2932946,59.609672 89.4001688,50.0620552 86.2224531,40.990847 C81.6435654,27.9203995 72.5472732,16.8560533 63.0335419,10.2608734 C53.5198105,3.66569344 43.6177636,1.07947545 34.1946392,0.214161917 C30.2079327,-0.155297796 26.1921026,-0.220115289 22.8461168,1.47162129 C19.2865575,3.27030673 18.4646228,7.79780865 15.7269981,10.5882017 C12.5686982,13.8452808 7.84742808,15.0670905 4.43995899,18.1005492 Z" id="Shape" fill="#FFFFFF" fill-rule="nonzero" opacity="0.2"></path>
                    <path d="M20.0629709,3.8890496 C20.0629709,3.8890496 62.6676604,65.6990113 90.4257514,126.663105" id="Shape" stroke="#535461" stroke-width="0.646875"></path>
                    <path d="M0.647192609,29.167872 C0.647192609,29.167872 38.6729944,29.6248354 56.483735,61.9007062" id="Shape" stroke="#535461" stroke-width="0.646875"></path>
                    <path d="M12.9438522,85.7427543 C12.9438522,85.7427543 60.0918338,66.7253017 69.796487,85.2177326" id="Shape" stroke="#535461" stroke-width="0.646875"></path>
                    <path d="M62.8593804,10.0467115 C62.8593804,10.0467115 53.1514913,29.8841053 59.3386526,66.7101642" id="Shape" stroke="#535461" stroke-width="0.646875"></path>
                    <path d="M111.258881,104.258938 C111.258881,104.258938 104.139763,117.112247 78.3103057,101.439377" id="Shape" stroke="#535461" stroke-width="0.646875"></path>
                </g>
                <g id="Group-7" transform="translate(491.475578, 0.000000)">
                    <path d="M55.586838,60.6603914 C49.2209769,67.1476712 48.8020566,77.0472603 48.8020566,77.0472603 C48.8020566,77.0472603 58.7006684,76.4807045 65.0665296,70.0150489 C71.4323907,63.5493933 71.8513111,53.62818 71.8513111,53.62818 C71.8513111,53.62818 61.9526992,54.190411 55.586838,60.6603914 Z" id="Shape" fill="#487BB3" fill-rule="nonzero"></path>
                    <path d="M105.049666,16.0019569 C105.049666,16.0019569 95.1165039,96.8767123 105.049666,146.612524 C114.982828,196.348337 54.848329,217.75636 54.848329,217.75636 L143.054807,217.75636 C143.054807,217.75636 155.147352,56.6555773 105.049666,16.0019569 Z" id="Shape" fill="#487BB3" fill-rule="nonzero"></path>
                    <path d="M104.946015,16.0019569 C104.946015,16.0019569 130.05964,85.6623679 126.354139,121.09589 C122.648638,156.529413 117.470437,218.405088 117.470437,218.405088" id="Shape" stroke="#535461" stroke-width="0.8625"></path>
                    <path d="M92.5943445,0 C92.5943445,0 60.1560925,32.4839726 78.4676607,80.6844618 C96.7792288,128.884951 47.0745501,209.050431 47.0745501,209.050431 C47.0745501,209.050431 47.6057584,208.972583 48.5947558,208.799589 C115.216041,197.023014 148.323702,120.715303 111.273008,64.0294521 C97.5047815,42.9544423 86.1982519,18.2292564 92.5943445,0 Z" id="Shape" fill="#487BB3" fill-rule="nonzero"></path>
                    <path d="M92.5943445,0 C92.5943445,0 60.1560925,32.4839726 78.4676607,80.6844618 C96.7792288,128.884951 47.0745501,209.050431 47.0745501,209.050431 C47.0745501,209.050431 47.6057584,208.972583 48.5947558,208.799589 C115.216041,197.023014 148.323702,120.715303 111.273008,64.0294521 C97.5047815,42.9544423 86.1982519,18.2292564 92.5943445,0 Z" id="Shape" fill="#000000" fill-rule="nonzero" opacity="0.1"></path>
                    <path d="M92.5943445,0 C92.5943445,0 74.2827763,39.8189237 92.5943445,72.3028963 C110.905913,104.786869 95.7340874,195.95045 47.0745501,209.050431" id="Shape" stroke="#535461" stroke-width="0.575"></path>
                    <path d="M150.003702,131.448977 C150.003702,131.448977 112.987558,125.545552 109.614602,158.76475 C106.241645,191.983947 38.437018,196.589916 38.437018,196.589916 C38.437018,196.589916 38.8688946,196.892656 39.7067352,197.454887 C95.6908997,234.259388 149.209049,220.899916 141.141594,172.029074 C138.14437,153.843067 138.39054,135.596511 150.003702,131.448977 Z" id="Shape" fill="#487BB3" fill-rule="nonzero"></path>
                    <path d="M150.003702,131.448977 C150.003702,131.448977 112.987558,125.545552 109.614602,158.76475 C106.241645,191.983947 38.437018,196.589916 38.437018,196.589916 C38.437018,196.589916 38.8688946,196.892656 39.7067352,197.454887 C95.6908997,234.259388 149.209049,220.899916 141.141594,172.029074 C138.14437,153.843067 138.39054,135.596511 150.003702,131.448977 Z" id="Shape" fill="#F5F5F5" fill-rule="nonzero" opacity="0.2"></path>
                    <path d="M150.008021,131.475538 C150.008021,131.475538 121.27527,137.789824 123.633316,163.950861 C125.991362,190.111898 80.9682262,221.471409 38.437018,196.616477" id="Shape" stroke="#535461" stroke-width="0.575"></path>
                    <path d="M137.751362,22.7054795 C137.751362,29.2706067 125.883393,48.3042857 125.883393,48.3042857 C125.883393,48.3042857 114.015424,29.2749315 114.015424,22.7054795 C114.015424,16.1369656 119.332762,10.8121331 125.892031,10.8121331 C132.4513,10.8121331 137.768638,16.1369656 137.768638,22.7054795 L137.751362,22.7054795 Z" id="Shape" fill="#487BB3" fill-rule="nonzero"></path>
                    <path d="M157.302416,59.1134449 C153.739434,64.6233079 133.449871,74.1423099 133.449871,74.1423099 C133.449871,74.1423099 133.816967,51.7049713 137.379949,46.1951083 C139.660525,42.5766427 143.707447,40.4651761 147.975576,40.6668789 C152.243704,40.8685818 156.074078,43.3523129 158.004237,47.1697691 C159.934396,50.9872252 159.666341,55.5490245 157.302416,59.1134449 Z" id="Shape" fill="#487BB3" fill-rule="nonzero"></path>
                    <path d="M156.434344,121.064277 C150.582416,124.018152 128.267352,121.976821 128.267352,121.976821 C128.267352,121.976821 139.89347,102.796097 145.745398,99.8422227 C151.588354,96.9465179 158.669881,99.3127027 161.605799,105.141735 C164.541717,110.970767 162.232709,118.08004 156.434344,121.064277 Z" id="Shape" fill="#487BB3" fill-rule="nonzero"></path>
                    <path d="M145.507866,168.054016 C140.238972,171.946384 117.902314,173.719573 117.902314,173.719573 C117.902314,173.719573 126.107969,152.847832 131.394139,148.942489 C136.664213,145.039598 144.095918,146.15394 147.993316,151.431442 C151.890714,156.708945 150.777941,164.151124 145.507866,168.054016 Z" id="Shape" fill="#487BB3" fill-rule="nonzero"></path>
                    <path d="M108.431769,75.2238045 C113.134905,79.7951744 135.035368,84.5352135 135.035368,84.5352135 C135.035368,84.5352135 129.67146,62.746603 124.968324,58.1752331 C120.251004,53.7079933 112.824626,53.8659199 108.300936,58.5296757 C103.777246,63.1934314 103.83554,70.6317236 108.431769,75.2238045 Z" id="Shape" fill="#487BB3" fill-rule="nonzero"></path>
                    <path d="M96.2179274,130.120431 C102.069855,133.074306 124.38492,131.032975 124.38492,131.032975 C124.38492,131.032975 112.758801,111.852251 106.88528,108.885402 C101.051258,106.048127 94.023219,108.426256 91.1034218,114.225625 C88.1836246,120.024994 90.4535435,127.097554 96.2006524,130.107457 L96.2179274,130.120431 Z" id="Shape" fill="#487BB3" fill-rule="nonzero"></path>
                    <path d="M91.3366215,185.465791 C96.6055161,189.358159 118.942174,191.131349 118.942174,191.131349 C118.942174,191.131349 110.736519,170.259607 105.450349,166.354265 C102.046288,163.748814 97.5041549,163.182989 93.5663974,164.873852 C89.6286399,166.564714 86.9066691,170.249725 86.4446849,174.515245 C85.9827007,178.780764 87.8524348,182.964491 91.3366215,185.461467 L91.3366215,185.465791 Z" id="Shape" fill="#487BB3" fill-rule="nonzero"></path>
                    <path d="M123.38036,209.157968 C125.850694,206.857146 128.169872,204.145463 128.882468,200.841275 C129.595064,197.537087 128.187147,193.575521 125.038766,192.368887 C121.506015,191.015208 117.731414,193.4674 114.872391,195.941216 C112.013368,198.415032 108.731105,201.243486 104.986735,200.698555 C108.904749,197.142766 110.672105,191.788898 109.642365,186.595208 C109.477432,185.540952 109.02961,184.551365 108.346735,183.732156 C106.386015,181.634602 102.831671,182.534171 100.486581,184.186265 C93.0194345,189.445287 90.9377892,199.600042 90.8989203,208.738457 C90.1474551,205.442919 90.7823137,202.00466 90.7607198,198.622625 C90.739126,195.24059 89.8235476,191.499592 86.9645245,189.696128 C85.2715682,188.61924 83.1856042,188.398672 81.1816967,188.333799 C77.8260155,188.208379 74.0902828,188.545717 71.797018,191.006559 C68.9509512,194.059905 69.6894602,199.184856 72.1641132,202.545267 C74.6387661,205.905678 78.4090489,208.011882 81.877018,210.330003 C84.5201029,212.098868 87.1934191,214.166148 88.8172751,216.960003 C89.0270753,217.337125 89.1992197,217.734049 89.3312083,218.145013 L110.367918,218.145013 C115.090666,215.751357 119.467929,212.7282 123.38036,209.157968 Z" id="Shape" fill="#487BB3" fill-rule="nonzero"></path>
                    <path d="M44.8470428,212.401594 C46.7213873,210.978717 48.4834439,209.296349 49.0232896,207.250694 C49.6022723,205.002243 48.3178947,202.694335 46.1038038,202.004647 C43.42185,201.165625 40.5585081,202.683649 38.3904876,204.218972 C36.222467,205.754295 33.730539,207.501535 30.8887909,207.177171 C33.8341894,205.049344 35.2334696,201.589461 34.4215416,198.445293 C34.2834585,197.767764 33.9413031,197.148903 33.4411817,196.672103 C31.9555261,195.374647 29.2562973,195.932553 27.4769657,196.953218 C21.8107446,200.209833 20.2300763,206.493845 20.1998449,212.155077 C19.6297678,210.113747 20.1091508,207.985919 20.0961945,205.89269 C20.0832382,203.799461 19.3792793,201.477015 17.2198963,200.352553 C15.9242665,199.686526 14.3522356,199.55678 12.83203,199.509207 C10.283958,199.431359 7.45084747,199.643277 5.71038474,201.161301 C3.55100171,203.051261 4.10812253,206.225704 5.99110454,208.305958 C7.87408654,210.386213 10.7417472,211.692318 13.3632382,213.128169 C15.3671457,214.222357 17.3969657,215.502514 18.6321328,217.232455 C18.7887122,217.462222 18.9190886,217.708836 19.0208218,217.96768 L35.0002562,217.96768 C38.4990739,216.525852 41.80643,214.656305 44.8470428,212.401594 Z" id="Shape" fill="#487BB3" fill-rule="nonzero"></path>
                    <path d="M76.8109034,139.692759 C76.8109034,139.692759 86.3596952,152.200235 72.3971245,171.078219 C58.4345538,189.956204 46.9164047,205.897613 51.5849908,217.665538 C51.5849908,217.665538 72.6432941,182.599628 89.7844767,182.11092 C106.925659,181.622211 95.6623173,160.780744 76.8109034,139.692759 Z" id="Shape" fill="#487BB3" fill-rule="nonzero"></path>
                    <path d="M76.688329,139.692759 C77.5214183,140.90103 78.1786921,142.221799 78.6404113,143.615401 C95.3626735,163.293483 104.272288,181.67411 88.1978406,182.106595 C73.2246787,182.53908 55.2629306,209.35317 50.9614396,216.121566 C51.1025537,216.643883 51.2726902,217.157899 51.471054,217.661213 C51.471054,217.661213 72.5293573,182.595303 89.6705398,182.106595 C106.811722,181.617886 95.5397429,160.780744 76.688329,139.692759 Z" id="Shape" fill="#000000" fill-rule="nonzero" opacity="0.1"></path>
                    <path d="M94.6241645,155.485342 C94.6241645,159.888043 94.1318252,163.456047 93.5228792,163.456047 C92.9139332,163.456047 92.4215938,159.888043 92.4215938,155.485342 C92.4215938,151.082641 93.0391774,153.154246 93.6438046,153.154246 C94.2484319,153.154246 94.6241645,151.082641 94.6241645,155.485342 Z" id="Shape" fill="#FFD037" fill-rule="nonzero"></path>
                    <path d="M100.388144,160.874323 C96.5271667,162.980526 93.162848,164.256358 92.8734906,163.720076 C92.5841333,163.183794 95.4647503,161.042992 99.3516397,158.936788 C103.238529,156.830585 101.688092,158.361583 101.981768,158.897865 C102.275444,159.434146 104.244802,158.768119 100.388144,160.874323 Z" id="Shape" fill="#FFD037" fill-rule="nonzero"></path>
                    <path d="M26.1807358,139.692759 C26.1807358,139.692759 16.631944,152.200235 30.590196,171.078219 C44.5484479,189.956204 56.0709157,205.897613 51.4023296,217.665538 C51.4023296,217.665538 30.3440263,182.599628 13.2028438,182.11092 C-3.93833875,181.622211 7.32932192,160.780744 26.1807358,139.692759 Z" id="Shape" fill="#487BB3" fill-rule="nonzero"></path>
                    <path d="M26.1838648,139.692759 C25.3507756,140.90103 24.6935017,142.221799 24.2317825,143.615401 C7.50952034,163.293483 -1.40009406,181.67411 14.6743532,182.106595 C29.6475152,182.53908 47.6092633,209.35317 51.9107543,216.121566 C51.7696401,216.643883 51.5995037,217.157899 51.4011399,217.661213 C51.4011399,217.661213 30.3428365,182.595303 13.201654,182.106595 C-3.93952851,181.617886 7.33245093,160.780744 26.1838648,139.692759 Z" id="Shape" fill="#000000" fill-rule="nonzero" opacity="0.1"></path>
                    <path d="M8.63753213,155.485342 C8.63753213,159.888043 9.12987147,163.456047 9.73881748,163.456047 C10.3477635,163.456047 10.8401028,159.888043 10.8401028,155.485342 C10.8401028,151.082641 10.2225193,153.154246 9.61789203,153.154246 C9.01326478,153.154246 8.63753213,151.082641 8.63753213,155.485342 Z" id="Shape" fill="#FFD037" fill-rule="nonzero"></path>
                    <path d="M2.35629457,160.874323 C6.21727143,162.980526 9.5815902,164.256358 9.87094752,163.720076 C10.1603048,163.183794 7.27968788,161.042992 3.39279842,158.936788 C-0.494091037,156.830585 1.05634598,158.361583 0.762669888,158.897865 C0.468993796,159.434146 -1.50036353,158.768119 2.35629457,160.874323 Z" id="Shape" fill="#FFD037" fill-rule="nonzero"></path>
                </g>
                <path d="M245.305913,184.855344 L248.804113,193.137438 L264.546015,191.407497 C264.061685,189.157613 263.792704,186.866604 263.742725,184.565579 C263.425235,183.932641 262.818338,183.495533 262.118122,183.395484 C261.417907,183.295435 260.713153,183.545132 260.231568,184.063896 C259.41964,184.928867 258.594756,185.854386 257.990129,186.61556 C256.241028,188.777986 250.557532,187.48053 250.557532,187.48053 C249.084833,187.969239 247.335733,185.850061 246.08329,183.895227 C245.855921,184.239792 245.595565,184.561351 245.305913,184.855344 Z" id="Shape" fill="#000000" fill-rule="nonzero" opacity="0.1"></path>
                <path d="M259.890386,185.19454 C260.424293,184.621027 261.226382,184.381862 261.986607,184.569493 C262.746833,184.757124 263.346075,185.342151 263.552699,186.098434 C264.347352,189.199354 266.092134,193.199843 269.896967,194.717867 C276.457172,197.312779 285.638869,201.68953 282.581183,205.612172 C279.523496,209.534814 269.020257,213.029295 259.834242,209.971624 C250.648226,206.913953 237.532134,199.509804 237.532134,199.509804 L244.092339,182.076321 C244.092339,182.076321 247.59054,189.484795 250.21635,188.615499 C250.21635,188.615499 255.899846,189.912955 257.648946,187.750528 C258.257892,186.985029 259.078458,186.06816 259.890386,185.19454 Z" id="Shape" fill="#DCE6F2" fill-rule="nonzero"></path>
                <path d="M100.003407,217.182515 C100.003407,217.182515 85.7514786,191.665881 103.458419,171.339071 C121.16536,151.012261 141.895437,162.256879 141.895437,162.256879 C141.895437,162.256879 167.808034,174.366468 161.761761,203.342985 C161.761761,203.342985 158.306749,218.047486 147.94171,217.182515 L100.003407,217.182515 Z" id="Shape" fill="#487BB3" fill-rule="nonzero"></path>
                <path d="M100.003407,217.182515 C100.003407,217.182515 85.7514786,191.665881 103.458419,171.339071 C121.16536,151.012261 141.895437,162.256879 141.895437,162.256879 C141.895437,162.256879 167.808034,174.366468 161.761761,203.342985 C161.761761,203.342985 158.306749,218.047486 147.94171,217.182515 L100.003407,217.182515 Z" id="Shape" fill="#FFFFFF" fill-rule="nonzero" opacity="0.2"></path>
                <path d="M122.652956,217.142231 L138.273933,169.534247" id="Shape" stroke="#535461" stroke-width="0.575"></path>
                <path d="M152.452442,176.886497 C152.452442,176.886497 144.4109,173.097926 136.339126,175.208454 C136.339126,175.208454 132.154242,164.776908 122.652956,163.046967" id="Shape" stroke="#535461" stroke-width="0.575"></path>
                <path d="M156.339332,193.360988 C156.339332,193.360988 142.666118,183.465724 132.659537,186.467172 C132.659537,186.467172 121.357326,173.034178 113.583548,173.899149" id="Shape" stroke="#535461" stroke-width="0.575"></path>
                <path d="M153.316195,211.044188 C153.316195,211.044188 141.629614,202.576125 127.174704,203.142681 C127.174704,203.142681 116.174807,189.861057 105.809769,188.996086" id="Shape" stroke="#535461" stroke-width="0.575"></path>
                <path d="M128.932442,217.405097 C127.140044,216.558489 125.269909,215.887884 123.348278,215.40269 C123.348278,215.40269 114.339332,203.673688 96.3084833,207.492534" id="Shape" stroke="#535461" stroke-width="0.575"></path>
                <path d="M236.612237,216.727045 C236.612237,216.727045 212.859023,177.941761 219.198972,142.949374 C221.86365,128.244873 219.972031,113.107886 213.308175,99.7397652 C210.135023,93.4100949 206.389391,87.3848949 202.118252,81.739726" id="Shape" stroke="#535461" stroke-width="0.8625"></path>
                <path d="M206.050741,59.6888308 C207.445702,64.8527056 202.163851,82.3553866 202.163851,82.3553866 C202.163851,82.3553866 188.775677,69.908459 187.393671,64.7445842 C186.407258,61.3759017 187.317865,57.7364152 189.773872,55.2314622 C192.229879,52.7265092 195.846949,51.7480884 199.228399,52.6740034 C202.609849,53.5999185 205.226518,56.2852735 206.068016,59.6931557 L206.050741,59.6888308 Z" id="Shape" fill="#487BB3" fill-rule="nonzero"></path>
                <path d="M229.10182,84.2833719 C227.469327,89.378049 213.524031,101.184898 213.524031,101.184898 C213.524031,101.184898 209.04979,83.453 210.682283,78.3626478 C212.38198,73.3592623 217.772493,70.6433232 222.79751,72.2585504 C227.822527,73.8737776 230.627548,79.2240664 229.10182,84.2833719 Z" id="Shape" fill="#487BB3" fill-rule="nonzero"></path>
                <path d="M241.790437,133.367833 C237.812853,136.940162 219.825193,140.08433 219.825193,140.08433 C219.825193,140.08433 224.899743,122.516777 228.894602,118.944448 C231.455006,116.55119 235.107204,115.730721 238.443139,116.799361 C241.779073,117.868002 244.277675,120.658832 244.97564,124.095882 C245.673604,127.532932 244.461911,131.07934 241.807712,133.367833 L241.790437,133.367833 Z" id="Shape" fill="#487BB3" fill-rule="nonzero"></path>
                <path d="M242.93491,172.592187 C239.618098,176.78297 222.416452,182.928587 222.416452,182.928587 C222.416452,182.928587 224.45491,164.764203 227.771722,160.560446 C231.1142,156.452855 237.13196,155.796493 241.279104,159.087184 C245.426248,162.377876 246.163937,168.394576 242.93491,172.592187 Z" id="Shape" fill="#487BB3" fill-rule="nonzero"></path>
                <path d="M194.286295,107.319838 C198.954881,109.91475 217.175756,108.980581 217.175756,108.980581 C217.175756,108.980581 208.330923,92.9786244 203.662337,90.3837125 C200.636337,88.6393338 196.906485,88.6631859 193.902979,90.4461227 C190.899474,92.2290595 189.088414,95.4943956 189.164245,98.9900488 C189.240076,102.485702 191.19103,105.669199 194.26902,107.319838 L194.286295,107.319838 Z" id="Shape" fill="#487BB3" fill-rule="nonzero"></path>
                <path d="M196.189286,153.193622 C201.419311,154.274835 218.543219,147.917301 218.543219,147.917301 C218.543219,147.917301 205.336432,135.301704 200.09345,134.220491 C194.932722,133.304925 189.982486,136.67133 188.929205,141.812728 C187.875923,146.954127 191.102709,152.000424 196.206561,153.193622 L196.189286,153.193622 Z" id="Shape" fill="#487BB3" fill-rule="nonzero"></path>
                <path d="M204.185244,197.680749 C209.160463,199.631258 227.109254,196.262198 227.109254,196.262198 C227.109254,196.262198 216.208689,181.592295 211.23347,179.641787 C206.294246,177.831045 200.815331,180.303967 198.898796,185.209074 C196.982261,190.114181 199.330438,195.65395 204.185244,197.680749 Z" id="Shape" fill="#487BB3" fill-rule="nonzero"></path>
                <path d="M206.050741,59.6888308 C207.445702,64.8527056 202.163851,82.3553866 202.163851,82.3553866 C202.163851,82.3553866 188.775677,69.908459 187.393671,64.7445842 C186.407258,61.3759017 187.317865,57.7364152 189.773872,55.2314622 C192.229879,52.7265092 195.846949,51.7480884 199.228399,52.6740034 C202.609849,53.5999185 205.226518,56.2852735 206.068016,59.6931557 L206.050741,59.6888308 Z" id="Shape" fill="#FC6681" fill-rule="nonzero"></path>
                <path d="M229.10182,84.2833719 C227.469327,89.378049 213.524031,101.184898 213.524031,101.184898 C213.524031,101.184898 209.04979,83.453 210.682283,78.3626478 C212.38198,73.3592623 217.772493,70.6433232 222.79751,72.2585504 C227.822527,73.8737776 230.627548,79.2240664 229.10182,84.2833719 Z" id="Shape" fill="#FC6681" fill-rule="nonzero"></path>
                <path d="M241.790437,133.367833 C237.812853,136.940162 219.825193,140.08433 219.825193,140.08433 C219.825193,140.08433 224.899743,122.516777 228.894602,118.944448 C231.455006,116.55119 235.107204,115.730721 238.443139,116.799361 C241.779073,117.868002 244.277675,120.658832 244.97564,124.095882 C245.673604,127.532932 244.461911,131.07934 241.807712,133.367833 L241.790437,133.367833 Z" id="Shape" fill="#FC6681" fill-rule="nonzero"></path>
                <path d="M242.93491,172.592187 C239.618098,176.78297 222.416452,182.928587 222.416452,182.928587 C222.416452,182.928587 224.45491,164.764203 227.771722,160.560446 C231.1142,156.452855 237.13196,155.796493 241.279104,159.087184 C245.426248,162.377876 246.163937,168.394576 242.93491,172.592187 Z" id="Shape" fill="#FC6681" fill-rule="nonzero"></path>
                <path d="M194.286295,107.319838 C198.954881,109.91475 217.175756,108.980581 217.175756,108.980581 C217.175756,108.980581 208.330923,92.9786244 203.662337,90.3837125 C200.636337,88.6393338 196.906485,88.6631859 193.902979,90.4461227 C190.899474,92.2290595 189.088414,95.4943956 189.164245,98.9900488 C189.240076,102.485702 191.19103,105.669199 194.26902,107.319838 L194.286295,107.319838 Z" id="Shape" fill="#FC6681" fill-rule="nonzero"></path>
                <path d="M196.189286,153.193622 C201.419311,154.274835 218.543219,147.917301 218.543219,147.917301 C218.543219,147.917301 205.336432,135.301704 200.09345,134.220491 C194.932722,133.304925 189.982486,136.67133 188.929205,141.812728 C187.875923,146.954127 191.102709,152.000424 196.206561,153.193622 L196.189286,153.193622 Z" id="Shape" fill="#FC6681" fill-rule="nonzero"></path>
                <path d="M204.185244,197.680749 C209.160463,199.631258 227.109254,196.262198 227.109254,196.262198 C227.109254,196.262198 216.208689,181.592295 211.23347,179.641787 C206.294246,177.831045 200.815331,180.303967 198.898796,185.209074 C196.982261,190.114181 199.330438,195.65395 204.185244,197.680749 Z" id="Shape" fill="#FC6681" fill-rule="nonzero"></path>
                <path d="M112.287918,217.142231 C112.287918,217.142231 144.454087,166.506849 148.340977,144.882583 C152.227866,123.258317 159.569769,103.363992 159.569769,103.363992" id="Shape" stroke="#535461" stroke-width="0.8625"></path>
                <path d="M167.136247,146.612524 L146.838046,148.342466 C146.838046,148.342466 157.634961,166.939335 167.136247,146.612524 Z" id="Shape" fill="#487BB3" fill-rule="nonzero"></path>
                <path d="M131.563289,135.367906 L147.637736,148.260294 C147.637736,148.260294 126.812646,156.559687 131.563289,135.367906 Z" id="Shape" fill="#487BB3" fill-rule="nonzero"></path>
                <path d="M169.451105,128.880626 L151.156812,131.328493 C151.156812,131.328493 167.291722,144.450098 169.451105,128.880626 Z" id="Shape" fill="#487BB3" fill-rule="nonzero"></path>
                <path d="M139.371387,122.393346 L151.438019,130.874384 C151.438019,130.874384 136.780127,137.097847 139.371387,122.393346 Z" id="Shape" fill="#487BB3" fill-rule="nonzero"></path>
                <path d="M155.907455,114.813944 C155.907455,114.813944 170.889254,110.839404 173.048638,111.704375 C175.208021,112.569345 173.912391,122.084022 167.866118,122.516508 C161.819846,122.948993 155.907455,114.813944 155.907455,114.813944 Z" id="Shape" fill="#487BB3" fill-rule="nonzero"></path>
                <path d="M145.731362,103.363992 C145.731362,103.363992 155.232648,112.446184 155.664524,114.608611 C156.096401,116.771037 147.890746,121.960861 143.571979,114.608611 C139.253213,107.25636 145.731362,103.363992 145.731362,103.363992 Z" id="Shape" fill="#487BB3" fill-rule="nonzero"></path>
                <ellipse id="Oval" fill="#FFD037" fill-rule="nonzero" cx="163.681234" cy="104.228963" rx="4.31876607" ry="4.32485323"></ellipse>
                <ellipse id="Oval" fill="#FFD037" fill-rule="nonzero" cx="155.907455" cy="102.066536" rx="4.31876607" ry="4.32485323"></ellipse>
                <g id="Group-4" transform="translate(267.331620, 135.800391)">
                    <path d="M0,80.8637016 L0,0.85391682 C0,0.85391682 38.8688946,-9.09324561 46.2107969,38.9126252 C53.5526992,86.9184961 0,80.8637016 0,80.8637016 Z" id="Shape" fill="#487BB3" fill-rule="nonzero"></path>
                    <path d="M38.0051414,25.9491194 C38.0051414,25.9491194 29.8297172,18.5968689 21.5938303,20.3268102 C21.5938303,20.3268102 16.4113111,8.64970646 12.092545,7.35225049" id="Shape" stroke="#535461" stroke-width="0.575"></path>
                    <path d="M34.7703856,40.4373777 C34.7703856,40.4373777 29.1559897,32.0731115 14.4721851,31.7141487 C14.4721851,31.7141487 5.83465296,15.7857143 0,14.704501" id="Shape" stroke="#535461" stroke-width="0.575"></path>
                    <path d="M34.7660668,59.7175734 C34.7660668,59.7175734 22.6216967,43.2139335 7.74786632,42.3835616 C7.74786632,42.3835616 3.23907455,36.2898434 0,35.8962818" id="Shape" stroke="#535461" stroke-width="0.575"></path>
                    <path d="M22.0473008,78.8680235 C22.0473008,78.8680235 16.6272494,60.4009002 0,54.8521135 L23.5372751,16.8669276" id="Shape" stroke="#535461" stroke-width="0.575"></path>
                </g>
                <path d="M254.35344,217.107632 C254.35344,217.107632 268.605368,193.753425 233.191486,159.154599 C197.777604,124.555773 199.936987,118.068493 202.960124,112.878669 C202.960124,112.878669 174.456268,116.338552 180.50254,159.154599 C186.548813,201.970646 212.461409,217.107632 212.461409,217.107632 L254.35344,217.107632 Z" id="Shape" fill="#487BB3" fill-rule="nonzero"></path>
                <path d="M234.088769,217.107632 C234.088769,217.107632 223.507792,186.401174 207.528358,167.804305 C191.548923,149.207436 194.572059,118.500978 202.777715,112.878669" id="Shape" stroke="#535461" stroke-width="0.8625"></path>
                <g id="Group-2" transform="translate(491.475578, 44.978474)">
                    <path d="M49.6096658,164.396321 C49.6096658,164.396321 25.8564524,125.611037 32.196401,90.6186497 C34.8610797,75.9141487 32.9694602,60.7771624 26.3056041,47.4090411 C23.1324523,41.0793709 19.3868203,35.0541708 15.1156812,29.409002" id="Shape" stroke="#535461" stroke-width="0.8625"></path>
                    <path d="M19.0481702,7.35810673 C20.4431316,12.5219815 15.1612807,30.0246625 15.1612807,30.0246625 C15.1612807,30.0246625 1.77310589,17.5777349 0.391100747,12.4138602 C-0.595312267,9.04517765 0.315293912,5.40569113 2.77130126,2.90073815 C5.22730861,0.395785164 8.84437799,-0.582635664 12.2258279,0.343279376 C15.6072778,1.26919442 18.2239472,3.95454942 19.0654452,7.36243159 L19.0481702,7.35810673 Z" id="Shape" fill="#FC6681" fill-rule="nonzero"></path>
                    <path d="M42.0992497,31.9526478 C40.4667561,37.0473249 26.5214605,48.8541742 26.5214605,48.8541742 C26.5214605,48.8541742 22.0472188,31.122276 23.6797124,26.0319237 C25.3794089,21.0285383 30.7699224,18.3125991 35.7949392,19.9278263 C40.8199561,21.5430535 43.6249775,26.8933423 42.0992497,31.9526478 Z" id="Shape" fill="#FC6681" fill-rule="nonzero"></path>
                    <path d="M7.28372469,54.9891137 C11.9523108,57.5840256 30.1731848,56.6498573 30.1731848,56.6498573 C30.1731848,56.6498573 21.3283519,40.6479004 16.6597658,38.0529884 C13.6337666,36.3086098 9.90391455,36.3324618 6.90040878,38.1153986 C3.89690301,39.8983354 2.08584328,43.1636715 2.16167434,46.6593248 C2.23750541,50.154978 4.18845942,53.3384747 7.26644962,54.9891137 L7.28372469,54.9891137 Z" id="Shape" fill="#FC6681" fill-rule="nonzero"></path>
                    <path d="M15.8541902,72.7699804 C9.48832905,79.2572603 9.06940874,89.1568493 9.06940874,89.1568493 C9.06940874,89.1568493 18.9680206,88.5902935 25.3338817,82.124638 C31.6997429,75.6589824 32.1186632,65.7377691 32.1186632,65.7377691 C32.1186632,65.7377691 22.2200514,66.3 15.8541902,72.7699804 Z" id="Shape" fill="#FC6681" fill-rule="nonzero"></path>
                </g>
                <path d="M283.761265,217.107632 C283.761265,217.107632 302.331959,203.268102 279.010622,154.829746 C279.010622,154.829746 247.915506,116.338552 279.010622,80.0097847 C279.010622,80.0097847 211.205995,81.739726 212.501625,144.882583 C213.797255,208.02544 246.403938,217.107632 246.403938,217.107632 L283.761265,217.107632 Z" id="Shape" fill="#487BB3" fill-rule="nonzero"></path>
                <path d="M266.493909,217.107632 C266.493909,217.107632 261.816685,183.806262 249.292264,163.479452 C246.82143,159.372043 245.044151,154.884588 244.032007,150.197828 C239.847122,131.760978 245.815657,112.480783 259.337714,99.2856556 L279.096068,80.0097847" id="Shape" stroke="#535461" stroke-width="0.8625"></path>
                <path d="M283.761265,217.107632 C283.761265,217.107632 302.331959,203.268102 279.010622,154.829746 C279.010622,154.829746 247.915506,116.338552 279.010622,80.0097847 C279.010622,80.0097847 211.205995,81.739726 212.501625,144.882583 C213.797255,208.02544 246.403938,217.107632 246.403938,217.107632 L283.761265,217.107632 Z" id="Shape" fill="#000000" fill-rule="nonzero" opacity="0.1"></path>
                <path d="M186.986003,216.843816 C186.986003,216.843816 123.439679,202.615049 204.295617,119.365949 C204.295617,119.365949 239.148059,152.446751 226.364512,193.567456 C221.22518,210.10137 204.684306,220.308023 187.927494,217.038434 L186.986003,216.843816 Z" id="Shape" fill="#487BB3" fill-rule="nonzero"></path>
                <path d="M187.217881,216.843816 C185.82292,216.532427 125.02765,201.209472 204.527496,119.365949 C204.527496,119.365949 239.379938,152.446751 226.59639,193.567456 C221.457059,210.10137 204.916185,220.308023 188.159372,217.038434 L187.217881,216.843816 Z" id="Shape" fill="#FFFFFF" fill-rule="nonzero" opacity="0.4"></path>
                <path d="M187.866324,217.315225 C187.866324,217.315225 221.431774,166.675519 204.342416,119.365949" id="Shape" stroke="#535461" stroke-width="0.575"></path>
                <path d="M185.20694,211.969109 C187.081284,210.546232 188.843341,208.863864 189.383187,206.818209 C189.962169,204.569758 188.677792,202.26185 186.463701,201.572162 C183.781747,200.73314 180.918405,202.251164 178.750385,203.786486 C176.582364,205.321809 174.090436,207.06905 171.248688,206.744686 C174.194087,204.616858 175.593367,201.156976 174.781439,198.012807 C174.643356,197.335279 174.3012,196.716418 173.801079,196.239618 C172.315423,194.942162 169.616195,195.500068 167.836863,196.520733 C162.170642,199.777348 160.589973,206.061359 160.559742,211.722592 C159.989665,209.681261 160.469048,207.553434 160.456092,205.460205 C160.443135,203.366976 159.739177,201.04453 157.579793,199.920068 C156.284164,199.25404 154.712133,199.124295 153.191927,199.076721 C150.643855,198.998874 147.810745,199.210792 146.070282,200.728815 C143.910899,202.618776 144.46802,205.793218 146.351002,207.873473 C148.233984,209.953727 151.101644,211.259833 153.723135,212.695684 C155.727043,213.789872 157.756863,215.070029 158.99203,216.79997 C159.148609,217.029737 159.278986,217.276351 159.380719,217.535195 L175.360153,217.535195 C178.858971,216.093366 182.166327,214.22382 185.20694,211.969109 Z" id="Shape" fill="#487BB3" fill-rule="nonzero"></path>
                <path d="M172.196294,170.831703 C172.196294,170.831703 177.961847,178.378571 169.535934,189.778885 C161.110022,201.179198 154.165446,210.797671 156.972644,217.890431 C156.972644,217.890431 169.682772,196.724599 180.030536,196.430509 C190.378299,196.136419 183.576243,183.57272 172.196294,170.831703 Z" id="Shape" fill="#FC6681" fill-rule="nonzero"></path>
                <path d="M172.27126,170.831703 C172.778298,171.563876 173.178229,172.364865 173.45892,173.210372 C183.551877,185.086419 188.933059,196.171018 179.228792,196.447808 C170.189614,196.707299 159.362468,212.88225 156.771208,216.977886 C156.856048,217.293311 156.958418,217.603742 157.077841,217.90773 C157.077841,217.90773 169.787969,196.741898 180.135733,196.447808 C190.483496,196.153718 183.651208,183.57272 172.27126,170.831703 Z" id="Shape" fill="#000000" fill-rule="nonzero" opacity="0.1"></path>
                <path d="M182.718355,180.315897 C182.718355,182.971357 182.42036,185.125134 182.053265,185.125134 C181.68617,185.125134 181.388175,182.962707 181.388175,180.315897 C181.388175,177.669087 181.759589,178.91032 182.126684,178.91032 C182.493779,178.91032 182.718355,177.660437 182.718355,180.315897 Z" id="Shape" fill="#FFD037" fill-rule="nonzero"></path>
                <path d="M186.798431,183.454227 C184.470616,184.725734 182.436477,185.495558 182.263727,185.184168 C182.090976,184.872779 183.835757,183.566673 186.150616,182.295166 C188.465475,181.023659 187.562853,181.949178 187.735603,182.273542 C187.908354,182.597906 189.143521,182.18272 186.798431,183.454227 Z" id="Shape" fill="#FFD037" fill-rule="nonzero"></path>
                <path d="M141.635889,170.831703 C141.635889,170.831703 135.870337,178.378571 144.296249,189.778885 C152.722162,201.179198 159.666738,210.797671 156.85954,217.890431 C156.85954,217.890431 144.149411,196.724599 133.801648,196.430509 C123.453884,196.136419 130.255941,183.57272 141.635889,170.831703 Z" id="Shape" fill="#FC6681" fill-rule="nonzero"></path>
                <path d="M141.657802,170.831703 C141.150764,171.563876 140.750833,172.364865 140.470142,173.210372 C130.377185,185.086419 124.996003,196.171018 134.70027,196.447808 C143.739448,196.707299 154.566594,212.88225 157.157854,216.977886 C157.073014,217.293311 156.970644,217.603742 156.851221,217.90773 C156.851221,217.90773 144.141093,196.741898 133.793329,196.447808 C123.445566,196.153718 130.277854,183.57272 141.657802,170.831703 Z" id="Shape" fill="#000000" fill-rule="nonzero" opacity="0.1"></path>
                <path d="M130.858612,180.315897 C130.858612,182.971357 131.156607,185.125134 131.523702,185.125134 C131.890797,185.125134 132.188792,182.962707 132.188792,180.315897 C132.188792,177.669087 131.817378,178.91032 131.450283,178.91032 C131.083188,178.91032 130.858612,177.660437 130.858612,180.315897 Z" id="Shape" fill="#FFD037" fill-rule="nonzero"></path>
                <path d="M127.522236,183.454227 C129.850051,184.725734 131.88419,185.495558 132.05694,185.184168 C132.229691,184.872779 130.484909,183.566673 128.170051,182.295166 C125.855192,181.023659 126.757814,181.949178 126.585064,182.273542 C126.412313,182.597906 125.181465,182.18272 127.522236,183.454227 Z" id="Shape" fill="#FFD037" fill-rule="nonzero"></path>
                <path d="M398.496864,42.6182151 C392.131003,49.105495 391.712082,59.005084 391.712082,59.005084 C391.712082,59.005084 401.610694,58.4385282 407.976555,51.9728727 C414.342416,45.5072171 414.761337,35.5860038 414.761337,35.5860038 C414.761337,35.5860038 404.862725,36.1482347 398.496864,42.6182151 Z" id="Shape" fill="#487BB3" fill-rule="nonzero"></path>
                <path d="M339.886889,66.122996 C331.499846,62.6631135 322.179949,66.036499 322.179949,66.036499 C322.179949,66.036499 326.446889,75.0019197 334.833933,78.4531526 C343.220977,81.9043855 352.540874,78.5396497 352.540874,78.5396497 C352.540874,78.5396497 348.273933,69.5742289 339.886889,66.122996 Z" id="Shape" fill="#487BB3" fill-rule="nonzero"></path>
                <path d="M369.693386,48.9454754 C364.84773,41.2731858 355.290301,38.613401 355.290301,38.613401 C355.290301,38.613401 353.593026,48.396219 358.443,56.0728335 C363.292974,63.749448 372.846085,66.4049079 372.846085,66.4049079 C372.846085,66.4049079 374.539041,56.6264147 369.693386,48.9454754 Z" id="Shape" fill="#FFD037" fill-rule="nonzero"></path>
                <path d="M43.6195373,114.031963 C43.6195373,114.031963 143.962059,93.272668 273.91385,146.035877 C403.86564,198.799087 545.880466,104.517286 543.138867,90.2452707 C540.397268,75.9732551 637.449871,90.2452707 637.449871,90.2452707 C660.342351,116.017879 671.788591,136.224555 671.788591,150.865297 C671.788591,165.506039 660.342351,187.827087 637.449871,217.828441 L43.6195373,217.828441 C24.3050033,200.186784 14.6477363,184.615846 14.6477363,171.115626 C14.6477363,157.615407 24.3050033,138.587519 43.6195373,114.031963 Z" id="Shape" fill="#487BB3" fill-rule="nonzero" opacity="0.1"></path>
            </g>
        </g>
    </g>
</svg>