<?xml version="1.0" encoding="UTF-8"?>
<svg width="1128px" height="854px" viewBox="0 0 1128 854" version="1.1" xmlns="http://www.w3.org/2000/svg" xmlns:xlink="http://www.w3.org/1999/xlink">
    <!-- Generator: Sketch 50.2 (55047) - http://www.bohemiancoding.com/sketch -->
    <title>flower-group-1</title>
    <desc>Created with Sketch.</desc>
    <defs></defs>
    <g id="Website" stroke="none" stroke-width="1" fill="none" fill-rule="evenodd">
        <g id="Artboard-2" transform="translate(-1405.000000, -1294.000000)">
            <g id="flower-group-1" transform="translate(1406.000000, 1294.000000)">
                <path d="M894.263127,438.588084 C862.443127,479.048084 874.803127,538.158084 895.023127,585.488084 C901.793127,601.338084 909.453127,618.108084 906.593127,635.098084 C903.103127,655.878084 884.593127,671.098084 865.073127,679.098084 C829.573127,693.778084 787.073127,690.278084 754.463127,669.988084 C726.273127,652.448084 706.083127,623.928084 677.413127,607.188084 C629.413127,579.188084 568.353127,589.758084 516.253127,609.048084 C479.393127,622.698084 439.093127,640.458084 402.463127,626.188084 C376.693127,616.188084 358.873127,591.718084 349.163127,565.818084 C344.473127,553.308084 341.073127,539.818084 332.163127,529.818084 C326.843127,523.928084 319.903127,519.738084 312.783127,516.218084 C247.783127,484.008084 165.783127,501.218084 102.703127,465.538084 C60.0531271,441.508084 32.7331271,395.998084 20.7331271,348.548084 C8.7331271,301.098084 10.0331271,251.308084 13.0931271,202.478084 C15.2731271,167.748084 19.1831271,130.678084 41.3731271,103.868084 C64.8431271,75.5180844 105.133127,64.9680844 141.543127,70.3580844 C177.953127,75.7480844 210.963127,94.9580844 239.993127,117.578084 C276.283127,145.848084 309.933127,181.058084 354.493127,192.518084 C384.833127,200.318084 416.753127,196.048084 448.053127,194.578084 C500.373127,192.108084 552.703127,197.578084 604.733127,203.578084 C654.543127,209.338084 704.733127,215.678084 752.163127,231.878084 C785.743127,243.348084 812.663127,264.158084 844.373127,278.698084 C865.043127,288.178084 887.583127,290.798084 907.143127,302.868084 C931.253127,317.738084 953.343127,343.608084 947.143127,373.868084 C941.303127,402.688084 911.153127,417.118084 894.263127,438.588084 Z" id="Shape" fill="#487BB3" fill-rule="nonzero" opacity="0.1"></path>
                <path d="M0,608.666667 C0,608.666667 183,560.666667 420,682.666667 C657,804.666667 916,586.666667 911,553.666667 C906,520.666667 1083,553.666667 1083,553.666667 L1083,848.666667 L0,848.666667 L0,608.666667 Z" id="Shape" fill="#487BB3" fill-rule="nonzero" opacity="0.1"></path>
                <circle id="Oval" fill="#FFDF9C" fill-rule="nonzero" cx="87.74" cy="49.74" r="49.74"></circle>
                <path d="M635,797.32 C635.79,800.6 636.22,802.73 636.22,802.73 L658.5,815.83 C658.5,815.83 674.7,778.54 666.6,777.53 C665.34,777.38 663.97,776.08 662.53,774 C660.369442,775.287263 659.315022,777.843925 659.94,780.28 C660.258068,781.784479 660.797253,783.233541 661.54,784.58 C664.54,789.58 651.41,797.68 651.41,797.68 C646.97,803.37 639.77,800.38 635,797.32 Z" id="Shape" fill="#000000" fill-rule="nonzero" opacity="0.1"></path>
                <path d="M660.889385,782.215321 C659.499385,776.405321 666.799385,772.505321 670.889385,776.865321 C671.932365,777.955971 672.845147,779.164065 673.609385,780.465321 C677.659385,787.515321 708.039385,793.565321 714.109385,791.555321 C720.179385,789.545321 741.449385,787.555321 736.389385,802.645321 C731.329385,817.735321 640.209385,839.935321 640.209385,839.935321 C640.209385,839.935321 630.069385,825.815321 631.069385,815.745321 C631.658617,809.038237 631.658617,802.292404 631.069385,795.585321 C631.069385,795.585321 645.249385,808.685321 652.329385,799.585321 C652.329385,799.585321 665.489385,791.525321 662.459385,786.485321 C661.729807,785.146535 661.200828,783.707847 660.889385,782.215321 Z" id="Shape" fill="#DCE6F2" fill-rule="nonzero"></path>
                <path d="M373,774.425706 L381.1,793.575706 L417.55,789.575706 C416.428544,784.373484 415.805725,779.076174 415.69,773.755706 C414.954861,772.292216 413.549603,771.281526 411.928271,771.050192 C410.306939,770.818858 408.675098,771.396211 407.56,772.595706 C405.68,774.595706 403.77,776.735706 402.37,778.495706 C398.32,783.495706 385.16,780.495706 385.16,780.495706 C381.75,781.625706 377.7,776.725706 374.8,772.205706 C374.273532,773.002415 373.670684,773.745928 373,774.425706 Z" id="Shape" fill="#000000" fill-rule="nonzero" opacity="0.1"></path>
                <path d="M406.77,775.21 C408.00625,773.883913 409.863468,773.330911 411.623752,773.764754 C413.384035,774.198598 414.771567,775.551309 415.25,777.3 C417.09,784.47 421.13,793.72 429.94,797.23 C445.13,803.23 466.39,813.35 459.31,822.42 C452.23,831.49 427.91,839.57 406.64,832.5 C385.37,825.43 355,808.31 355,808.31 L370.19,768 C370.19,768 378.29,785.13 384.37,783.12 C384.37,783.12 397.53,786.12 401.58,781.12 C402.99,779.35 404.89,777.23 406.77,775.21 Z" id="Shape" fill="#DCE6F2" fill-rule="nonzero"></path>
                <path d="M36.555507,849.173146 C36.555507,849.173146 3.55550703,790.173146 44.555507,743.173146 C85.555507,696.173146 133.555507,722.173146 133.555507,722.173146 C133.555507,722.173146 193.555507,750.173146 179.555507,817.173146 C179.555507,817.173146 171.555507,851.173146 147.555507,849.173146 L36.555507,849.173146 Z" id="Shape" fill="#487BB3" fill-rule="nonzero"></path>
                <path d="M36.555507,849.173146 C36.555507,849.173146 3.55550703,790.173146 44.555507,743.173146 C85.555507,696.173146 133.555507,722.173146 133.555507,722.173146 C133.555507,722.173146 193.555507,750.173146 179.555507,817.173146 C179.555507,817.173146 171.555507,851.173146 147.555507,849.173146 L36.555507,849.173146 Z" id="Shape" fill="#FFFFFF" fill-rule="nonzero" opacity="0.2"></path>
                <path d="M89,849.08 L125.17,739" id="Shape" stroke="#535461"></path>
                <path d="M158,756 C158,756 139.38,747.24 120.69,752.12 C120.69,752.12 111,728 89,724" id="Shape" stroke="#535461"></path>
                <path d="M167,794.092602 C167,794.092602 135.34,771.212602 112.17,778.152602 C112.17,778.152602 86,747.092602 68,749.092602" id="Shape" stroke="#535461"></path>
                <path d="M160,834.98 C160,834.98 132.94,815.4 99.47,816.71 C99.47,816.71 74,786 50,784" id="Shape" stroke="#535461"></path>
                <path d="M103.54,849.687804 C99.3897457,847.730263 95.0594922,846.179677 90.61,845.057804 C90.61,845.057804 69.75,817.937804 28,826.767804" id="Shape" stroke="#535461"></path>
                <path d="M352.87,848.12 C352.87,848.12 297.87,758.44 312.55,677.53 C318.72,643.53 314.34,608.53 298.91,577.62 C291.562643,562.984428 282.889721,549.052857 273,536" id="Shape" stroke="#535461" stroke-width="2"></path>
                <path d="M282.105584,485.013541 C285.335584,496.953541 273.105584,537.423541 273.105584,537.423541 C273.105584,537.423541 242.105584,508.643541 238.905584,496.703541 C236.621569,488.914415 238.730056,480.499132 244.416882,474.707137 C250.103709,468.915141 258.478947,466.65282 266.308613,468.793736 C274.13828,470.934653 280.197116,477.143777 282.145584,485.023541 L282.105584,485.013541 Z" id="Shape" fill="#487BB3" fill-rule="nonzero"></path>
                <path d="M335.47981,541.881462 C331.69981,553.661462 299.40981,580.961462 299.40981,580.961462 C299.40981,580.961462 289.04981,539.961462 292.82981,528.191462 C296.765417,516.622548 309.247023,510.342706 320.88233,514.077463 C332.517636,517.812219 339.012597,530.183249 335.47981,541.881462 Z" id="Shape" fill="#487BB3" fill-rule="nonzero"></path>
                <path d="M364.86,655.375397 C355.65,663.635397 314,670.905397 314,670.905397 C314,670.905397 325.75,630.285397 335,622.025397 C340.928555,616.491666 349.385134,614.594563 357.109411,617.065492 C364.833688,619.536421 370.61914,625.989425 372.235261,633.936632 C373.851381,641.883839 371.045734,650.083904 364.9,655.375397 L364.86,655.375397 Z" id="Shape" fill="#487BB3" fill-rule="nonzero"></path>
                <path d="M367.51,746.070623 C359.83,755.760623 320,769.970623 320,769.970623 C320,769.970623 324.72,727.970623 332.4,718.250623 C340.139427,708.752982 354.073407,707.23533 363.676021,714.844123 C373.278635,722.452916 374.986735,736.364834 367.51,746.070623 Z" id="Shape" fill="#487BB3" fill-rule="nonzero"></path>
                <path d="M254.865291,595.146774 C265.675291,601.146774 307.865291,598.986774 307.865291,598.986774 C307.865291,598.986774 287.385291,561.986774 276.575291,555.986774 C269.568662,551.953392 260.932278,552.008543 253.977732,556.13108 C247.023186,560.253617 242.82972,567.803783 243.005305,575.886493 C243.180891,583.969203 247.698278,591.330138 254.825291,595.146774 L254.865291,595.146774 Z" id="Shape" fill="#487BB3" fill-rule="nonzero"></path>
                <path d="M259.27162,701.216927 C271.38162,703.716927 311.03162,689.016927 311.03162,689.016927 C311.03162,689.016927 280.45162,659.846927 268.31162,657.346927 C256.362076,655.229941 244.899923,663.013799 242.461075,674.901828 C240.022227,686.789858 247.493772,698.457994 259.31162,701.216927 L259.27162,701.216927 Z" id="Shape" fill="#487BB3" fill-rule="nonzero"></path>
                <path d="M277.786071,804.080828 C289.306071,808.590828 330.866071,800.800828 330.866071,800.800828 C330.866071,800.800828 305.626071,766.880828 294.106071,762.370828 C282.669416,758.183999 269.983118,763.901933 265.545427,775.243605 C261.107736,786.585277 266.544884,799.394428 277.786071,804.080828 Z" id="Shape" fill="#487BB3" fill-rule="nonzero"></path>
                <path d="M282.105584,485.013541 C285.335584,496.953541 273.105584,537.423541 273.105584,537.423541 C273.105584,537.423541 242.105584,508.643541 238.905584,496.703541 C236.621569,488.914415 238.730056,480.499132 244.416882,474.707137 C250.103709,468.915141 258.478947,466.65282 266.308613,468.793736 C274.13828,470.934653 280.197116,477.143777 282.145584,485.023541 L282.105584,485.013541 Z" id="Shape" fill="#FC6681" fill-rule="nonzero"></path>
                <path d="M335.47981,541.881462 C331.69981,553.661462 299.40981,580.961462 299.40981,580.961462 C299.40981,580.961462 289.04981,539.961462 292.82981,528.191462 C296.765417,516.622548 309.247023,510.342706 320.88233,514.077463 C332.517636,517.812219 339.012597,530.183249 335.47981,541.881462 Z" id="Shape" fill="#FC6681" fill-rule="nonzero"></path>
                <path d="M364.86,655.375397 C355.65,663.635397 314,670.905397 314,670.905397 C314,670.905397 325.75,630.285397 335,622.025397 C340.928555,616.491666 349.385134,614.594563 357.109411,617.065492 C364.833688,619.536421 370.61914,625.989425 372.235261,633.936632 C373.851381,641.883839 371.045734,650.083904 364.9,655.375397 L364.86,655.375397 Z" id="Shape" fill="#FC6681" fill-rule="nonzero"></path>
                <path d="M367.51,746.070623 C359.83,755.760623 320,769.970623 320,769.970623 C320,769.970623 324.72,727.970623 332.4,718.250623 C340.139427,708.752982 354.073407,707.23533 363.676021,714.844123 C373.278635,722.452916 374.986735,736.364834 367.51,746.070623 Z" id="Shape" fill="#FC6681" fill-rule="nonzero"></path>
                <path d="M254.865291,595.146774 C265.675291,601.146774 307.865291,598.986774 307.865291,598.986774 C307.865291,598.986774 287.385291,561.986774 276.575291,555.986774 C269.568662,551.953392 260.932278,552.008543 253.977732,556.13108 C247.023186,560.253617 242.82972,567.803783 243.005305,575.886493 C243.180891,583.969203 247.698278,591.330138 254.825291,595.146774 L254.865291,595.146774 Z" id="Shape" fill="#FC6681" fill-rule="nonzero"></path>
                <path d="M259.27162,701.216927 C271.38162,703.716927 311.03162,689.016927 311.03162,689.016927 C311.03162,689.016927 280.45162,659.846927 268.31162,657.346927 C256.362076,655.229941 244.899923,663.013799 242.461075,674.901828 C240.022227,686.789858 247.493772,698.457994 259.31162,701.216927 L259.27162,701.216927 Z" id="Shape" fill="#FC6681" fill-rule="nonzero"></path>
                <path d="M277.786071,804.080828 C289.306071,808.590828 330.866071,800.800828 330.866071,800.800828 C330.866071,800.800828 305.626071,766.880828 294.106071,762.370828 C282.669416,758.183999 269.983118,763.901933 265.545427,775.243605 C261.107736,786.585277 266.544884,799.394428 277.786071,804.080828 Z" id="Shape" fill="#FC6681" fill-rule="nonzero"></path>
                <path d="M65,849.08 C65,849.08 139.48,732 148.48,682 C157.48,632 174.48,586 174.48,586" id="Shape" stroke="#535461" stroke-width="2"></path>
                <path d="M192,686 L145,690 C145,690 170,733 192,686 Z" id="Shape" fill="#487BB3" fill-rule="nonzero"></path>
                <path d="M109.631663,660 L146.851663,689.81 C146.851663,689.81 98.6316627,709 109.631663,660 Z" id="Shape" fill="#487BB3" fill-rule="nonzero"></path>
                <path d="M197.36,645 L155,650.66 C155,650.66 192.36,681 197.36,645 Z" id="Shape" fill="#487BB3" fill-rule="nonzero"></path>
                <path d="M127.711128,630 L155.651128,649.61 C155.651128,649.61 121.711128,664 127.711128,630 Z" id="Shape" fill="#487BB3" fill-rule="nonzero"></path>
                <path d="M166,612.474776 C166,612.474776 200.69,603.284776 205.69,605.284776 C210.69,607.284776 207.69,629.284776 193.69,630.284776 C179.69,631.284776 166,612.474776 166,612.474776 Z" id="Shape" fill="#487BB3" fill-rule="nonzero"></path>
                <path d="M142.4375,586 C142.4375,586 164.4375,607 165.4375,612 C166.4375,617 147.4375,629 137.4375,612 C127.4375,595 142.4375,586 142.4375,586 Z" id="Shape" fill="#487BB3" fill-rule="nonzero"></path>
                <circle id="Oval" fill="#FFD037" fill-rule="nonzero" cx="184" cy="588" r="10"></circle>
                <circle id="Oval" fill="#FFD037" fill-rule="nonzero" cx="166" cy="583" r="10"></circle>
                <path d="M0,808.974441 L0,623.974441 C0,623.974441 90,600.974441 107,711.974441 C124,822.974441 0,808.974441 0,808.974441 Z" id="Shape" fill="#487BB3" fill-rule="nonzero"></path>
                <path d="M88,682 C88,682 69.07,665 50,669 C50,669 38,642 28,639" id="Shape" stroke="#535461"></path>
                <path d="M80.51,715.5 C80.51,715.5 67.51,696.16 33.51,695.33 C33.51,695.33 13.51,658.5 0,656" id="Shape" stroke="#535461"></path>
                <path d="M80.5,760.08 C80.5,760.08 52.38,721.92 17.94,720 C17.94,720 7.5,705.91 0,705" id="Shape" stroke="#535461"></path>
                <path d="M51.05,804.36 C51.05,804.36 38.5,761.66 0,748.83 L54.5,661" id="Shape" stroke="#535461"></path>
                <path d="M393.949334,849 C393.949334,849 426.949334,795 344.949334,715 C262.949334,635 267.949334,620 274.949334,608 C274.949334,608 208.949334,616 222.949334,715 C236.949334,814 296.949334,849 296.949334,849 L393.949334,849 Z" id="Shape" fill="#487BB3" fill-rule="nonzero"></path>
                <path d="M347.026971,849 C347.026971,849 322.526971,778 285.526971,735 C248.526971,692 255.526971,621 274.526971,608" id="Shape" stroke="#535461" stroke-width="2"></path>
                <path d="M721.810465,463 C721.810465,463 777.290465,571.91 732.080465,631.5 C686.870465,691.09 736.190465,853.43 736.190465,853.43" id="Shape" stroke="#FC6681" stroke-width="2"></path>
                <path d="M738.82,429 C738.82,450 723.41,467 723.41,467 C723.41,467 708,450 708,429 C708,408 723.41,391 723.41,391 C723.41,391 738.82,408.01 738.82,429 Z" id="Shape" fill="#FC6681" fill-rule="nonzero"></path>
                <path d="M751.007486,463 C751.007486,463 695.527486,571.91 740.737486,631.5 C785.947486,691.09 736.627486,853.43 736.627486,853.43" id="Shape" stroke="#FFD037" stroke-width="2"></path>
                <path d="M734,429 C734,450 749.41,467 749.41,467 C749.41,467 764.82,450 764.82,429 C764.82,408 749.41,391 749.41,391 C749.41,391 734,408.01 734,429 Z" id="Shape" fill="#FFD037" fill-rule="nonzero"></path>
                <path d="M772.796032,463 C772.796032,463 828.276032,571.91 783.076032,631.5 C737.876032,691.09 787.186032,853.43 787.186032,853.43" id="Shape" stroke="#FC6681" stroke-width="2"></path>
                <path d="M789.82,429 C789.82,450 774.41,467 774.41,467 C774.41,467 759,450 759,429 C759,408 774.41,391 774.41,391 C774.41,391 789.82,408.01 789.82,429 Z" id="Shape" fill="#FC6681" fill-rule="nonzero"></path>
                <path d="M781.46,516 C766.9,531.13 744,532.71 744,532.71 C744,532.71 744.69,509.71 759.25,494.63 C773.81,479.55 796.71,478 796.71,478 C796.71,478 796.02,500.91 781.46,516 Z" id="Shape" fill="#FC6681" fill-rule="nonzero"></path>
                <path d="M782.46,591.08 C767.9,606.21 745,607.79 745,607.79 C745,607.79 745.69,584.79 760.25,569.71 C774.81,554.63 797.71,553 797.71,553 C797.71,553 797.01,575.91 782.46,591.08 Z" id="Shape" fill="#FC6681" fill-rule="nonzero"></path>
                <path d="M703.562042,632.6 C717.322042,648.45 716.842042,671.41 716.842042,671.41 C716.842042,671.41 694.042042,668.66 680.282042,652.81 C666.522042,636.96 667.002042,614 667.002042,614 C667.002042,614 689.802042,616.75 703.562042,632.6 Z" id="Shape" fill="#FC6681" fill-rule="nonzero"></path>
                <path d="M716.2,472.627311 C733.7,484.227311 739.37,506.477311 739.37,506.477311 C739.37,506.477311 716.67,509.917311 699.17,498.327311 C681.67,486.737311 676,464.477311 676,464.477311 C676,464.477311 698.7,461.037311 716.2,472.627311 Z" id="Shape" fill="#FC6681" fill-rule="nonzero"></path>
                <path d="M802.007486,463 C802.007486,463 746.527486,571.91 791.737486,631.5 C836.947486,691.09 787.627486,853.43 787.627486,853.43" id="Shape" stroke="#FFD037" stroke-width="2"></path>
                <path d="M786,429 C786,450 801.41,467 801.41,467 C801.41,467 816.82,450 816.82,429 C816.82,408 801.41,391 801.41,391 C801.41,391 786,408.01 786,429 Z" id="Shape" fill="#FFD037" fill-rule="nonzero"></path>
                <path d="M789.71,517.26 C774.97,532.26 774,555.15 774,555.15 C774,555.15 796.92,553.84 811.66,538.89 C826.4,523.94 827.37,501 827.37,501 C827.37,501 804.45,502.3 789.71,517.26 Z" id="Shape" fill="#FFD037" fill-rule="nonzero"></path>
                <path d="M933.71,209.26 C918.97,224.26 918,247.15 918,247.15 C918,247.15 940.92,245.84 955.66,230.89 C970.4,215.94 971.37,193 971.37,193 C971.37,193 948.45,194.3 933.71,209.26 Z" id="Shape" fill="#487BB3" fill-rule="nonzero"></path>
                <path d="M56.71,437.26 C41.97,452.26 41,475.15 41,475.15 C41,475.15 63.92,473.84 78.66,458.89 C93.4,443.94 94.37,421 94.37,421 C94.37,421 71.45,422.3 56.71,437.26 Z" id="Shape" fill="#FC6681" fill-rule="nonzero"></path>
                <path d="M877.71,486.26 C862.97,501.26 862,524.15 862,524.15 C862,524.15 884.92,522.84 899.66,507.89 C914.4,492.94 915.37,470 915.37,470 C915.37,470 892.45,471.3 877.71,486.26 Z" id="Shape" fill="#487BB3" fill-rule="nonzero"></path>
                <path d="M156,470.608159 C136.58,462.608159 115,470.408159 115,470.408159 C115,470.408159 124.88,491.138159 144.3,499.118159 C163.72,507.098159 185.3,499.318159 185.3,499.318159 C185.3,499.318159 175.42,478.588159 156,470.608159 Z" id="Shape" fill="#487BB3" fill-rule="nonzero"></path>
                <path d="M400.016232,439.89 C388.796232,422.15 366.666232,416 366.666232,416 C366.666232,416 362.736232,438.62 373.966232,456.37 C385.196232,474.12 407.316232,480.26 407.316232,480.26 C407.316232,480.26 411.236232,457.65 400.016232,439.89 Z" id="Shape" fill="#FFD037" fill-rule="nonzero"></path>
                <path d="M818.71,622.26 C803.97,637.26 803,660.15 803,660.15 C803,660.15 825.92,658.84 840.66,643.89 C855.4,628.94 856.37,606 856.37,606 C856.37,606 833.45,607.3 818.71,622.26 Z" id="Shape" fill="#FFD037" fill-rule="nonzero"></path>
                <path d="M776,598.77 C776,598.77 809.4,546.13 856.27,545" id="Shape" stroke="#FFD037" stroke-width="2"></path>
                <path d="M750.27,566.77 C750.27,566.77 716.87,514.13 670,513" id="Shape" stroke="#FC6681" stroke-width="2"></path>
                <path d="M746,641.77 C746,641.77 779.4,589.13 826.27,588" id="Shape" stroke="#FFD037" stroke-width="2"></path>
                <circle id="Oval" fill="#FFD037" fill-rule="nonzero" cx="855.67" cy="544.67" r="8.67"></circle>
                <circle id="Oval" fill="#FC6681" fill-rule="nonzero" cx="670.67" cy="513.67" r="8.67"></circle>
                <path d="M770.27,659.77 C770.27,659.77 736.87,607.13 690,606" id="Shape" stroke="#FC6681" stroke-width="2"></path>
                <circle id="Oval" fill="#FC6681" fill-rule="nonzero" cx="691.67" cy="605.67" r="8.67"></circle>
                <circle id="Oval" fill="#FFD037" fill-rule="nonzero" cx="826.67" cy="588.67" r="8.67"></circle>
                <path d="M508.371801,634.070278 C508.371801,634.070278 475.371801,597.070278 463.371801,643.070278 C451.371801,689.070278 444.371801,695.070278 420.371801,683.070278 C396.371801,671.070278 371.371801,728.070278 430.371801,769.070278 C489.371801,810.070278 456.371801,850.570278 456.371801,850.570278 L667.371801,850.570278 C667.371801,850.570278 695.371801,769.070278 634.371801,741.070278 C573.371801,713.070278 575.371801,692.070278 577.371801,664.070278 C579.371801,636.070278 508.371801,634.070278 508.371801,634.070278 Z" id="Shape" fill="#487BB3" fill-rule="nonzero"></path>
                <path d="M480,620 C480,620 617,800.57 570,850.57" id="Shape" stroke="#535461" stroke-width="2"></path>
                <path d="M445,686.33 C445,686.33 477.42,713.92 530.42,699.92 C583.42,685.92 570.35,650 570.35,650" id="Shape" stroke="#535461" stroke-width="2"></path>
                <path d="M667,773.69 C667,773.69 596.47,739.48 561,752.24 C468.68,785.46 400,696 400,696" id="Shape" stroke="#535461" stroke-width="2"></path>
                <path d="M462.042452,849 C462.042452,849 505.042452,817 451.042452,705 C451.042452,705 379.042452,616 451.042452,532 C451.042452,532 294.042452,536 297.042452,682 C300.042452,828 375.542452,849 375.542452,849 L462.042452,849 Z" id="Shape" fill="#487BB3" fill-rule="nonzero"></path>
                <path d="M422.060301,849 C422.060301,849 411.230301,772 382.230301,725 C376.509145,715.502777 372.393896,705.126809 370.050301,694.29 C360.360301,651.66 374.180301,607.08 405.490301,576.57 L451.240301,532" id="Shape" stroke="#535461" stroke-width="2"></path>
                <path d="M462.042452,849 C462.042452,849 505.042452,817 451.042452,705 C451.042452,705 379.042452,616 451.042452,532 C451.042452,532 294.042452,536 297.042452,682 C300.042452,828 375.542452,849 375.542452,849 L462.042452,849 Z" id="Shape" fill="#000000" fill-rule="nonzero" opacity="0.1"></path>
                <path d="M992.24,383 C992.24,383 969.24,570 992.24,685 C1015.24,800 876,849.5 876,849.5 L1080.24,849.5 C1080.24,849.5 1108.24,477 992.24,383 Z" id="Shape" fill="#487BB3" fill-rule="nonzero"></path>
                <path d="M992,383 C992,383 1050.15,544.07 1041.57,626 C1032.99,707.93 1021,851 1021,851" id="Shape" stroke="#535461" stroke-width="2"></path>
                <path d="M846.961638,848.39 C846.961638,848.39 699.821638,815.49 887.041638,623 C887.041638,623 967.741638,699.49 938.141638,794.57 C926.241638,832.8 887.941638,856.4 849.141638,848.84 L846.961638,848.39 Z" id="Shape" fill="#487BB3" fill-rule="nonzero"></path>
                <path d="M847.498547,848.39 C844.268547,847.67 703.498547,812.24 887.578547,623 C887.578547,623 968.278547,699.49 938.678547,794.57 C926.778547,832.8 888.478547,856.4 849.678547,848.84 L847.498547,848.39 Z" id="Shape" fill="#FFFFFF" fill-rule="nonzero" opacity="0.4"></path>
                <path d="M849,849.48 C849,849.48 926.72,732.39 887.15,623" id="Shape" stroke="#535461"></path>
                <path d="M237.961638,848.39 C237.961638,848.39 90.8216375,815.49 278.041638,623 C278.041638,623 358.741638,699.49 329.141638,794.57 C317.241638,832.8 278.941638,856.4 240.141638,848.84 L237.961638,848.39 Z" id="Shape" fill="#487BB3" fill-rule="nonzero"></path>
                <path d="M238.498547,848.39 C235.268547,847.67 94.4985469,812.24 278.578547,623 C278.578547,623 359.278547,699.49 329.678547,794.57 C317.778547,832.8 279.478547,856.4 240.678547,848.84 L238.498547,848.39 Z" id="Shape" fill="#FFFFFF" fill-rule="nonzero" opacity="0.4"></path>
                <path d="M240,849.48 C240,849.48 317.72,732.39 278.15,623" id="Shape" stroke="#535461"></path>
                <path d="M963.4,346 C963.4,346 888.29,421.11 930.69,532.56 C973.09,644.01 858,829.37 858,829.37 C858,829.37 859.23,829.19 861.52,828.79 C1015.78,801.56 1092.44,625.12 1006.65,494.05 C974.77,445.32 948.59,388.15 963.4,346 Z" id="Shape" fill="#487BB3" fill-rule="nonzero"></path>
                <path d="M963.4,346 C963.4,346 888.29,421.11 930.69,532.56 C973.09,644.01 858,829.37 858,829.37 C858,829.37 859.23,829.19 861.52,828.79 C1015.78,801.56 1092.44,625.12 1006.65,494.05 C974.77,445.32 948.59,388.15 963.4,346 Z" id="Shape" fill="#000000" fill-rule="nonzero" opacity="0.1"></path>
                <path d="M963.4,346 C963.4,346 921,438.07 963.4,513.18 C1005.8,588.29 970.67,799.08 858,829.37" id="Shape" stroke="#535461"></path>
                <path d="M1096.33,649.938584 C1096.33,649.938584 1010.62,636.288584 1002.81,713.098584 C995,789.908584 838,800.558584 838,800.558584 C838,800.558584 839,801.258584 840.94,802.558584 C970.57,887.658584 1094.49,856.768584 1075.81,743.768584 C1068.87,701.718584 1069.44,659.528584 1096.33,649.938584 Z" id="Shape" fill="#487BB3" fill-rule="nonzero"></path>
                <path d="M1096.33,649.938584 C1096.33,649.938584 1010.62,636.288584 1002.81,713.098584 C995,789.908584 838,800.558584 838,800.558584 C838,800.558584 839,801.258584 840.94,802.558584 C970.57,887.658584 1094.49,856.768584 1075.81,743.768584 C1068.87,701.718584 1069.44,659.528584 1096.33,649.938584 Z" id="Shape" fill="#F5F5F5" fill-rule="nonzero" opacity="0.2"></path>
                <path d="M1096.34,650 C1096.34,650 1029.81,664.6 1035.27,725.09 C1040.73,785.58 936.48,858.09 838,800.62" id="Shape" stroke="#535461"></path>
                <path d="M1067.96,398.5 C1067.96,413.68 1040.48,457.69 1040.48,457.69 C1040.48,457.69 1013,413.69 1013,398.5 C1013,383.312169 1025.31217,371 1040.5,371 C1055.68783,371 1068,383.312169 1068,398.5 L1067.96,398.5 Z" id="Shape" fill="#487BB3" fill-rule="nonzero"></path>
                <path d="M1113.23,482.683124 C1104.98,495.423124 1058,517.433124 1058,517.433124 C1058,517.433124 1058.85,465.553124 1067.1,452.813124 C1072.38062,444.446445 1081.75117,439.564276 1091.63392,440.030657 C1101.51667,440.497037 1110.38581,446.239963 1114.85505,455.066751 C1119.32429,463.893539 1118.70361,474.44141 1113.23,482.683124 Z" id="Shape" fill="#487BB3" fill-rule="nonzero"></path>
                <path d="M1111.22,625.926904 C1097.67,632.756904 1046,628.036904 1046,628.036904 C1046,628.036904 1072.92,583.686904 1086.47,576.856904 C1099.99922,570.161406 1116.39633,575.632539 1123.19438,589.110527 C1129.99243,602.588515 1124.64597,619.026699 1111.22,625.926904 Z" id="Shape" fill="#487BB3" fill-rule="nonzero"></path>
                <path d="M1085.92,734.577385 C1073.72,743.577385 1022,747.677385 1022,747.677385 C1022,747.677385 1041,699.417385 1053.24,690.387385 C1065.44273,681.363052 1082.65067,683.939653 1091.675,696.142385 C1100.69933,708.345116 1098.12273,725.553052 1085.92,734.577385 Z" id="Shape" fill="#487BB3" fill-rule="nonzero"></path>
                <path d="M1000.07118,519.933774 C1010.96118,530.503774 1061.67118,541.463774 1061.67118,541.463774 C1061.67118,541.463774 1049.25118,491.083774 1038.36118,480.513774 C1027.43834,470.184546 1010.24274,470.549706 999.76824,481.333322 C989.293743,492.116939 989.428721,509.315886 1000.07118,519.933774 Z" id="Shape" fill="#487BB3" fill-rule="nonzero"></path>
                <path d="M971.79032,646.866699 C985.34032,653.696699 1037.01032,648.976699 1037.01032,648.976699 C1037.01032,648.976699 1010.09032,604.626699 996.49032,597.766699 C982.981783,591.206302 966.708525,596.705054 959.947804,610.114455 C953.187083,623.523856 958.443026,639.877151 971.75032,646.836699 L971.79032,646.866699 Z" id="Shape" fill="#487BB3" fill-rule="nonzero"></path>
                <path d="M960.487773,774.837192 C972.687773,783.837192 1024.40777,787.937192 1024.40777,787.937192 C1024.40777,787.937192 1005.40777,739.677192 993.167773,730.647192 C985.285751,724.622824 974.768549,723.314514 965.650765,727.224154 C956.532982,731.133795 950.230323,739.654341 949.16061,749.517149 C948.090896,759.379958 952.420221,769.053642 960.487773,774.827192 L960.487773,774.837192 Z" id="Shape" fill="#487BB3" fill-rule="nonzero"></path>
                <g id="red-flower" transform="translate(892.000000, 367.000000)">
                    <path d="M86.3575837,480.29 C86.3575837,480.29 49.8875837,356.46 93.1975837,265.29 C111.377584,227.04 117.417584,184.1 109.017584,142.59 C104.998319,122.903193 99.1840233,103.625975 91.6475837,85" id="Shape" stroke="#535461" stroke-width="2"></path>
                    <path d="M118.96,27.5 C118.96,42.68 91.48,86.69 91.48,86.69 C91.48,86.69 64,42.69 64,27.5 C64,12.3121694 76.3121694,0 91.5,0 C106.687831,0 119,12.3121694 119,27.5 L118.96,27.5 Z" id="Shape" fill="#FC6681" fill-rule="nonzero"></path>
                    <path d="M164.23,111.683124 C155.98,124.423124 109,146.433124 109,146.433124 C109,146.433124 109.85,94.5531237 118.1,81.8131237 C123.380621,73.4464454 132.751172,68.564276 142.633923,69.0306567 C152.516673,69.4970375 161.385811,75.2399633 165.855049,84.0667511 C170.324286,92.8935388 169.70361,103.44141 164.23,111.683124 Z" id="Shape" fill="#FC6681" fill-rule="nonzero"></path>
                    <path d="M162.22,254.926904 C148.67,261.756904 97,257.036904 97,257.036904 C97,257.036904 123.92,212.686904 137.47,205.856904 C150.999225,199.161406 167.396333,204.632539 174.19438,218.110527 C180.992428,231.588515 175.645974,248.026699 162.22,254.926904 Z" id="Shape" fill="#FC6681" fill-rule="nonzero"></path>
                    <path d="M135.92,363.577385 C123.72,372.577385 72,376.677385 72,376.677385 C72,376.677385 91,328.417385 103.24,319.387385 C115.442732,310.363052 132.650667,312.939653 141.675,325.142385 C150.699333,337.345116 148.122732,354.553052 135.92,363.577385 Z" id="Shape" fill="#FC6681" fill-rule="nonzero"></path>
                    <path d="M51.0711791,148.933774 C61.9611791,159.503774 112.671179,170.463774 112.671179,170.463774 C112.671179,170.463774 100.251179,120.083774 89.3611791,109.513774 C78.4383362,99.1845456 61.2427364,99.5497062 50.7682395,110.333322 C40.2937427,121.116939 40.4287215,138.315886 51.0711791,148.933774 Z" id="Shape" fill="#FC6681" fill-rule="nonzero"></path>
                    <path d="M22.7903201,275.866699 C36.3403201,282.696699 88.0103201,277.976699 88.0103201,277.976699 C88.0103201,277.976699 61.0903201,233.626699 47.4903201,226.766699 C33.9817829,220.206302 17.708525,225.705054 10.9478041,239.114455 C4.18708318,252.523856 9.44302634,268.877151 22.7503201,275.836699 L22.7903201,275.866699 Z" id="Shape" fill="#FC6681" fill-rule="nonzero"></path>
                    <path d="M11.4877725,403.837192 C23.6877725,412.837192 75.4077725,416.937192 75.4077725,416.937192 C75.4077725,416.937192 56.4077725,368.677192 44.1677725,359.647192 C36.2857512,353.622824 25.7685492,352.314514 16.6507655,356.224154 C7.53298176,360.133795 1.23032321,368.654341 0.160609777,378.517149 C-0.909103653,388.379958 3.42022109,398.053642 11.4877725,403.827192 L11.4877725,403.837192 Z" id="Shape" fill="#FC6681" fill-rule="nonzero"></path>
                </g>
                <path d="M1034.68429,829.618649 C1040.40429,824.298649 1045.77429,818.028649 1047.42429,810.388649 C1049.07429,802.748649 1045.81429,793.588649 1038.52429,790.798649 C1030.34429,787.668649 1021.60429,793.338649 1014.98429,799.058649 C1008.36429,804.778649 1000.76429,811.318649 992.094286,810.058649 C1001.16635,801.836894 1005.25862,789.457588 1002.87429,777.448649 C1002.49239,775.010979 1001.45547,772.722839 999.874286,770.828649 C995.334286,765.978649 987.104286,768.058649 981.674286,771.878649 C964.384286,784.038649 959.564286,807.518649 959.474286,828.648649 C957.734286,821.028649 959.204286,813.078649 959.154286,805.258649 C959.104286,797.438649 956.984286,788.788649 950.364286,784.618649 C946.444286,782.128649 941.614286,781.618649 936.974286,781.468649 C929.204286,781.178649 920.554286,781.958649 915.244286,787.648649 C908.654286,794.708649 910.364286,806.558649 916.094286,814.328649 C921.824286,822.098649 930.554286,826.968649 938.584286,832.328649 C944.704286,836.418649 950.894286,841.198649 954.654286,847.658649 C955.140073,848.530636 955.538669,849.448413 955.844286,850.398649 L1004.55429,850.398649 C1015.4897,844.863997 1025.62514,837.873801 1034.68429,829.618649 Z" id="Shape" fill="#487BB3" fill-rule="nonzero"></path>
                <path d="M233.84226,837.118618 C238.18226,833.828618 242.26226,829.938618 243.51226,825.208618 C244.85288,820.009712 241.878935,814.673327 236.75226,813.078618 C230.54226,811.138618 223.91226,814.648618 218.89226,818.198618 C213.87226,821.748618 208.10226,825.788618 201.52226,825.038618 C208.34226,820.118618 211.58226,812.118618 209.70226,804.848618 C209.382532,803.282025 208.590279,801.851084 207.43226,800.748618 C203.99226,797.748618 197.74226,799.038618 193.62226,801.398618 C180.50226,808.928618 176.84226,823.458618 176.77226,836.548618 C175.45226,831.828618 176.56226,826.908618 176.53226,822.068618 C176.50226,817.228618 174.87226,811.858618 169.87226,809.258618 C166.87226,807.718618 163.23226,807.418618 159.71226,807.308618 C153.81226,807.128618 147.25226,807.618618 143.22226,811.128618 C138.22226,815.498618 139.51226,822.838618 143.87226,827.648618 C148.23226,832.458618 154.87226,835.478618 160.94226,838.798618 C165.58226,841.328618 170.28226,844.288618 173.14226,848.288618 C173.504816,848.81989 173.806699,849.390114 174.04226,849.988618 L211.04226,849.988618 C219.143689,846.654798 226.801793,842.331999 233.84226,837.118618 Z" id="Shape" fill="#487BB3" fill-rule="nonzero"></path>
                <path d="M852.84226,837.118618 C857.18226,833.828618 861.26226,829.938618 862.51226,825.208618 C863.85288,820.009712 860.878935,814.673327 855.75226,813.078618 C849.54226,811.138618 842.91226,814.648618 837.89226,818.198618 C832.87226,821.748618 827.10226,825.788618 820.52226,825.038618 C827.34226,820.118618 830.58226,812.118618 828.70226,804.848618 C828.382532,803.282025 827.590279,801.851084 826.43226,800.748618 C822.99226,797.748618 816.74226,799.038618 812.62226,801.398618 C799.50226,808.928618 795.84226,823.458618 795.77226,836.548618 C794.45226,831.828618 795.56226,826.908618 795.53226,822.068618 C795.50226,817.228618 793.87226,811.858618 788.87226,809.258618 C785.87226,807.718618 782.23226,807.418618 778.71226,807.308618 C772.81226,807.128618 766.25226,807.618618 762.22226,811.128618 C757.22226,815.498618 758.51226,822.838618 762.87226,827.648618 C767.23226,832.458618 773.87226,835.478618 779.94226,838.798618 C784.58226,841.328618 789.28226,844.288618 792.14226,848.288618 C792.504816,848.81989 792.806699,849.390114 793.04226,849.988618 L830.04226,849.988618 C838.143689,846.654798 845.801793,842.331999 852.84226,837.118618 Z" id="Shape" fill="#487BB3" fill-rule="nonzero"></path>
                <g id="leaf" transform="translate(455.000000, 462.000000)">
                    <path d="M13.3856727,55.8508152 C5.63567273,62.7408152 -2.10432727,73.4908152 1.63567273,88.4908152 C9.02567273,118.010815 46.2656727,119.690815 56.8656727,148.670815 C60.0356727,157.350815 59.7256727,166.290815 58.0956727,173.740815 C54.9056727,188.310815 47.2556727,198.740815 41.5056727,210.970815 C35.7556727,223.200815 31.8556727,239.060815 36.6956727,256.330815 C41.3556727,272.950815 53.1856727,286.950815 65.1256727,295.380815 C77.0656727,303.810815 89.4356727,307.840815 101.655673,313.210815 C116.612317,319.882306 130.835339,328.0897 144.095673,337.700815 C149.965673,341.910815 155.865673,346.530815 160.965673,352.830815 C166.775673,360.010815 171.185673,368.940815 175.485673,377.690815 C177.615673,382.030815 177.045673,390.690815 181.885673,390.690815 C305.495673,390.270815 218.885673,390.210815 279.565673,390.500815 C290.355673,390.550815 305.795673,390.620815 327.905673,390.690815 C351.435673,390.770815 347.195673,348.310815 344.095673,320.690815 C339.695673,281.570815 306.815673,249.330815 290.435673,211.230815 C278.695673,183.930815 275.935673,154.470815 266.115673,126.480815 C251.965673,86.1508152 223.855673,52.0108152 194.455673,31.6608152 C165.055673,11.3108152 134.455673,3.33081518 105.335673,0.660815177 C93.0156727,-0.479184823 80.6056727,-0.679184823 70.2656727,4.54081518 C59.2656727,10.0908152 56.7256727,24.0608152 48.2656727,32.6708152 C38.5056727,42.7208152 23.9156727,46.4908152 13.3856727,55.8508152 Z" id="Shape" fill="#487BB3" fill-rule="nonzero"></path>
                    <path d="M13.7206727,55.8508152 C5.97067273,62.7408152 -1.76932727,73.4908152 1.97067273,88.4908152 C9.36067273,118.010815 46.6006727,119.690815 57.2006727,148.670815 C60.3706727,157.350815 60.0606727,166.290815 58.4306727,173.740815 C55.2406727,188.310815 47.5906727,198.740815 41.8406727,210.970815 C36.0906727,223.200815 32.1906727,239.060815 37.0306727,256.330815 C41.6906727,272.950815 53.5206727,286.950815 65.4606727,295.380815 C77.4006727,303.810815 89.7706727,307.840815 101.990673,313.210815 C116.947317,319.882306 131.170339,328.0897 144.430673,337.700815 C150.300673,341.910815 156.200673,346.530815 161.300673,352.830815 C167.110673,360.010815 171.520673,368.940815 175.820673,377.690815 C177.950673,382.030815 177.380673,390.690815 182.220673,390.690815 C305.830673,390.270815 219.220673,390.210815 279.900673,390.500815 C290.690673,390.550815 306.130673,390.620815 328.240673,390.690815 C351.770673,390.770815 347.530673,348.310815 344.430673,320.690815 C340.030673,281.570815 307.150673,249.330815 290.770673,211.230815 C279.030673,183.930815 276.270673,154.470815 266.450673,126.480815 C252.300673,86.1508152 224.190673,52.0108152 194.790673,31.6608152 C165.390673,11.3108152 134.790673,3.33081518 105.670673,0.660815177 C93.3506727,-0.479184823 80.9406727,-0.679184823 70.6006727,4.54081518 C59.6006727,10.0908152 57.0606727,24.0608152 48.6006727,32.6708152 C38.8406727,42.7208152 24.2506727,46.4908152 13.7206727,55.8508152 Z" id="Shape" fill="#FFFFFF" fill-rule="nonzero" opacity="0.2"></path>
                    <path d="M62,12 C62,12 193.66,202.72 279.44,390.83" id="Shape" stroke="#535461" stroke-width="2"></path>
                    <path d="M2,90 C2,90 119.51,91.41 174.55,191" id="Shape" stroke="#535461" stroke-width="2"></path>
                    <path d="M40,264.566708 C40,264.566708 185.7,205.886708 215.69,262.946708" id="Shape" stroke="#535461" stroke-width="2"></path>
                    <path d="M194.252467,31 C194.252467,31 164.252467,92.21 183.372467,205.84" id="Shape" stroke="#535461" stroke-width="2"></path>
                    <path d="M343.82,321.7 C343.82,321.7 321.82,361.36 242,313" id="Shape" stroke="#535461" stroke-width="2"></path>
                </g>
                <path d="M926.853818,669 C926.853818,669 948.963818,697.92 916.633818,741.57 C884.303818,785.22 857.633818,822.08 868.443818,849.29 C868.443818,849.29 917.203818,768.21 956.893818,767.08 C996.583818,765.95 970.503818,717.76 926.853818,669 Z" id="Shape" fill="#487BB3" fill-rule="nonzero"></path>
                <path d="M926.57,669 C928.498998,671.793784 930.0209,674.847689 931.09,678.07 C969.81,723.57 990.44,766.07 953.22,767.07 C918.55,768.07 876.96,830.07 867,845.72 C867.326746,846.92771 867.720693,848.116228 868.18,849.28 C868.18,849.28 916.94,768.2 956.63,767.07 C996.32,765.94 970.22,717.76 926.57,669 Z" id="Shape" fill="#000000" fill-rule="nonzero" opacity="0.1"></path>
                <path d="M968.1,705.515881 C968.1,715.695881 966.96,723.945881 965.55,723.945881 C964.14,723.945881 963,715.695881 963,705.515881 C963,695.335881 964.43,700.125881 965.83,700.125881 C967.23,700.125881 968.1,695.335881 968.1,705.515881 Z" id="Shape" fill="#FFD037" fill-rule="nonzero"></path>
                <path d="M981.446356,717.976375 C972.506356,722.846375 964.716356,725.796375 964.046356,724.556375 C963.376356,723.316375 970.046356,718.366375 979.046356,713.496375 C988.046356,708.626375 984.456356,712.166375 985.136356,713.406375 C985.816356,714.646375 990.376356,713.106375 981.446356,717.976375 Z" id="Shape" fill="#FFD037" fill-rule="nonzero"></path>
                <path d="M809.62087,669 C809.62087,669 787.51087,697.92 819.83087,741.57 C852.15087,785.22 878.83087,822.08 868.02087,849.29 C868.02087,849.29 819.26087,768.21 779.57087,767.08 C739.88087,765.95 765.97087,717.76 809.62087,669 Z" id="Shape" fill="#487BB3" fill-rule="nonzero"></path>
                <path d="M809.628116,669 C807.699117,671.793784 806.177215,674.847689 805.108116,678.07 C766.388116,723.57 745.758116,766.07 782.978116,767.07 C817.648116,768.07 859.238116,830.07 869.198116,845.72 C868.871369,846.92771 868.477422,848.116228 868.018116,849.28 C868.018116,849.28 819.258116,768.2 779.568116,767.07 C739.878116,765.94 765.978116,717.76 809.628116,669 Z" id="Shape" fill="#000000" fill-rule="nonzero" opacity="0.1"></path>
                <path d="M769,705.515881 C769,715.695881 770.14,723.945881 771.55,723.945881 C772.96,723.945881 774.1,715.695881 774.1,705.515881 C774.1,695.335881 772.67,700.125881 771.27,700.125881 C769.87,700.125881 769,695.335881 769,705.515881 Z" id="Shape" fill="#FFD037" fill-rule="nonzero"></path>
                <path d="M754.455944,717.976375 C763.395944,722.846375 771.185944,725.796375 771.855944,724.556375 C772.525944,723.316375 765.855944,718.366375 756.855944,713.496375 C747.855944,708.626375 751.445944,712.166375 750.765944,713.406375 C750.085944,714.646375 745.525944,713.106375 754.455944,717.976375 Z" id="Shape" fill="#FFD037" fill-rule="nonzero"></path>
                <path d="M203.716419,742 C203.716419,742 217.066419,759.45 197.556419,785.81 C178.046419,812.17 161.966419,834.41 168.466419,850.81 C168.466419,850.81 197.896419,801.87 221.856419,801.19 C245.816419,800.51 230.066419,771.46 203.716419,742 Z" id="Shape" fill="#FC6681" fill-rule="nonzero"></path>
                <path d="M203.89,742 C205.064036,743.692944 205.990067,745.545005 206.64,747.5 C230.01,774.96 242.47,800.59 220,801.23 C199.07,801.83 174,839.23 168,848.7 C168.196444,849.429329 168.43348,850.147114 168.71,850.85 C168.71,850.85 198.14,801.91 222.1,801.23 C246.06,800.55 230.24,771.46 203.89,742 Z" id="Shape" fill="#000000" fill-rule="nonzero" opacity="0.1"></path>
                <path d="M228.08,763.929518 C228.08,770.069518 227.39,775.049518 226.54,775.049518 C225.69,775.049518 225,770.049518 225,763.929518 C225,757.809518 225.86,760.679518 226.71,760.679518 C227.56,760.679518 228.08,757.789518 228.08,763.929518 Z" id="Shape" fill="#FFD037" fill-rule="nonzero"></path>
                <path d="M237.527319,771.186018 C232.137319,774.126018 227.427319,775.906018 227.027319,775.186018 C226.627319,774.466018 230.667319,771.446018 236.027319,768.506018 C241.387319,765.566018 239.297319,767.706018 239.697319,768.456018 C240.097319,769.206018 242.957319,768.246018 237.527319,771.186018 Z" id="Shape" fill="#FFD037" fill-rule="nonzero"></path>
                <path d="M132.95453,742 C132.95453,742 119.60453,759.45 139.11453,785.81 C158.62453,812.17 174.70453,834.41 168.20453,850.81 C168.20453,850.81 138.77453,801.87 114.81453,801.19 C90.8545296,800.51 106.60453,771.46 132.95453,742 Z" id="Shape" fill="#FC6681" fill-rule="nonzero"></path>
                <path d="M133.005269,742 C131.831233,743.692944 130.905202,745.545005 130.255269,747.5 C106.885269,774.96 94.4252687,800.59 116.895269,801.23 C137.825269,801.83 162.895269,839.23 168.895269,848.7 C168.698825,849.429329 168.461789,850.147114 168.185269,850.85 C168.185269,850.85 138.755269,801.91 114.795269,801.23 C90.8352687,800.55 106.655269,771.46 133.005269,742 Z" id="Shape" fill="#000000" fill-rule="nonzero" opacity="0.1"></path>
                <path d="M108,763.929518 C108,770.069518 108.69,775.049518 109.54,775.049518 C110.39,775.049518 111.08,770.049518 111.08,763.929518 C111.08,757.809518 110.22,760.679518 109.37,760.679518 C108.52,760.679518 108,757.789518 108,763.929518 Z" id="Shape" fill="#FFD037" fill-rule="nonzero"></path>
                <path d="M100.274701,771.186018 C105.664701,774.126018 110.374701,775.906018 110.774701,775.186018 C111.174701,774.466018 107.134701,771.446018 101.774701,768.506018 C96.4147008,765.566018 98.5047008,767.706018 98.1047008,768.456018 C97.7047008,769.206018 94.8547008,768.246018 100.274701,771.186018 Z" id="Shape" fill="#FFD037" fill-rule="nonzero"></path>
            </g>
        </g>
    </g>
</svg>