<?xml version="1.0" encoding="UTF-8"?>
<svg width="130px" height="242px" viewBox="0 0 130 242" version="1.1" xmlns="http://www.w3.org/2000/svg" xmlns:xlink="http://www.w3.org/1999/xlink">
    <!-- Generator: Sketch 50.2 (55047) - http://www.bohemiancoding.com/sketch -->
    <title>flower</title>
    <desc>Created with Sketch.</desc>
    <defs></defs>
    <g id="Website" stroke="none" stroke-width="1" fill="none" fill-rule="evenodd">
        <g id="Artboard" transform="translate(-106.000000, -552.000000)">
            <g id="flower" transform="translate(172.421136, 671.363248) rotate(10.000000) translate(-172.421136, -671.363248) translate(116.421136, 548.863248)">
                <path d="M15.9993141,154.068186 C15.9993141,154.068186 -43.0847026,189.678173 65.8301118,244.50256 C65.8301118,244.50256 89.8449541,200.001321 63.2935441,163.716618 C52.6352738,149.077886 32.7022745,144.714123 16.892366,153.558401 L15.9993141,154.068186 Z" id="Shape" fill="#487BB3" fill-rule="nonzero"></path>
                <path d="M65.2880307,243.472984 C65.2880307,243.472984 46.7740882,180.679456 68.7626782,134.461441 C77.9933832,115.067118 81.0552756,93.288799 76.792641,72.2376738 C74.7543707,62.2429551 71.8026893,52.4560662 67.9746911,43" id="Shape" stroke="#535461" stroke-width="1.5" opacity="0.442354911"></path>
                <path d="M81.906013,14.2598374 C81.906013,21.9590915 67.9548905,44.2471952 67.9548905,44.2471952 C67.9548905,44.2471952 54.0037681,21.9291042 54.0037681,14.2598374 C53.8863859,9.20505195 56.5187682,4.48323741 60.8823774,1.92138746 C65.2459866,-0.640462487 70.6562898,-0.640462487 75.019899,1.92138746 C79.3835082,4.48323741 82.0158905,9.20505195 81.8985083,14.2598374 L81.906013,14.2598374 Z" id="Shape" fill="#487BB3" fill-rule="nonzero" opacity="0.25"></path>
                <path d="M105.037328,57.2234271 C100.84974,63.6857027 77,74.8409998 77,74.8409998 C77,74.8409998 77.435269,48.5345902 81.6228571,42.0723146 C85.8944261,35.8309824 94.3685339,34.1302625 100.721696,38.2392532 C107.074858,42.3482438 108.989693,50.7681487 105.037328,57.2159303 L105.037328,57.2234271 Z" id="Shape" fill="#F8E71C" fill-rule="nonzero" opacity="0.25"></path>
                <path d="M104.102959,129.25552 C97.2212059,132.71906 71,130.327568 71,130.327568 C71,130.327568 84.6659462,107.837049 91.5476994,104.37351 C98.3972766,101.091721 106.616315,103.887737 110.03733,110.663454 C113.458345,117.439171 110.823726,125.703744 104.110464,129.25552 L104.102959,129.25552 Z" id="Shape" fill="#487BB3" fill-rule="nonzero" opacity="0.25"></path>
                <path d="M90.4500557,184.206962 C84.2587291,188.780034 58,190.849162 58,190.849162 C58,190.849162 67.665974,166.379478 73.8573006,161.798909 C77.8618208,158.790061 83.1740443,158.15766 87.7742404,160.142147 C92.3744366,162.126635 95.5559348,166.42316 96.1091155,171.398164 C96.6622962,176.373168 94.5021812,181.262403 90.4500557,184.206962 Z" id="Shape" fill="#F8E71C" fill-rule="nonzero" opacity="0.25"></path>
                <path d="M47.4642037,76.1694369 C52.9876174,81.5296771 78.7360311,87.0848351 78.7360311,87.0848351 C78.7360311,87.0848351 72.432135,61.5431031 66.9087213,56.1753661 C63.3620175,52.5650981 58.135535,51.1580169 53.2530803,52.4989746 C48.3706256,53.8399323 44.5988252,57.7183763 43.3982015,62.6324896 C42.1975779,67.5466029 43.7566487,72.7247879 47.4717083,76.16194 L47.4642037,76.1694369 Z" id="Shape" fill="#487BB3" fill-rule="nonzero" opacity="0.25"></path>
                <path d="M33.4318049,140.25552 C40.3135581,143.71906 66.5347641,141.327568 66.5347641,141.327568 C66.5347641,141.327568 52.8688179,118.837049 45.9870646,115.37351 C39.1374875,112.091721 30.9184495,114.887737 27.4974341,121.663454 C24.0764186,128.439171 26.7110379,136.703744 33.4243003,140.25552 L33.4318049,140.25552 Z" id="Shape" fill="#F8E71C" fill-rule="nonzero" opacity="0.25"></path>
                <path d="M27.5734897,205.075365 C33.7648162,209.648437 60.0235453,211.717565 60.0235453,211.717565 C60.0235453,211.717565 50.3575713,187.240384 44.1587401,182.667312 C37.9630537,178.165092 29.2921633,179.496433 24.7359139,185.649521 C20.1796645,191.802608 21.4430871,200.474846 27.565985,205.075365 L27.5734897,205.075365 Z" id="Shape" fill="#000000" fill-rule="nonzero" opacity="0.25"></path>
            </g>
        </g>
    </g>
</svg>