<?xml version="1.0" encoding="UTF-8"?>
<svg width="1010px" height="767px" viewBox="0 0 1010 767" version="1.1" xmlns="http://www.w3.org/2000/svg" xmlns:xlink="http://www.w3.org/1999/xlink">
    <!-- Generator: Sketch 50.2 (55047) - http://www.bohemiancoding.com/sketch -->
    <title>high-five</title>
    <desc>Created with Sketch.</desc>
    <defs>
        <linearGradient x1="50.0049089%" y1="100.006199%" x2="50.0049089%" y2="0.00039645933%" id="linearGradient-1">
            <stop stop-color="#808080" stop-opacity="0.25" offset="0%"></stop>
            <stop stop-color="#808080" stop-opacity="0.12" offset="54%"></stop>
            <stop stop-color="#808080" stop-opacity="0.1" offset="100%"></stop>
        </linearGradient>
    </defs>
    <g id="Website" stroke="none" stroke-width="1" fill="none" fill-rule="evenodd">
        <g id="Artboard-2" transform="translate(-1428.000000, -116.000000)">
            <g id="high-five" transform="translate(1427.000000, 115.000000)">
                <path d="M240.82,640.76 C232.32,639.9 223.44,638.98 215.39,641.23 C207.34,643.48 200.67,650.05 203.06,656.33 C208.4,670.33 239.74,660.58 254.19,670.15 C259.35,673.57 261.36,678.95 265.39,683.15 C271.91,689.97 283.12,693.15 293.94,694.9 C358.94,705.41 433.04,678.36 490.01,704.41 C508.46,712.85 523.01,726.28 543.24,731.91 C570.04,739.37 599.39,731.4 627.12,726.29 C661.70329,719.970345 696.955427,718.121868 732.01,720.79 C757.94,722.79 792.43,723.46 800.73,704.63 C806.07,692.52 794.77,679.04 779.77,673.31 C764.77,667.58 747.21,667.76 730.46,668.31 C698.13,669.47 665.79,671.81 633.46,670.67 C570.94,668.45 511.88,643.67 451,642.85 C380.1,641.99 312.05,647.94 240.82,640.76 Z" id="Shape" fill="#487BB3" fill-rule="nonzero" opacity="0.1"></path>
                <path d="M175.09,327.31 C165.09,337.42 164.48,352.92 164.48,352.92 C164.48,352.92 179.97,352.04 189.93,341.92 C199.89,331.8 200.55,316.31 200.55,316.31 C200.55,316.31 185.05,317.22 175.09,327.31 Z" id="Shape" fill="#487BB3" fill-rule="nonzero" opacity="0.1"></path>
                <path d="M215.34,77.55 C218.87,91.3 231.82,99.85 231.82,99.85 C231.82,99.85 239.05,86.12 235.52,72.37 C231.99,58.62 219.04,50.08 219.04,50.08 C219.04,50.08 211.77,63.81 215.34,77.55 Z" id="Shape" fill="#487BB3" fill-rule="nonzero" opacity="0.1"></path>
                <path d="M800.18,115.37 C790.18,125.48 789.56,140.98 789.56,140.98 C789.56,140.98 805.06,140.1 815.02,129.98 C824.98,119.86 825.63,104.36 825.63,104.36 C825.63,104.36 810.14,105.31 800.18,115.37 Z" id="Shape" fill="#487BB3" fill-rule="nonzero" opacity="0.1"></path>
                <path d="M495.39,257.05 C494.23,271.19 503.66,283.51 503.66,283.51 C503.66,283.51 514.99,272.9 516.15,258.75 C517.31,244.6 507.88,232.31 507.88,232.31 C507.88,232.31 496.55,242.9 495.39,257.05 Z" id="Shape" fill="#487BB3" fill-rule="nonzero" opacity="0.1"></path>
                <path d="M823.45,455.36 C822.29,469.5 831.72,481.82 831.72,481.82 C831.72,481.82 843.05,471.21 844.21,457.07 C845.37,442.93 835.94,430.61 835.94,430.61 C835.94,430.61 824.61,441.22 823.45,455.36 Z" id="Shape" fill="#487BB3" fill-rule="nonzero" opacity="0.1"></path>
                <path d="M587.55,97.38 C522.83,95.43 461.19,77.38 402.33,57.58 C343.47,37.78 285.17,15.89 222,5.41 C181.37,-1.33 134.9,-2.28 102.17,16.57 C70.66,34.7 60.48,66.01 55.01,95.06 C50.89,116.91 48.47,139.91 59.75,160.37 C67.59,174.58 81.49,186.52 91.11,200.12 C124.58,247.47 100.92,305.85 64.66,352.12 C47.66,373.81 27.91,394.49 14.78,417.58 C1.65,440.67 -4.42,467.11 7.07,490.65 C18.45,513.99 45.58,531.52 74.97,543.85 C134.66,568.85 204.97,576.06 273.58,580.12 C425.41,589.12 578.04,585.22 730.27,581.32 C786.61,579.88 843.19,578.42 898.61,570.88 C929.39,566.7 961.16,560.06 983.51,544.02 C1011.87,523.66 1018.9,489.19 999.89,463.66 C968.01,420.85 879.89,410.21 857.58,364.26 C845.32,338.97 857.91,310.8 875.74,287.34 C913.98,237.02 978.07,192.87 981.44,135.34 C983.76,95.84 952.95,56.28 905.31,37.59 C855.38,17.99 786.13,20.46 749.31,52.89 C711.36,86.24 644.7,99.09 587.55,97.38 Z" id="Shape" fill="#487BB3" fill-rule="nonzero" opacity="0.1"></path>
                <path d="M802.09,285.63 C799.294415,286.344781 797.011069,288.356655 795.95,291.04 L794.95,290.88 L791.22,290.28 C791.22,290.28 771.46,288.65 767.77,288.9 C764.08,289.15 761.77,285.51 761.77,285.51 L747.08,273.08 L745.94,272.08 C747.53,271.48 748.52,271.17 748.52,271.17 C748.52,271.17 709.1,222.17 700.6,221.22 C692.1,220.27 678.05,208.83 677.91,208.72 L677.76,207.94 C677.45,206.29 677.22,204.62 677.05,202.94 L679.14,204.22 C679.14,203.64 679.14,203.06 679.2,202.48 C679.512008,196.432712 681.552771,190.601961 685.08,185.68 C689.19,179.98 695.27,175.5 697.7,168.93 C698.668521,166.104656 699.105883,163.124488 698.99,160.14 C699.052109,154.763688 697.633669,149.473945 694.89,144.85 C692.061164,140.174546 687.365182,136.934683 681.99,135.95 C680.59,135.73 679.16,135.7 677.78,135.38 C669.57,133.45 666.55,122.44 658.57,119.74 C654.85,118.48 650.71,119.31 647.12,120.87 C643.53,122.43 640.28,124.67 636.77,126.4 C633.26,128.13 629.28,129.4 626.09,131.85 C625.76,132.1 625.41,132.4 625.09,132.71 L624.46,133.32 C623.143356,134.656326 621.99791,136.151117 621.05,137.77 L620.9,138.02 C620.8,138.19 620.71,138.37 620.62,138.55 C620.53,138.73 620.47,138.83 620.41,138.97 C620.35,139.11 620.25,139.29 620.18,139.45 L619.97,139.93 L619.79,140.39 C619.73,140.56 619.66,140.73 619.61,140.91 C619.56,141.09 619.51,141.2 619.47,141.35 L619.32,141.88 L619.23,142.31 C619.23,142.49 619.16,142.68 619.13,142.86 C619.1,143.04 619.13,143.13 619.13,143.26 C619.13,143.39 619.13,143.64 619.13,143.83 C619.13,144.02 619.13,144.08 619.13,144.2 C619.13,144.32 619.13,144.6 619.13,144.81 C619.13,145.02 619.13,145.01 619.13,145.11 C619.168739,145.403996 619.228899,145.694769 619.31,145.98 C619.85,147.82 621.71,149.7 623.13,151.34 C622.97,151.49 622.81,151.63 622.65,151.79 C615.829649,158.3628 611.977573,167.427995 611.98,176.9 C611.981594,178.982988 612.172378,181.061527 612.55,183.11 C610.732431,181.737155 608.778881,180.554302 606.72,179.58 C599.947538,176.333211 592.540378,174.625706 585.03,174.58 C572.78,174.44 555.57,169.84 555.57,169.84 C556.009419,170.679577 556.345212,171.56943 556.57,172.49 C555.82,172.06 555.01,171.6 554.12,171.12 C546.945311,167.267959 539.167759,164.664169 531.12,163.42 C531.12,163.42 526.02,164.13 525.34,153.42 C525.1064,150.073614 524.502717,146.763416 523.54,143.55 C520.612607,133.754916 518.584214,123.713366 517.48,113.55 L515.77,97.83 C515.77,97.83 523.47,56.83 518.84,39.35 C520.33,33.87 519.49,28.85 514.58,25.24 C495.21,10.98 475.67,66.48 475.67,66.48 L468.41,73.53 C466.547818,72.3162037 464.447463,71.5149321 462.25,71.18 C462.25,71.18 458.34,75.18 455.62,86.1 C454.18,91.89 444.34,101.56 435.44,109.35 C429.12,114.88 423.02,120.63 416.93,126.4 C412.43,130.68 402.4,136.8 380.52,140.26 C377.09,140.8 373.97,141.31 371.12,141.78 C371.848308,139.196146 372.21843,136.524535 372.22,133.84 C372.149976,119.922873 362.45009,107.910129 348.86,104.91 C348.959968,104.210219 348.959968,103.499781 348.86,102.8 C348.491122,101.294263 347.728381,99.9137367 346.65,98.8 C342.04,93.1 337.04,87.24 330.18,84.54 C327.351217,83.439723 324.321132,82.952319 321.29,83.11 L319.77,83.11 C319.46,83.11 319.16,83.11 318.85,83.11 C312.306655,83.4722612 306.236277,86.6349789 302.19,91.79 C299.73,95.08 298.25,98.98 296.13,102.49 C292.19,108.99 286.13,114 279.56,117.96 C275.61,120.35 271.46,122.41 267.73,125.12 C254.2,134.95 247.96,153.12 251.36,169.36 C252.86,176.49 256.03,183.51 255.18,190.74 C254.51,196.35 251.49,201.39 248.41,206.15 C245.33,210.91 242.07,215.75 240.85,221.26 C239.63,226.77 240.91,233.26 245.53,236.6 C247.23,237.82 249.29,238.6 250.74,240.08 C251.70454,241.220371 252.511739,242.484983 253.14,243.84 C258.097292,252.795741 266.506937,259.32975 276.41,261.92 C277.964187,262.317039 279.566746,262.492109 281.17,262.44 L281.34,262.44 L281.65,262.44 C285.32,262.67 289.08,261.69 290.31,258.44 C290.496627,257.70131 290.775485,256.989045 291.14,256.32 C291.485355,255.821138 292.000974,255.465539 292.59,255.32 C293.773031,255.590253 294.913582,256.020904 295.98,256.6 C301.102813,259.25696 306.706837,260.858595 312.46,261.31 C313.421358,261.386718 314.386564,261.403418 315.35,261.36 C317.352076,261.547268 319.37009,261.25947 321.24,260.52 C323.038329,259.607201 324.591711,258.276711 325.77,256.64 C326.03,256.31 326.27,255.96 326.52,255.64 C325.198791,263.626507 322.712281,271.375793 319.14,278.64 C319.14,278.64 313.14,288.64 313.57,298.72 C313.339063,302.392423 314.117145,306.058052 315.82,309.32 C315.82,309.32 315.99,308.88 316.34,308.19 C318.06,311.07 323.7,320.28 327.4,323.51 C327.58,333.02 327.54,344.93 326.35,347.38 C324.35,351.57 318.03,381.38 345.21,401.71 L351.48,415.44 L325.67,417.27 C323.06,416.91 289.31,412.37 289.14,418.98 C288.97,425.85 294.24,492.75 311.74,488.22 C328.05,484 322.67,464.49 321.86,461.87 L322.44,461.71 L321.8,461.53 L334.85,449.16 C335.096007,447.654062 334.736538,446.111942 333.85,444.87 L333.98,444.8 L365.5,446.21 L372.91,462.31 C372.91,462.31 385.48,481.43 375.29,497.52 C365.1,513.61 354.56,538.77 352.86,554.03 C351.47,566.51 342.23,578.77 338.92,582.81 C333.01,584.81 310.34,593.71 319.39,607.18 C329.75,622.6 363.39,651.95 376.99,650.94 C390.59,649.93 385.14,640.04 385.14,640.04 L373.77,629.02 C373.77,629.02 371.77,605.54 372.58,598.67 C373.02,595.1 370.39,592.53 367.58,591.44 C368.65,583.79 371.36,569.29 377.18,561.28 C385.33,550.04 411.5,500.58 411.5,500.58 C411.5,500.58 419.82,493.2 417.95,471.24 C417.2,462.38 416.78,454.6 416.54,448.45 L446.16,449.78 C446.16,449.78 477.93,446.59 456.35,412.55 C434.77,378.51 388.9,345.15 388.9,345.15 L388.49,324.08 C390.57,324.6 391.79,324.86 391.79,324.86 C391.79,324.86 391.61,324.1 391.31,322.74 L391.79,322.85 C391.79,322.85 385.16,294.16 383.12,271.35 L384.99,272.21 C404.7,295.02 417.99,275.74 417.99,275.74 C417.99,275.74 459.62,217.22 455.54,219.9 C454.686716,220.322922 453.699018,220.384202 452.8,220.07 L455.8,210.51 C455.8,210.51 468.09,191.73 450.25,181.17 C435.69,172.55 436.07,199.57 436.7,209.78 L435.98,209.17 C435.98,209.17 422.05,230.17 414.57,241.87 C407.09,253.57 400.81,245.87 400.81,245.87 L391.36,235.22 C392.912067,230.95332 393.674494,226.439748 393.61,221.9 C394.027201,215.49441 391.704395,209.21302 387.22,204.62 C380.01,197.27 377.9,190.15 377.68,184.67 C377.750903,181.830793 378.39372,179.035051 379.57,176.45 L428.68,150.45 C428.68,150.45 439.04,150.61 452.97,129.15 C461.99761,115.424903 471.933118,102.318986 482.71,89.92 C482.71,89.92 482.42,89.5 481.92,88.81 C482.42,88.22 482.71,87.9 482.71,87.9 C482.71,87.9 482.14,87.07 481.17,85.79 L488.74,77.06 C488.500907,81.0056441 488.470864,84.9611794 488.65,88.91 L492.57,102.16 L494.77,175.93 C494.77,175.93 492.39,182.93 507.69,190.02 C520.63,196.02 541.13,206.02 547.11,208.97 C546.89,209.51 546.76,209.8 546.76,209.8 L548.54,209.68 L548.8,209.8 C578.69,207.12 577.67,236.96 577.67,236.96 C577.67,236.96 579.67,297.66 570.54,318.79 C561.41,339.92 562.72,366.07 562.72,366.07 C562.72,366.07 563.63,361.61 568.72,367.44 C568.62,367.95 568.51,368.5 568.39,369.07 C565.47,383.7 559.39,414.82 558.26,427.44 C557.01549,438.940435 554.797537,450.314555 551.63,461.44 L548.63,517.27 L567.74,518.2 L567.53,520.2 C567.318078,522.257909 566.106225,524.079429 564.29,525.07 C557.75,528.62 542.29,541.07 543.53,579.49 L542.87,585.67 C541.811604,596.136123 538.637375,606.278006 533.54,615.48 C533.1,616.26 532.71,617.01 532.38,617.73 C532.430068,617.325592 532.612965,616.949246 532.9,616.66 C532.9,616.66 522.97,618.72 525.01,645.55 C527.05,672.38 530.11,677.07 534.19,677.4 C538.27,677.73 558.19,682.6 557.12,672.71 C556.05,662.82 555.12,640.85 556.44,637.5 C557.76,634.15 563.18,625.11 558.04,622.93 C559.53051,616.776206 560.25268,610.46142 560.19,604.13 C560.19,604.13 570.19,588.37 577.34,582.5 C584.49,576.63 588.34,566.66 590.93,553.83 C591.11,552.99 612,539.07 608.93,527.51 C608.39,525.51 608,523.74 607.7,522.14 C607.57,521.43 607.46,520.76 607.36,520.14 L607.73,520.14 L611.98,494.65 L611.98,519.47 L614.5,519.8 L614.41,521.8 L613.34,545.6 C613.146018,550.235517 612.130242,554.799734 610.34,559.08 C605.84,569.73 597.54,593.44 599.8,619.08 L599.56,641.94 C598.84,642.08 588.46,644.53 590.43,670.44 C592.43,697.26 595.52,701.96 599.6,702.29 C603.68,702.62 623.6,707.49 622.54,697.6 C621.48,687.71 620.54,665.74 621.86,662.39 C623.18,659.04 625.56,650.18 620.42,648 C620.446759,644.995326 621.179829,642.039065 622.56,639.37 C624.8,635.56 632.28,617.45 637.91,603.52 C643.665681,589.421198 646.865599,574.41037 647.36,559.19 C647.36,559.02 647.36,558.85 647.36,558.68 C647.511319,553.545246 648.613273,548.483041 650.61,543.75 C652.911759,538.454199 654.73243,532.962064 656.05,527.34 C656.19,526.67 656.3,526.02 656.4,525.34 L661.28,525.99 L677.94,453.89 C677.94,453.89 682.5,414.81 680.27,397.16 C680.18,396.43 680.08,395.76 679.96,395.11 L680.96,395.2 C680.96,395.2 684.36,386.49 683.34,349.26 C682.32,312.03 690.14,300.26 690.14,300.26 C694.36,286.88 699.02,282.4 701.74,280.9 C702.439939,280.453787 703.241578,280.192309 704.07,280.14 L716.68,294.57 L719,297.23 C719.004972,297.176783 719.004972,297.123217 719,297.07 L720,298.24 C719.923706,297.646587 719.896947,297.047853 719.92,296.45 C726.65,300.36 742.2,309.5 751.48,316.06 C763.58,324.61 766.9,323.61 777.48,322.72 C783.9,322.19 792.58,318.59 798.4,315.85 L798.93,315.6 C800.49604,316.435835 802.144952,317.106125 803.85,317.6 C803.85,317.6 820.93,332.07 822.58,305.66 C824.23,279.25 802.09,285.63 802.09,285.63 Z M359.09,593.19 C357.350891,592.672454 355.674106,591.964851 354.09,591.08 L359.09,593.19 Z M332.35,307.31 L332.41,311.06 L332.15,311.18 C332.23,309.86 332.29,308.56 332.35,307.31 Z M599.49,642.03 L599.49,643.49 C599.106406,643.078921 599.106406,642.441079 599.49,642.03 Z" id="Shape" fill="url(#linearGradient-1)" fill-rule="nonzero"></path>
                <rect id="Rectangle-path" fill="#FF7590" fill-rule="nonzero" x="625.01" y="202.63" width="29" height="30.5"></rect>
                <path d="M589.77,554.8 C587.22,567.55 583.44,577.46 576.44,583.3 C569.44,589.14 559.61,604.8 559.61,604.8 C559.44,625.63 553.94,631.96 553.94,631.96 L548.27,633.46 L534.27,633.46 C534.27,633.46 531.77,626.46 531.27,622.3 C531.1,620.91 532.09,618.58 533.47,616.08 C538.474405,606.91614 541.586016,596.83996 542.62,586.45 L543.27,580.3 C542.09,542.13 557.27,529.74 563.64,526.21 C565.425953,525.213612 566.610307,523.405323 566.81,521.37 L567.94,510.46 L605.6,512.31 C605.6,512.31 604.8,515.63 606.23,523.31 C606.52,524.9 606.91,526.67 607.43,528.64 C610.43,540.13 589.93,553.96 589.77,554.8 Z" id="Shape" fill="#8E5362" fill-rule="nonzero"></path>
                <path d="M653.63,528.44 C652.338171,534.023316 650.55454,539.481292 648.3,544.75 C646.338194,549.460419 645.253714,554.489696 645.1,559.59 C645.1,559.76 645.1,559.93 645.1,560.1 C644.613223,575.216104 641.475567,590.129279 635.83,604.16 C630.3,618 622.97,636.01 620.77,639.8 C617.11,646.13 619.27,656.8 619.27,656.8 L598.07,655.3 L598.44,619.63 C596.23,594.16 604.37,570.63 608.78,560 C610.5619,555.748536 611.577553,551.215337 611.78,546.61 L612.78,522.95 L613.09,515.95 C613.09,515.95 650.57,510.62 653.73,519.12 C654.6,521.37 654.39,524.72 653.63,528.44 Z" id="Shape" fill="#8E5362" fill-rule="nonzero"></path>
                <path d="M606.23,523.31 L566.77,521.37 L567.9,510.46 L605.6,512.31 C605.6,512.31 604.77,515.62 606.23,523.31 Z" id="Shape" fill="#000000" fill-rule="nonzero" opacity="0.1"></path>
                <path d="M653.63,528.44 L612.77,522.95 L613.08,515.95 C613.08,515.95 650.56,510.62 653.72,519.12 C654.6,521.37 654.39,524.72 653.63,528.44 Z" id="Shape" fill="#000000" fill-rule="nonzero" opacity="0.1"></path>
                <path d="M675.1,455.46 L658.77,527.13 L610.44,520.63 L610.44,495.96 L606.26,521.31 L548.26,518.47 L551.26,462.97 C554.368088,451.894754 556.542366,440.578472 557.76,429.14 C558.89,416.6 564.83,385.67 567.7,371.14 C568.7,366.35 569.26,363.33 569.26,363.33 C569.26,363.33 668.6,383.99 675.1,391.49 C676.21,392.77 676.94,395.49 677.39,399.1 C679.57,416.62 675.1,455.46 675.1,455.46 Z" id="Shape" fill="#BDD2E8" fill-rule="nonzero"></path>
                <path d="M559.1,460.13 C559.1,460.13 598.2,439.63 607.73,443.96 L559.1,460.13 Z" id="Shape" fill="#000000" fill-rule="nonzero" opacity="0.1"></path>
                <path d="M580.43,393.13 C580.43,393.13 612.93,417.8 613.93,424.46 L580.43,393.13 Z" id="Shape" fill="#000000" fill-rule="nonzero" opacity="0.1"></path>
                <path d="M571.6,478.13 C571.6,478.13 595.1,477.13 602.6,483.13 L571.6,478.13 Z" id="Shape" fill="#000000" fill-rule="nonzero" opacity="0.1"></path>
                <path d="M613.93,451.75 C613.93,451.75 625.1,488.31 620.26,498.31 C615.42,508.31 610.43,495.97 610.43,495.97 L613.93,451.75 Z" id="Shape" fill="#000000" fill-rule="nonzero" opacity="0.1"></path>
                <path d="M598.24,642.31 C598.24,642.31 587.24,643.98 589.24,670.64 C591.24,697.3 594.24,701.98 598.24,702.31 C602.24,702.64 621.74,707.48 620.74,697.64 C619.74,687.8 618.74,665.98 620.07,662.64 C621.4,659.3 623.7,650.51 618.66,648.34 L617.57,653.48 C617.57,653.48 606.9,643.64 600.57,650.81 C600.298136,649.062094 599.859466,647.344249 599.26,645.68 C598.63,644.12 597.25,643.31 598.24,642.31 Z" id="Shape" fill="#494457" fill-rule="nonzero"></path>
                <path d="M799.55,315.13 C799.55,315.13 797.03,316.54 793.33,318.3 C787.62,321.02 779.11,324.6 772.81,325.13 C762.43,326.01 759.18,327.01 747.31,318.51 C738.2,311.99 722.95,302.9 716.31,299.02 L713.42,297.31 L713.13,297.14 L713.13,297.02 L718.64,281.88 L738.14,271.51 L742.98,275.66 L757.39,288.01 C757.39,288.01 759.64,291.63 763.27,291.38 C766.9,291.13 786.27,292.75 786.27,292.75 L789.93,293.35 L797.64,294.63 L799.55,315.13 Z" id="Shape" fill="#8E5362" fill-rule="nonzero"></path>
                <path d="M799.55,315.13 C799.55,315.13 797.03,316.54 793.33,318.3 C789.42,316.3 784.56,312.55 786.43,306.38 C788.12,300.83 788.58,296.5 789.97,293.38 L797.68,294.66 L799.55,315.13 Z" id="Shape" fill="#000000" fill-rule="nonzero" opacity="0.1"></path>
                <path d="M796.93,288.13 C796.93,288.13 818.68,281.88 817.06,308.13 C815.44,334.38 798.68,320.01 798.68,320.01 C798.68,320.01 784.43,316.26 787.43,306.38 C790.43,296.5 789.56,290.51 796.93,288.13 Z" id="Shape" fill="#8E5362" fill-rule="nonzero"></path>
                <path d="M571.43,203.13 L548.77,212.65 L548.42,212.8 L548.17,212.68 L546.76,211.97 C540.9,209.05 520.76,199.06 508.09,193.13 C493.09,186.13 495.42,179.13 495.42,179.13 L493.26,105.8 L489.42,92.63 C489.42,92.63 486.71,47.99 508.42,36.8 C530.13,25.61 516.09,101.46 516.09,101.46 L517.77,117.22 C518.85503,127.301921 520.846417,137.26555 523.72,146.99 C524.658393,150.187039 525.248486,153.47614 525.48,156.8 C526.15,167.46 531.15,166.75 531.15,166.75 C539.047442,167.990111 546.672255,170.58133 553.69,174.41 C556.296208,175.785939 558.790518,177.364109 561.15,179.13 L571.43,203.13 Z" id="Shape" fill="#8E5362" fill-rule="nonzero"></path>
                <path d="M652.1,238.13 L632.76,236.13 C632.76,236.13 638.46,227.65 640.97,219.4 C641.325015,218.268855 641.608903,217.116603 641.82,215.95 C642.4,212.68 642.25,209.65 640.76,207.46 C635.1,199.13 674.43,187.46 674.43,187.46 C673.95203,192.070236 673.808322,196.709018 674,201.34 C674.112328,204.562491 674.446451,207.773421 675,210.95 C676.19,217.42 678.56,223.51 683.08,226.63 C695.43,235.13 652.1,238.13 652.1,238.13 Z" id="Shape" fill="#8E5362" fill-rule="nonzero"></path>
                <path d="M652.1,238.13 L632.76,236.13 C632.76,236.13 638.46,227.65 640.97,219.4 C643.2,222.57 643.97,222.5 647.1,223.13 C647.1,223.13 666.62,226.02 675.02,210.95 C676.21,217.42 678.58,223.51 683.1,226.63 C695.43,235.13 652.1,238.13 652.1,238.13 Z" id="Shape" fill="#000000" fill-rule="nonzero" opacity="0.1"></path>
                <path d="M716.35,299.02 C716.327179,299.614525 716.353938,300.209919 716.43,300.8 L713.43,297.31 L713.18,297.02 L718.69,281.88 L738.19,271.51 L743.03,275.66 C736.1,278.31 716.66,286.72 716.35,299.02 Z" id="Shape" fill="#000000" fill-rule="nonzero" opacity="0.1"></path>
                <path d="M571.43,203.13 L548.77,212.65 L548.17,212.65 L546.42,212.77 C546.42,212.77 546.55,212.48 546.76,211.94 C548.65,207.35 557.42,184.94 553.63,174.38 C556.236208,175.755939 558.730518,177.334109 561.09,179.1 L571.43,203.13 Z" id="Shape" fill="#000000" fill-rule="nonzero" opacity="0.1"></path>
                <path d="M677.39,399.07 C668.57,398.28 580.33,390.12 572.1,377.13 C570.799074,375.013583 569.327518,373.006916 567.7,371.13 C568.7,366.34 569.26,363.32 569.26,363.32 C569.26,363.32 668.6,383.98 675.1,391.48 C676.21,392.74 676.94,395.45 677.39,399.07 Z" id="Shape" fill="#000000" fill-rule="nonzero" opacity="0.1"></path>
                <path d="M647.1,224.13 C647.1,224.13 666.83,227.05 675.17,211.72 C675.17,211.72 689.1,223.16 697.43,224.14 C705.76,225.12 744.43,273.8 744.43,273.8 C744.43,273.8 713.43,283.8 715.43,299.8 L700.76,282.8 C700.76,282.8 693.43,282.46 687.1,302.8 C687.1,302.8 679.43,314.46 680.43,351.46 C681.43,388.46 678.1,397.13 678.1,397.13 C678.1,397.13 580.76,388.8 572.1,375.13 C563.44,361.46 562.1,368.13 562.1,368.13 C562.1,368.13 560.76,342.13 569.76,321.13 C578.76,300.13 576.76,239.8 576.76,239.8 C576.76,239.8 577.76,210.13 548.43,212.8 C548.43,212.8 560.76,184.13 555.1,173.13 C555.1,173.13 571.97,177.71 583.99,177.85 C591.36763,177.90734 598.638814,179.615795 605.27,182.85 C608.88,184.62 612.21,186.85 614.1,189.51 C619.76,197.51 629.1,193.85 629.1,193.85 C631.454138,201.170612 634.362553,208.301244 637.8,215.18 C638.19,215.91 638.58,216.63 638.98,217.32 C639.56,218.32 640.16,219.32 640.76,220.14 C643.16,223.57 643.84,223.48 647.1,224.13 Z" id="Shape" fill="#FF7590" fill-rule="nonzero"></path>
                <path d="M674,201.31 C672.936544,202.819814 671.752682,204.241117 670.46,205.56 C663.889882,212.302208 654.874022,216.103294 645.46,216.1 C644.254408,216.100637 643.049549,216.040561 641.85,215.92 C642.43,212.65 642.28,209.62 640.79,207.43 C635.13,199.1 674.46,187.43 674.46,187.43 C673.97202,192.039511 673.818285,196.678295 674,201.31 Z" id="Shape" fill="#000000" fill-rule="nonzero" opacity="0.1"></path>
                <path d="M680.43,180.13 C680.43,199.459966 664.759966,215.13 645.43,215.13 C626.100034,215.13 610.43,199.459966 610.43,180.13 C610.43,160.800034 626.100034,145.13 645.43,145.13 C654.723175,145.095289 663.645744,148.771631 670.217057,155.342943 C676.788369,161.914256 680.464711,170.836825 680.43,180.13 Z" id="Shape" fill="#8E5362" fill-rule="nonzero"></path>
                <path d="M697.77,260.13 L698.49,283.55 C698.49,283.55 708.94,275.13 709.27,267.13 C709.6,259.13 697.77,260.13 697.77,260.13 Z" id="Shape" fill="#000000" fill-rule="nonzero" opacity="0.1"></path>
                <path d="M613.43,283.55 C613.43,283.55 640.93,321.3 656.93,325.13 C672.93,328.96 619.43,295.79 613.43,283.55 Z" id="Shape" fill="#000000" fill-rule="nonzero" opacity="0.1"></path>
                <path d="M642.6,287.48 C642.6,287.48 657.93,304.8 668.93,306.96 L642.6,287.48 Z" id="Shape" fill="#000000" fill-rule="nonzero" opacity="0.1"></path>
                <path d="M588.6,331.13 C588.6,331.13 616.6,358.63 632.6,360.3 L588.6,331.13 Z" id="Shape" fill="#000000" fill-rule="nonzero" opacity="0.1"></path>
                <path d="M680.43,180.13 C680.434783,189.279526 676.843268,198.064371 670.43,204.59 L666.59,202.2 C665.10452,201.426707 663.822977,200.313067 662.85,198.95 C661.58,196.83 661.95,194.17 662.05,191.7 C662.26,186.47 660.82,180.81 656.73,177.54 C650.1,172.23 639.47,175.17 632.73,169.96 C631.106949,168.581756 629.677374,166.990723 628.48,165.23 L622.16,156.76 C621.78,156.26 621.32,155.76 620.83,155.17 C630.891253,145.276332 645.909636,142.392131 658.920032,147.855012 C671.930428,153.317892 680.38786,166.059254 680.37,180.17 L680.43,180.13 Z" id="Shape" fill="#000000" fill-rule="nonzero" opacity="0.1"></path>
                <path d="M624.34,135.31 C627.47,132.92 631.29,131.66 634.81,129.9 C638.33,128.14 641.44,125.9 644.96,124.4 C648.48,122.9 652.55,122.02 656.2,123.27 C664.03,125.96 666.99,136.9 675.04,138.82 C676.4,139.14 677.8,139.17 679.17,139.38 C684.459301,140.382724 689.064957,143.604862 691.82,148.23 C694.507008,152.84385 695.889612,158.101201 695.82,163.44 C695.931285,166.403029 695.500901,169.361493 694.55,172.17 C692.17,178.7 686.2,183.17 682.17,188.82 C678.355158,194.226813 676.33031,200.693039 676.38,207.31 L666.62,201.24 C665.132356,200.469888 663.850128,199.355653 662.88,197.99 C661.61,195.87 661.98,193.21 662.08,190.74 C662.29,185.51 660.85,179.85 656.77,176.58 C650.13,171.27 639.5,174.21 632.77,169 C631.146949,167.621756 629.717374,166.030723 628.52,164.27 L622.2,155.8 C620.83,153.96 618.2,151.67 617.6,149.43 C616.27,144.61 620.82,138.02 624.34,135.31 Z" id="Shape" fill="#362133" fill-rule="nonzero"></path>
                <path d="M667.71,200.11 C666.222356,199.339888 664.940128,198.225653 663.97,196.86 C662.7,194.74 663.07,192.08 663.17,189.61 C663.38,184.38 661.94,178.72 657.85,175.45 C651.22,170.14 640.59,173.08 633.85,167.87 C632.226949,166.491756 630.797374,164.900723 629.6,163.14 L623.28,154.67 C621.9,152.83 619.28,150.54 618.68,148.3 C617.59,144.44 620.35,139.41 623.3,136.19 C619.99,139.25 616.36,145.06 617.59,149.39 C618.23,151.63 620.82,153.92 622.19,155.76 L628.51,164.23 C629.707374,165.990723 631.136949,167.581756 632.76,168.96 C639.47,174.17 650.1,171.23 656.76,176.54 C660.84,179.81 662.28,185.47 662.07,190.7 C661.97,193.17 661.6,195.83 662.87,197.95 C663.840128,199.315653 665.122356,200.429888 666.61,201.2 L676.37,207.27 C676.37,206.69 676.37,206.11 676.43,205.54 L667.71,200.11 Z" id="Shape" fill="#000000" fill-rule="nonzero" opacity="0.1"></path>
                <path d="M532.84,617.25 C532.84,617.25 523.1,619.25 525.1,645.96 C527.1,672.67 530.1,677.3 534.1,677.63 C538.1,677.96 557.6,682.8 556.6,672.96 C555.6,663.12 554.6,641.3 555.93,637.96 C557.26,634.62 562.54,625.65 557.5,623.48 L553.43,628.8 C553.43,628.8 542.76,618.96 536.43,626.13 C536.43,626.13 530.51,619.58 532.84,617.25 Z" id="Shape" fill="#494457" fill-rule="nonzero"></path>
                <path d="M539,633.81 C541.11,634.81 543.08,636.03 545.18,637.03 C547.248062,638.112953 549.556009,638.656404 551.89,638.61 C552.880883,638.591438 553.840293,638.258796 554.63,637.66" id="Shape" fill="#000000" fill-rule="nonzero" opacity="0.1"></path>
                <path d="M603.1,659.93 C604.35,661.08 605.32,662.55 606.73,663.5 C608.73,664.84 611.29,664.92 613.73,664.95 C614.13613,664.986732 614.545408,664.935573 614.93,664.8 C615.365826,664.562976 615.734075,664.218818 616,663.8 L617.31,662.11" id="Shape" fill="#000000" fill-rule="nonzero" opacity="0.1"></path>
                <path d="M438.77,216.46 C438.77,216.46 434.27,173.8 451.77,184.3 C469.27,194.8 457.22,213.46 457.22,213.46 L453.11,226.63 L438.77,216.46 Z" id="Shape" fill="#FFC1C7" fill-rule="nonzero"></path>
                <path d="M466.77,80.13 L476.77,70.31 C476.77,70.31 495.94,15.14 514.94,29.31 C533.94,43.48 490.86,79.31 490.86,79.31 L479.44,92.64 L466.77,80.13 Z" id="Shape" fill="#FFC1C7" fill-rule="nonzero"></path>
                <path d="M320.43,298.31 L319.93,309.64 C319.93,309.64 329.1,325.64 332.93,326.81 C336.76,327.98 336.43,292.97 336.43,292.97 L320.43,298.31 Z" id="Shape" fill="#FF5374" fill-rule="nonzero"></path>
                <path d="M320.43,298.31 L319.93,309.64 C319.93,309.64 329.1,325.64 332.93,326.81 C336.76,327.98 336.43,292.97 336.43,292.97 L320.43,298.31 Z" id="Shape" fill="#000000" fill-rule="nonzero" opacity="0.1"></path>
                <polygon id="Shape" fill="#FFC1C7" fill-rule="nonzero" points="335.76 285.87 336.44 327.63 382.93 327.63 379.43 303.3"></polygon>
                <path d="M346.6,390.13 L348.77,403.46 L375.94,463.8 C375.94,463.8 388.27,482.8 378.27,498.8 C368.27,514.8 357.94,539.8 356.27,554.96 C354.6,570.12 341.44,584.96 341.44,584.96 L370.11,597.13 C370.11,597.13 372.11,573.3 380.11,562.13 C388.11,550.96 413.77,501.8 413.77,501.8 C413.77,501.8 421.94,494.46 420.11,472.63 C418.28,450.8 418.44,435.46 418.44,435.46 L415.61,400.63 L346.6,390.13 Z" id="Shape" fill="#575988" fill-rule="nonzero"></path>
                <path d="M346.6,390.13 L348.77,403.46 L375.94,463.8 C375.94,463.8 388.27,482.8 378.27,498.8 C368.27,514.8 357.94,539.8 356.27,554.96 C354.6,570.12 341.44,584.96 341.44,584.96 L370.11,597.13 C370.11,597.13 372.11,573.3 380.11,562.13 C388.11,550.96 413.77,501.8 413.77,501.8 C413.77,501.8 421.94,494.46 420.11,472.63 C418.28,450.8 418.44,435.46 418.44,435.46 L415.61,400.63 L346.6,390.13 Z" id="Shape" fill="#000000" fill-rule="nonzero" opacity="0.1"></path>
                <path d="M343.93,583.13 C343.93,583.13 313.26,592.46 323.43,607.8 C333.6,623.14 366.6,652.3 379.93,651.3 C393.26,650.3 387.93,640.46 387.93,640.46 L376.76,629.46 C376.76,629.46 374.76,606.13 375.6,599.3 C376.44,592.47 366.1,589.3 364.76,593.3 C363.42,597.3 343.93,583.13 343.93,583.13 Z" id="Shape" fill="#C4747B" fill-rule="nonzero"></path>
                <path d="M363.26,309.89 L338.95,312.58 C334.446575,313.077326 331.074293,316.940676 331.19,321.47 C331.45,331.19 331.62,346.65 330.26,349.47 C328.26,353.64 322.1,383.31 348.76,403.47 L384.93,414.97 L326.93,419.14 L328.77,451.31 L337.77,446.31 L447.77,451.31 C447.77,451.31 478.94,448.14 457.77,414.31 C436.6,380.48 391.61,347.31 391.61,347.31 L391.11,320.97 L387.77,313.31 L363.26,309.89 Z" id="Shape" fill="#575988" fill-rule="nonzero"></path>
                <path d="M393.43,414.46 C401.400073,410.980249 410.459927,410.980249 418.43,414.46 L393.43,414.46 Z" id="Shape" fill="#000000" fill-rule="nonzero" opacity="0.1"></path>
                <path d="M329.77,418.96 C329.77,418.96 293.94,413.8 293.77,420.63 C293.6,427.46 298.77,493.96 315.94,489.46 C333.11,484.96 325.77,462.96 325.77,462.96 L338.61,450.63 C338.61,450.63 339.94,443.8 331.44,444.46 L329.77,418.96 Z" id="Shape" fill="#C4747B" fill-rule="nonzero"></path>
                <path d="M389.1,232.46 L403.26,248.63 C403.26,248.63 409.43,256.3 416.76,244.63 C424.09,232.96 437.76,212.13 437.76,212.13 C437.76,212.13 452.93,225.46 456.93,222.8 C460.93,220.14 420.1,278.31 420.1,278.31 C420.1,278.31 407.1,297.47 387.76,274.81 L382.1,272.14 L389.1,232.46 Z" id="Shape" fill="#FF5374" fill-rule="nonzero"></path>
                <path d="M389.1,232.46 L403.26,248.63 C403.26,248.63 409.43,256.3 416.76,244.63 C424.09,232.96 437.76,212.13 437.76,212.13 C437.76,212.13 452.93,225.46 456.93,222.8 C460.93,220.14 420.1,278.31 420.1,278.31 C420.1,278.31 407.1,297.47 387.76,274.81 L382.1,272.14 L389.1,232.46 Z" id="Shape" fill="#000000" fill-rule="nonzero" opacity="0.1"></path>
                <circle id="Oval" fill="#FFC1C7" fill-rule="nonzero" cx="345.78" cy="137.25" r="29.5"></circle>
                <path d="M345.77,153.13 C345.77,153.13 320.42,165.13 323.42,186.13 C326.42,207.13 326.92,233.63 326.92,233.63 C326.92,233.63 338.43,250.63 323.17,283.13 C323.17,283.13 313.42,299.63 319.92,311.63 C319.92,311.63 327.13,292.63 345.77,306.63 C364.41,320.63 394.42,327.13 394.42,327.13 C394.42,327.13 378.92,259.13 388.42,249.63 C388.42,249.63 404.92,225.13 389.92,209.63 C374.92,194.13 382.42,179.63 382.42,179.63 L430.59,153.8 C430.59,153.8 440.75,153.96 454.42,132.63 C463.269883,118.999026 473.014629,105.970398 483.59,93.63 C483.59,93.63 473.25,78.13 463.59,76.96 C463.59,76.96 459.75,80.96 457.09,91.8 C455.67,97.55 446.02,107.16 437.29,114.91 C431.09,120.41 425.11,126.12 419.14,131.91 C414.72,136.16 404.88,142.24 383.42,145.68 C348.1,151.31 345.77,153.13 345.77,153.13 Z" id="Shape" fill="#000000" fill-rule="nonzero" opacity="0.1"></path>
                <path d="M345.77,151.13 C345.77,151.13 320.42,163.13 323.42,184.13 C326.42,205.13 326.92,231.63 326.92,231.63 C326.92,231.63 338.43,248.63 323.17,281.13 C323.17,281.13 313.42,297.63 319.92,309.63 C319.92,309.63 327.13,290.63 345.77,304.63 C364.41,318.63 394.42,325.13 394.42,325.13 C394.42,325.13 378.92,257.13 388.42,247.63 C388.42,247.63 404.92,223.13 389.92,207.63 C374.92,192.13 382.42,177.63 382.42,177.63 L430.59,151.8 C430.59,151.8 440.75,151.96 454.42,130.63 C463.269883,116.999026 473.014629,103.970398 483.59,91.63 C483.59,91.63 473.25,76.13 463.59,74.96 C463.59,74.96 459.75,78.96 457.09,89.8 C455.67,95.55 446.02,105.16 437.29,112.91 C431.09,118.41 425.11,124.12 419.14,129.91 C414.72,134.16 404.88,140.24 383.42,143.68 C348.1,149.31 345.77,151.13 345.77,151.13 Z" id="Shape" fill="#FF5374" fill-rule="nonzero"></path>
                <path d="M367.6,276.8 C367.6,276.8 387.26,305.8 387.760025,310.8 C387.77,310.8 384.77,279.63 367.6,276.8 Z" id="Shape" fill="#000000" fill-rule="nonzero" opacity="0.1"></path>
                <path d="M341.77,179.13 C341.77,179.13 355.48,195.63 375.29,181.8 C364.224887,185.557201 352.100809,184.591471 341.77,179.13 Z" id="Shape" fill="#000000" fill-rule="nonzero" opacity="0.1"></path>
                <path d="M352.4,106.4 C352.040567,104.901337 351.296004,103.522515 350.24,102.4 C345.72,96.73 340.81,90.91 334.08,88.22 C324.910381,84.7942054 314.578521,87.7369007 308.59,95.48 C306.17,98.74 304.73,102.62 302.64,106.11 C298.78,112.57 292.81,117.55 286.39,121.49 C282.52,123.86 278.44,125.91 274.79,128.6 C261.52,138.37 255.39,156.43 258.73,172.6 C260.2,179.68 263.31,186.66 262.47,193.85 C261.82,199.43 258.85,204.43 255.84,209.17 C252.83,213.91 249.62,218.71 248.42,224.17 C247.22,229.63 248.48,236.1 253.01,239.41 C254.68,240.63 256.69,241.41 258.12,242.87 C259.06634,244.006489 259.856659,245.264274 260.47,246.61 C265.284198,255.491432 273.540432,262.000947 283.3,264.61 C287.6,265.74 293.37,265.33 294.94,261.17 C295.120264,260.435424 295.392409,259.726502 295.75,259.06 C297.17,257.06 300.3,258.18 302.5,259.33 C307.508297,261.9481 312.995581,263.523185 318.63,263.96 C320.864722,264.254708 323.137673,263.983054 325.24,263.17 C327.015012,262.268629 328.542706,260.946916 329.69,259.32 C334.95,252.47 336.46,243.52 337.36,234.93 C337.95,229.34 338.36,223.65 337.29,218.13 C335.59,209.27 330.2,200.99 331,192.01 C331.85,182.41 339.64,174.56 340.83,165.01 C341.434898,160.009905 340.18614,154.961509 337.32,150.82 C336.262405,149.541101 335.365707,148.137282 334.65,146.64 C333.951616,145.09053 334.2686,143.271838 335.45,142.05 C336.083229,141.603879 336.786114,141.265954 337.53,141.05 C343.96,138.58 347.39,132.14 347.85,125.55 C348.03,123.05 347.85,120.75 348.54,118.31 C349.64,114.54 352.97,110.42 352.4,106.4 Z" id="Shape" fill="#000000" fill-rule="nonzero" opacity="0.1"></path>
                <path d="M350.4,106.4 C350.040567,104.901337 349.296004,103.522515 348.24,102.4 C343.72,96.73 338.81,90.91 332.08,88.22 C322.910381,84.7942054 312.578521,87.7369007 306.59,95.48 C304.17,98.74 302.73,102.62 300.64,106.11 C296.78,112.57 290.81,117.55 284.39,121.49 C280.52,123.86 276.44,125.91 272.79,128.6 C259.52,138.37 253.39,156.43 256.73,172.6 C258.2,179.68 261.31,186.66 260.47,193.85 C259.82,199.43 256.85,204.43 253.84,209.17 C250.83,213.91 247.62,218.71 246.42,224.17 C245.22,229.63 246.48,236.1 251.01,239.41 C252.68,240.63 254.69,241.41 256.12,242.87 C257.06634,244.006489 257.856659,245.264274 258.47,246.61 C263.284198,255.491432 271.540432,262.000947 281.3,264.61 C285.6,265.74 291.37,265.33 292.94,261.17 C293.120264,260.435424 293.392409,259.726502 293.75,259.06 C295.17,257.06 298.3,258.18 300.5,259.33 C305.508297,261.9481 310.995581,263.523185 316.63,263.96 C318.864722,264.254708 321.137673,263.983054 323.24,263.17 C325.015012,262.268629 326.542706,260.946916 327.69,259.32 C332.95,252.47 334.46,243.52 335.36,234.93 C335.95,229.34 336.36,223.65 335.29,218.13 C333.59,209.27 328.2,200.99 329,192.01 C329.85,182.41 337.64,174.56 338.83,165.01 C339.434898,160.009905 338.18614,154.961509 335.32,150.82 C334.262405,149.541101 333.365707,148.137282 332.65,146.64 C331.951616,145.09053 332.2686,143.271838 333.45,142.05 C334.083229,141.603879 334.786114,141.265954 335.53,141.05 C341.96,138.58 345.39,132.14 345.85,125.55 C346.03,123.05 345.85,120.75 346.54,118.31 C347.64,114.54 350.97,110.42 350.4,106.4 Z" id="Shape" fill="#BB7684" fill-rule="nonzero"></path>
                <g id="Group" opacity="0.1" transform="translate(283.000000, 86.000000)" fill="#000000" fill-rule="nonzero">
                    <path d="M7.77,173.01 C7.41293204,173.677855 7.13761546,174.386291 6.95,175.12 C6.02,177.6 3.59,178.74 0.88,179.02 C4.65,179.4 8.68,178.49 9.95,175.12 C10.1376155,174.386291 10.412932,173.677855 10.77,173.01 C11.0216861,172.642665 11.3669163,172.34922 11.77,172.16 C10.25,171.72 8.69,171.74 7.77,173.01 Z" id="Shape"></path>
                    <path d="M67.45,20.39 C67.100424,18.8875866 66.3545454,17.50633 65.29,16.39 C60.77,10.72 55.86,4.9 49.13,2.21 C46.2050696,1.06798148 43.0612714,0.596411747 39.93,0.83 C42.0559961,0.963794037 44.1479647,1.42942575 46.13,2.21 C52.86,4.9 57.77,10.72 62.29,16.39 C63.3545454,17.50633 64.100424,18.8875866 64.45,20.39 C65.02,24.39 61.7,28.54 60.6,32.24 C59.87,34.68 60.08,36.97 59.91,39.48 C59.44,46.06 56.02,52.48 49.58,54.98 C48.8361137,55.1959542 48.1332293,55.5338794 47.5,55.98 C46.3176841,57.2059505 46.0044527,59.0298295 46.71,60.58 C47.4221387,62.0770096 48.3154971,63.4808585 49.37,64.76 C52.2389746,68.8966862 53.4913697,73.9418461 52.89,78.94 C51.69,88.51 43.89,96.35 43.05,105.94 C42.25,114.94 47.65,123.2 49.34,132.05 C50.4,137.57 50,143.26 49.41,148.85 C48.51,157.44 47.01,166.4 41.74,173.24 C40.596727,174.866767 39.0722835,176.188638 37.3,177.09 C36.2640265,177.544088 35.1581474,177.818021 34.03,177.9 C36.1548267,178.152982 38.3092232,177.874663 40.3,177.09 C42.0753618,176.212465 43.6097496,174.914929 44.77,173.31 C50.04,166.47 51.54,157.51 52.44,148.92 C53.03,143.33 53.44,137.64 52.37,132.12 C50.68,123.27 45.28,114.98 46.08,106.01 C46.94,96.4 54.72,88.56 55.92,79.01 C56.5213697,74.0118461 55.2689746,68.9666862 52.4,64.83 C51.3454971,63.5508585 50.4521387,62.1470096 49.74,60.65 C49.0344527,59.0998295 49.3476841,57.2759505 50.53,56.05 C51.1632293,55.6038794 51.8661137,55.2659542 52.61,55.05 C59.05,52.57 62.47,46.13 62.94,39.55 C63.11,37.04 62.94,34.75 63.63,32.31 C64.7,28.54 68.02,24.42 67.45,20.39 Z" id="Shape"></path>
                </g>
                <path d="M312.59,459.31 C316.087094,463.128335 321.458873,464.612081 326.42,463.13" id="Shape" fill="#000000" fill-rule="nonzero" opacity="0.1"></path>
                <path d="M376.67,630.31 C374.735761,631.87241 372.213828,632.508375 369.77,632.05" id="Shape" fill="#000000" fill-rule="nonzero" opacity="0.1"></path>
                <ellipse id="Oval" fill="#487BB3" fill-rule="nonzero" opacity="0.1" cx="106.15" cy="656.8" rx="26.93" ry="4.55"></ellipse>
                <ellipse id="Oval" fill="#487BB3" fill-rule="nonzero" cx="843.43" cy="747.4" rx="26.93" ry="4.55"></ellipse>
                <ellipse id="Oval" fill="#487BB3" fill-rule="nonzero" opacity="0.1" cx="843.43" cy="659.82" rx="26.93" ry="4.55"></ellipse>
                <ellipse id="Oval" fill="#487BB3" fill-rule="nonzero" opacity="0.1" cx="182.51" cy="699.05" rx="26.93" ry="4.55"></ellipse>
                <ellipse id="Oval" fill="#487BB3" fill-rule="nonzero" cx="928.6" cy="699.05" rx="40.21" ry="6.8"></ellipse>
                <ellipse id="Oval" fill="#487BB3" fill-rule="nonzero" opacity="0.1" cx="350.46" cy="752.28" rx="90.76" ry="15.34"></ellipse>
                <path d="M945.22,687.93 C947.055312,686.432048 948.394048,684.413486 949.06,682.14 C949.55,679.84 948.57,677.09 946.38,676.25 C943.92,675.31 941.29,677.01 939.3,678.74 C937.31,680.47 935.02,682.42 932.41,682.06 C935.140456,679.587604 936.370841,675.862274 935.65,672.25 C935.536694,671.51412 935.225618,670.82284 934.75,670.25 C933.38,668.79 930.91,669.42 929.27,670.57 C924.07,674.23 922.62,681.29 922.59,687.65 C922.07,685.36 922.51,682.97 922.5,680.65 C922.49,678.33 921.84,675.65 919.86,674.42 C918.635749,673.745932 917.25743,673.401352 915.86,673.42 C913.52,673.34 910.92,673.57 909.32,675.28 C907.32,677.41 907.85,680.97 909.58,683.28 C911.31,685.59 913.93,687.08 916.34,688.7 C918.279532,689.853074 919.933936,691.428859 921.18,693.31 C921.323906,693.572202 921.444374,693.846602 921.54,694.13 L936.19,694.13 C939.465433,692.479349 942.502894,690.393828 945.22,687.93 Z" id="Shape" fill="#487BB3" fill-rule="nonzero"></path>
                <path d="M860.06,736.52 C861.892558,735.021492 863.227919,733.002761 863.89,730.73 C864.38,728.43 863.41,725.73 861.21,724.84 C858.75,723.9 856.12,725.6 854.13,727.33 C852.14,729.06 849.85,731.01 847.24,730.65 C849.970456,728.177604 851.200841,724.452274 850.48,720.84 C850.372193,720.102503 850.060475,719.409796 849.58,718.84 C848.22,717.38 845.74,718.01 844.11,719.16 C838.91,722.82 837.46,729.88 837.43,736.24 C836.9,733.95 837.34,731.56 837.33,729.24 C837.32,726.92 836.67,724.24 834.69,723.01 C833.462191,722.350285 832.083325,722.022804 830.69,722.06 C828.35,721.98 825.75,722.21 824.15,723.92 C822.15,726.05 822.68,729.61 824.41,731.92 C826.14,734.23 828.76,735.72 831.18,737.34 C833.115902,738.494273 834.766796,740.069971 836.01,741.95 C836.153906,742.212202 836.274374,742.486602 836.37,742.77 L851.02,742.77 C854.300166,741.101804 857.340809,738.99959 860.06,736.52 Z" id="Shape" fill="#487BB3" fill-rule="nonzero"></path>
                <path d="M213.01,646.31 C213.01,646.31 198.96,598.6 215.65,563.49 C222.757028,548.801697 224.904625,532.203439 221.77,516.19 C220.223384,508.604286 217.983996,501.176482 215.08,494" id="Shape" stroke="#535461" stroke-width="2"></path>
                <path d="M225.43,471.81 C225.43,477.66 214.84,494.61 214.84,494.61 C214.84,494.61 204.26,477.66 204.26,471.81 C204.141366,467.950762 206.132508,464.332807 209.456334,462.368126 C212.780161,460.403445 216.909839,460.403445 220.233666,462.368126 C223.557492,464.332807 225.548634,467.950762 225.43,471.81 Z" id="Shape" fill="#487BB3" fill-rule="nonzero"></path>
                <path d="M242.93,504.2 C239.75,509.1 221.65,517.58 221.65,517.58 C221.65,517.58 221.98,497.58 225.16,492.69 C228.409152,487.963896 234.830133,486.683196 239.64382,489.801122 C244.457508,492.919048 245.91434,499.302371 242.93,504.2 Z" id="Shape" fill="#487BB3" fill-rule="nonzero"></path>
                <path d="M242.17,559.54 C236.95,562.18 217.04,560.36 217.04,560.36 C217.04,560.36 227.41,543.27 232.63,540.64 C237.817523,538.206077 244.000044,540.339821 246.582104,545.455223 C249.164164,550.570626 247.209052,556.811937 242.17,559.54 Z" id="Shape" fill="#487BB3" fill-rule="nonzero"></path>
                <path d="M232.16,601.31 C227.46,604.78 207.53,606.31 207.53,606.31 C207.53,606.31 214.87,587.71 219.53,584.23 C224.227186,581.096753 230.556499,582.199779 233.91689,586.737242 C237.277281,591.274704 236.486765,597.650592 232.12,601.23 L232.16,601.31 Z" id="Shape" fill="#487BB3" fill-rule="nonzero"></path>
                <path d="M199.42,518.72 C203.62,522.79 223.15,527.01 223.15,527.01 C223.15,527.01 218.37,507.6 214.15,503.53 C209.928722,499.635865 203.372834,499.816147 199.371945,503.936385 C195.371056,508.056622 195.383502,514.614977 199.4,518.72 L199.42,518.72 Z" id="Shape" fill="#487BB3" fill-rule="nonzero"></path>
                <path d="M188.34,567.69 C193.56,570.32 213.46,568.5 213.46,568.5 C213.46,568.5 203.09,551.41 197.87,548.78 C192.670194,546.290012 186.4339,548.416996 183.839283,553.565392 C181.244665,558.713788 183.245119,564.991814 188.34,567.69 Z" id="Shape" fill="#487BB3" fill-rule="nonzero"></path>
                <path d="M184.09,616.76 C188.79,620.24 208.72,621.76 208.72,621.76 C208.72,621.76 201.38,603.16 196.72,599.69 C192.022814,596.556753 185.693501,597.659779 182.33311,602.197242 C178.972719,606.734704 179.763235,613.110592 184.13,616.69 L184.09,616.76 Z" id="Shape" fill="#487BB3" fill-rule="nonzero"></path>
                <path d="M179.77,643.31 C179.77,643.31 196.88,639.91 201.45,635.38 C206.02,630.85 226.54,622.93 228.82,628.59 C231.1,634.25 259.62,653.5 240.23,656.9 C220.84,660.3 194.6,661.43 188.9,659.17 C183.2,656.91 179.77,643.31 179.77,643.31 Z" id="Shape" fill="#A8A8A8" fill-rule="nonzero"></path>
                <path d="M240.26,654.77 C220.87,658.17 194.63,659.3 188.93,657.03 C184.58,655.31 181.56,647.03 180.37,643.16 L179.77,643.31 C179.77,643.31 183.19,656.9 188.9,659.17 C194.61,661.44 220.84,660.3 240.23,656.9 C245.83,655.9 247.43,653.62 246.83,650.7 C246.38,652.57 244.43,654.04 240.26,654.77 Z" id="Shape" fill="#000000" fill-rule="nonzero" opacity="0.2"></path>
                <path d="M848.94,594.22 C848.94,594.22 854.44,601.41 846.41,612.22 C838.38,623.03 831.76,632.22 834.41,638.99 C834.41,638.99 846.53,618.84 856.41,618.56 C866.29,618.28 859.77,606.31 848.94,594.22 Z" id="Shape" fill="#487BB3" fill-rule="nonzero"></path>
                <path d="M848.94,594.22 C849.421068,594.916447 849.801483,595.677277 850.07,596.48 C859.69,607.78 864.81,618.33 855.56,618.59 C846.95,618.84 836.62,634.24 834.14,638.13 C834.221568,638.431376 834.318359,638.728423 834.43,639.02 C834.43,639.02 846.55,618.87 856.43,618.59 C866.31,618.31 859.77,606.31 848.94,594.22 Z" id="Shape" fill="#000000" fill-rule="nonzero" opacity="0.1"></path>
                <path d="M859.16,603.38 C859.16,605.91 858.87,607.96 858.52,607.96 C858.17,607.96 857.89,605.96 857.89,603.38 C857.89,600.8 858.24,602.04 858.59,602.04 C858.94,602.04 859.16,600.85 859.16,603.38 Z" id="Shape" fill="#FFD037" fill-rule="nonzero"></path>
                <path d="M862.66,606.4 C860.44,607.61 858.5,608.34 858.34,608.03 C858.18,607.72 859.83,606.5 862.05,605.29 C864.27,604.08 863.4,604.96 863.57,605.29 C863.74,605.62 864.88,605.19 862.66,606.4 Z" id="Shape" fill="#FFD037" fill-rule="nonzero"></path>
                <path d="M819.93,594.22 C819.93,594.22 814.43,601.41 822.46,612.22 C830.49,623.03 837.11,632.22 834.46,638.99 C834.46,638.99 822.35,618.84 812.46,618.56 C802.57,618.28 809.08,606.31 819.93,594.22 Z" id="Shape" fill="#487BB3" fill-rule="nonzero"></path>
                <path d="M819.93,594.22 C819.448932,594.916447 819.068517,595.677277 818.8,596.48 C809.18,607.78 804.06,618.33 813.31,618.59 C821.92,618.84 832.25,634.24 834.73,638.13 C834.649586,638.432913 834.549371,638.730219 834.43,639.02 C834.43,639.02 822.32,618.87 812.43,618.59 C802.54,618.31 809.08,606.31 819.93,594.22 Z" id="Shape" fill="#000000" fill-rule="nonzero" opacity="0.1"></path>
                <path d="M809.71,603.38 C809.71,605.91 810,607.96 810.35,607.96 C810.7,607.96 810.98,605.96 810.98,603.38 C810.98,600.8 810.63,602.04 810.28,602.04 C809.93,602.04 809.71,600.85 809.71,603.38 Z" id="Shape" fill="#FFD037" fill-rule="nonzero"></path>
                <path d="M806.21,606.4 C808.43,607.61 810.36,608.34 810.53,608.03 C810.7,607.72 809.04,606.5 806.82,605.29 C804.6,604.08 805.47,604.96 805.3,605.29 C805.13,605.62 803.99,605.19 806.21,606.4 Z" id="Shape" fill="#FFD037" fill-rule="nonzero"></path>
                <path d="M811.46,638.08 C811.46,638.08 826.82,637.6 831.46,634.31 C836.1,631.02 855.09,627.08 856.24,632.31 C857.39,637.54 879.32,658.6 861.98,658.74 C844.64,658.88 821.69,656.04 817.07,653.23 C812.45,650.42 811.46,638.08 811.46,638.08 Z" id="Shape" fill="#A8A8A8" fill-rule="nonzero"></path>
                <path d="M862.28,656.95 C844.94,657.09 821.99,654.25 817.37,651.44 C813.85,649.3 812.44,641.61 811.98,638.06 L811.46,638.06 C811.46,638.06 812.46,650.45 817.06,653.26 C821.66,656.07 844.63,658.91 861.97,658.77 C866.97,658.77 868.7,656.95 868.61,654.32 C867.91,655.93 866,656.92 862.28,656.95 Z" id="Shape" fill="#000000" fill-rule="nonzero" opacity="0.2"></path>
            </g>
        </g>
    </g>
</svg>