<?xml version="1.0" encoding="UTF-8"?>
<svg width="221px" height="481px" viewBox="0 0 221 481" version="1.1" xmlns="http://www.w3.org/2000/svg" xmlns:xlink="http://www.w3.org/1999/xlink">
    <!-- Generator: Sketch 52.2 (67145) - http://www.bohemiancoding.com/sketch -->
    <title>flower</title>
    <desc>Created with Sketch.</desc>
    <g id="Misc" stroke="none" stroke-width="1" fill="none" fill-rule="evenodd">
        <g id="Artboard-4" transform="translate(-1002.000000, -2088.000000)">
            <g id="flower" transform="translate(1089.714200, 2332.220743) scale(-1, 1) rotate(10.000000) translate(-1089.714200, -2332.220743) translate(980.714200, 2088.220743)">
                <path d="M97.5043804,307.011608 C97.5043804,307.011608 -20.663653,378.231583 197.165976,487.880356 C197.165976,487.880356 245.195661,398.877879 192.092841,326.308473 C170.7763,297.031009 130.910301,288.303483 99.2904843,305.992038 L97.5043804,307.011608 Z" id="Shape" fill="#487BB3" fill-rule="nonzero" transform="translate(141.295460, 392.377796) scale(-1, 1) translate(-141.295460, -392.377796) "></path>
                <path d="M86.5760613,486.945967 C86.5760613,486.945967 49.5481763,361.358913 93.5253563,268.922882 C111.986766,230.134235 118.110551,186.577598 109.585282,144.475348 C105.508741,124.48591 99.6053786,104.912132 91.9493823,86" id="Shape" stroke="#535461" stroke-width="3" opacity="0.442354911"></path>
                <path d="M119.812026,28.5196749 C119.812026,43.9181831 91.9097811,88.4943904 91.9097811,88.4943904 C91.9097811,88.4943904 64.0075362,43.8582084 64.0075362,28.5196749 C63.7727718,18.4101039 69.0375364,8.96647482 77.7647548,3.84277492 C86.4919733,-1.28092497 97.3125796,-1.28092497 106.039798,3.84277492 C114.767016,8.96647482 120.031781,18.4101039 119.797017,28.5196749 L119.812026,28.5196749 Z" id="Shape" fill="#487BB3" fill-rule="nonzero" opacity="0.25"></path>
                <path d="M166.074657,114.446854 C157.699481,127.371405 110,149.682 110,149.682 C110,149.682 110.870538,97.0691804 119.245714,84.1446292 C127.788852,71.6619648 144.737068,68.260525 157.443392,76.4785063 C170.149716,84.6964876 173.979387,101.536297 166.074657,114.431861 L166.074657,114.446854 Z" id="Shape" fill="#F8E71C" fill-rule="nonzero" opacity="0.25"></path>
                <path d="M164.205918,258.511039 C150.442412,265.438119 98,260.655136 98,260.655136 C98,260.655136 125.331892,215.674099 139.095399,208.747019 C152.794553,202.183442 169.232629,207.775473 176.07466,221.326908 C182.916691,234.878343 177.647452,251.407488 164.220928,258.511039 L164.205918,258.511039 Z" id="Shape" fill="#487BB3" fill-rule="nonzero" opacity="0.25"></path>
                <path d="M136.900111,368.413924 C124.517458,377.560068 72,381.698323 72,381.698323 C72,381.698323 91.3319481,332.758955 103.714601,323.597817 C111.723642,317.580121 122.348089,316.315319 131.548481,320.284295 C140.748873,324.253271 147.11187,332.84632 148.218231,342.796328 C149.324592,352.746336 145.004362,362.524807 136.900111,368.413924 Z" id="Shape" fill="#F8E71C" fill-rule="nonzero" opacity="0.25"></path>
                <path d="M50.9284073,152.338874 C61.9752348,163.059354 113.472062,174.16967 113.472062,174.16967 C113.472062,174.16967 100.86427,123.086206 89.8174426,112.350732 C82.724035,105.130196 72.27107,102.316034 62.5061606,104.997949 C52.7412511,107.679865 45.1976505,115.436753 42.7964031,125.264979 C40.3951557,135.093206 43.5132974,145.449576 50.9434166,152.32388 L50.9284073,152.338874 Z" id="Shape" fill="#487BB3" fill-rule="nonzero" opacity="0.25"></path>
                <path d="M22.8636098,280.511039 C36.6271163,287.438119 89.0695281,282.655136 89.0695281,282.655136 C89.0695281,282.655136 61.7376358,237.674099 47.9741293,230.747019 C34.2749749,224.183442 17.8368991,229.775473 10.9948681,243.326908 C4.15283718,256.878343 9.42207583,273.407488 22.8486005,280.511039 L22.8636098,280.511039 Z" id="Shape" fill="#F8E71C" fill-rule="nonzero" opacity="0.25"></path>
                <path d="M11.1469793,410.15073 C23.5296324,419.296874 76.0470906,423.435129 76.0470906,423.435129 C76.0470906,423.435129 56.7151426,374.480768 44.3174802,365.334624 C31.9261075,356.330184 14.5843267,358.992866 5.47182788,371.299041 C-3.64067093,383.605217 -1.11382588,400.949692 11.13197,410.15073 L11.1469793,410.15073 Z" id="Shape" fill="#000000" fill-rule="nonzero" opacity="0.25"></path>
            </g>
        </g>
    </g>
</svg>