<?xml version="1.0" encoding="UTF-8"?>
<svg width="265px" height="450px" viewBox="0 0 265 450" version="1.1" xmlns="http://www.w3.org/2000/svg" xmlns:xlink="http://www.w3.org/1999/xlink">
    <!-- Generator: Sketch 52.2 (67145) - http://www.bohemiancoding.com/sketch -->
    <title>red flower</title>
    <desc>Created with Sketch.</desc>
    <g id="Web-V2" stroke="none" stroke-width="1" fill="none" fill-rule="evenodd">
        <g id="pricing" transform="translate(-1055.000000, -611.000000)">
            <g id="red-flower" transform="translate(1191.276150, 837.420840) rotate(21.000000) translate(-1191.276150, -837.420840) translate(1102.276150, 596.920840)">
                <path d="M86.3575837,480.29 C86.3575837,480.29 49.8875837,356.46 93.1975837,265.29 C111.377584,227.04 117.417584,184.1 109.017584,142.59 C104.998319,122.903193 99.1840233,103.625975 91.6475837,85" id="Shape" stroke="#535461" stroke-width="2"></path>
                <path d="M118.96,27.5 C118.96,42.68 91.48,86.69 91.48,86.69 C91.48,86.69 64,42.69 64,27.5 C64,12.3121694 76.3121694,0 91.5,0 C106.687831,0 119,12.3121694 119,27.5 L118.96,27.5 Z" id="Shape" fill="#FC6681" fill-rule="nonzero"></path>
                <path d="M164.23,111.683124 C155.98,124.423124 109,146.433124 109,146.433124 C109,146.433124 109.85,94.5531237 118.1,81.8131237 C123.380621,73.4464454 132.751172,68.564276 142.633923,69.0306567 C152.516673,69.4970375 161.385811,75.2399633 165.855049,84.0667511 C170.324286,92.8935388 169.70361,103.44141 164.23,111.683124 Z" id="Shape" fill="#FC6681" fill-rule="nonzero"></path>
                <path d="M162.22,254.926904 C148.67,261.756904 97,257.036904 97,257.036904 C97,257.036904 123.92,212.686904 137.47,205.856904 C150.999225,199.161406 167.396333,204.632539 174.19438,218.110527 C180.992428,231.588515 175.645974,248.026699 162.22,254.926904 Z" id="Shape" fill="#FC6681" fill-rule="nonzero"></path>
                <path d="M135.92,363.577385 C123.72,372.577385 72,376.677385 72,376.677385 C72,376.677385 91,328.417385 103.24,319.387385 C115.442732,310.363052 132.650667,312.939653 141.675,325.142385 C150.699333,337.345116 148.122732,354.553052 135.92,363.577385 Z" id="Shape" fill="#FC6681" fill-rule="nonzero"></path>
                <path d="M51.0711791,148.933774 C61.9611791,159.503774 112.671179,170.463774 112.671179,170.463774 C112.671179,170.463774 100.251179,120.083774 89.3611791,109.513774 C78.4383362,99.1845456 61.2427364,99.5497062 50.7682395,110.333322 C40.2937427,121.116939 40.4287215,138.315886 51.0711791,148.933774 Z" id="Shape" fill="#FC6681" fill-rule="nonzero"></path>
                <path d="M22.7903201,275.866699 C36.3403201,282.696699 88.0103201,277.976699 88.0103201,277.976699 C88.0103201,277.976699 61.0903201,233.626699 47.4903201,226.766699 C33.9817829,220.206302 17.708525,225.705054 10.9478041,239.114455 C4.18708318,252.523856 9.44302634,268.877151 22.7503201,275.836699 L22.7903201,275.866699 Z" id="Shape" fill="#FC6681" fill-rule="nonzero"></path>
                <path d="M11.4877725,403.837192 C23.6877725,412.837192 75.4077725,416.937192 75.4077725,416.937192 C75.4077725,416.937192 56.4077725,368.677192 44.1677725,359.647192 C36.2857512,353.622824 25.7685492,352.314514 16.6507655,356.224154 C7.53298176,360.133795 1.23032321,368.654341 0.160609777,378.517149 C-0.909103653,388.379958 3.42022109,398.053642 11.4877725,403.827192 L11.4877725,403.837192 Z" id="Shape" fill="#FC6681" fill-rule="nonzero"></path>
            </g>
        </g>
    </g>
</svg>