<?xml version="1.0" encoding="UTF-8"?>
<svg width="1144px" height="876px" viewBox="0 0 1144 876" version="1.1" xmlns="http://www.w3.org/2000/svg" xmlns:xlink="http://www.w3.org/1999/xlink">
    <!-- Generator: Sketch 50.2 (55047) - http://www.bohemiancoding.com/sketch -->
    <title>submit-application</title>
    <desc>Created with Sketch.</desc>
    <defs>
        <linearGradient x1="50%" y1="100%" x2="50%" y2="0%" id="linearGradient-1">
            <stop stop-color="#808080" stop-opacity="0.25" offset="0%"></stop>
            <stop stop-color="#808080" stop-opacity="0.12" offset="54%"></stop>
            <stop stop-color="#808080" stop-opacity="0.1" offset="100%"></stop>
        </linearGradient>
        <linearGradient x1="50.0089747%" y1="99.9926529%" x2="50.0089747%" y2="0.00193977786%" id="linearGradient-2">
            <stop stop-color="#808080" stop-opacity="0.25" offset="0%"></stop>
            <stop stop-color="#808080" stop-opacity="0.12" offset="54%"></stop>
            <stop stop-color="#808080" stop-opacity="0.1" offset="100%"></stop>
        </linearGradient>
    </defs>
    <g id="Website" stroke="none" stroke-width="1" fill="none" fill-rule="evenodd">
        <g id="Test-Board" transform="translate(-204.000000, -1548.000000)">
            <g id="submit-application" transform="translate(203.000000, 1547.000000)">
                <ellipse id="Oval" fill="#487BB3" fill-rule="nonzero" opacity="0.1" cx="850.67" cy="830.19" rx="115.8" ry="28.95"></ellipse>
                <path d="M36.25,605.66 C23.15,610.15 7.25,619.31 9.93,633.87 C11.27,641.25 17.25,646.72 22.93,651.34 C47.1916427,671.022951 73.859117,687.538908 102.29,700.49 C115.86,706.65 130.29,712.3 140.54,723.66 C150.79,735.02 155.54,750.9 158.87,766.21 C166.684688,802.468524 168.616024,839.748045 164.59,876.62 C205.5,877.4 250.8,876.48 279.75,847.01 C297.08,829.36 306.37,803.18 326.75,789.52 C340.34,780.41 357.09,778.15 373.27,776.25 C449.85,767.296667 526.826667,761.876667 604.2,759.99 C636.62,759.2 669.75,758.92 700.02,747.62 C730.29,736.32 757.77,711.62 763.92,678.13 C764.87,672.97 765.49,667.28 769.02,663.68 C772.17,660.45 776.89,659.68 781.3,659.11 L1047.19,623.11 C1061.75,621.11 1076.82,618.98 1089.08,610.75 C1100.94,602.75 1108.94,589.97 1116.59,577.51 C1134.12,548.99 1152.31,514.51 1140.17,481.9 C1130.46,455.84 1104.36,440.83 1079.42,431.51 C1054.48,422.19 1027.63,415.64 1007.36,397.37 C976.52,369.57 969.68,323.42 960.99,282.01 C953.126786,244.510306 942.086963,207.747697 927.99,172.12 C915.55,140.78 900.4,109.89 877.82,85.5 C855.24,61.11 824.17,43.82 792.55,45.06 C751.25,46.7 714.92,78.89 673.55,74.89 C638.61,71.54 610.18,43.54 578.72,26.12 C522.87,-4.83 456.95,-2.11 395.84,7.54 C331.04,17.75 265.84,35.62 213.34,75.81 C201.34,85.01 189.86,95.63 182.81,109.47 C172.01,130.7 172.94,156.57 167.53,180.16 C145.73,275.16 28.85,314.79 4.82,409.1 C-3.72,442.58 2.6,478.89 18.27,509.83 C35.12,543.14 68.97,557.34 86.32,585.93 C74.72,596.52 51.61,600.39 36.25,605.66 Z" id="Shape" fill="#487BB3" fill-rule="nonzero" opacity="0.1"></path>
                <path d="M871.15,837.89 C871.15,837.89 860.67,765.69 892.15,718.17 C905.505891,698.324057 912.060852,674.679879 910.83,650.79 C910.162758,639.454135 908.455585,628.203531 905.73,617.18" id="Shape" stroke="#535461" stroke-width="2"></path>
                <path d="M925.47,587.09 C924.26,595.58 905.36,618 905.36,618 C905.36,618 893.55,591.17 894.73,582.68 C895.424963,577.106573 899.075103,572.342696 904.275777,570.2216 C909.476451,568.100504 915.417133,568.952762 919.811735,572.450409 C924.206338,575.948056 926.36996,581.545982 925.47,587.09 Z" id="Shape" fill="#487BB3" fill-rule="nonzero"></path>
                <path d="M944.15,637.76 C938.51,644.22 910.46,652.76 910.46,652.76 C910.46,652.76 915.1,623.76 920.73,617.34 C924.375895,613.15642 929.976755,611.235694 935.42279,612.301342 C940.868824,613.36699 945.332651,617.257114 947.13279,622.506342 C948.932929,627.75557 947.795896,633.56642 944.15,637.75 L944.15,637.76 Z" id="Shape" fill="#487BB3" fill-rule="nonzero"></path>
                <path d="M931.55,717.96 C923.42,720.7 894.89,713.96 894.89,713.96 C894.89,713.96 913.51,691.3 921.64,688.57 C929.591972,686.35325 937.888542,690.745103 940.526189,698.567549 C943.163836,706.389995 939.220659,714.908962 931.55,717.96 Z" id="Shape" fill="#487BB3" fill-rule="nonzero"></path>
                <path d="M908.31,776.5 C900.76,780.57 871.5,778.7 871.5,778.7 C871.5,778.7 886.02,753.23 893.57,749.16 C901.119733,745.089661 910.539661,747.910267 914.61,755.46 C918.680339,763.009733 915.859733,772.429661 908.31,776.5 Z" id="Shape" fill="#487BB3" fill-rule="nonzero"></path>
                <path d="M877.95,649.79 C883.19,656.58 910.69,666.79 910.69,666.79 C910.69,666.79 907.77,637.61 902.53,630.79 C897.283295,624.00242 887.52758,622.753295 880.74,628 C873.95242,633.246705 872.703295,643.00242 877.95,649.79 Z" id="Shape" fill="#487BB3" fill-rule="nonzero"></path>
                <path d="M851.67,718.59 C858.67,723.5 887.98,725 887.98,725 C887.98,725 876.48,698 869.44,693.12 C864.892877,689.842058 858.932168,689.268905 853.843751,691.62034 C848.755334,693.971775 845.328966,698.882839 844.878626,704.470184 C844.428287,710.057529 847.023873,715.453962 851.67,718.59 Z" id="Shape" fill="#487BB3" fill-rule="nonzero"></path>
                <path d="M835.3,788.97 C841.4,794.97 870.01,801.42 870.01,801.42 C870.01,801.42 863.23,772.89 857.12,766.89 C853.191019,762.897113 847.416174,761.329597 842.007531,762.787892 C836.598889,764.246187 832.394759,768.504266 831.005542,773.931061 C829.616326,779.357857 831.257343,785.112248 835.3,788.99 L835.3,788.97 Z" id="Shape" fill="#487BB3" fill-rule="nonzero"></path>
                <path d="M925.47,587.09 C924.26,595.58 905.36,618 905.36,618 C905.36,618 893.55,591.17 894.73,582.68 C895.424963,577.106573 899.075103,572.342696 904.275777,570.2216 C909.476451,568.100504 915.417133,568.952762 919.811735,572.450409 C924.206338,575.948056 926.36996,581.545982 925.47,587.09 Z" id="Shape" fill="#000000" fill-rule="nonzero" opacity="0.25"></path>
                <path d="M944.15,637.76 C938.51,644.22 910.46,652.76 910.46,652.76 C910.46,652.76 915.1,623.76 920.73,617.34 C924.375895,613.15642 929.976755,611.235694 935.42279,612.301342 C940.868824,613.36699 945.332651,617.257114 947.13279,622.506342 C948.932929,627.75557 947.795896,633.56642 944.15,637.75 L944.15,637.76 Z" id="Shape" fill="#000000" fill-rule="nonzero" opacity="0.25"></path>
                <path d="M931.55,717.96 C923.42,720.7 894.89,713.96 894.89,713.96 C894.89,713.96 913.51,691.3 921.64,688.57 C929.591972,686.35325 937.888542,690.745103 940.526189,698.567549 C943.163836,706.389995 939.220659,714.908962 931.55,717.96 Z" id="Shape" fill="#000000" fill-rule="nonzero" opacity="0.25"></path>
                <path d="M908.31,776.5 C900.76,780.57 871.5,778.7 871.5,778.7 C871.5,778.7 886.02,753.23 893.57,749.16 C901.119733,745.089661 910.539661,747.910267 914.61,755.46 C918.680339,763.009733 915.859733,772.429661 908.31,776.5 Z" id="Shape" fill="#000000" fill-rule="nonzero" opacity="0.25"></path>
                <path d="M877.95,649.79 C883.19,656.58 910.69,666.79 910.69,666.79 C910.69,666.79 907.77,637.61 902.53,630.79 C897.283295,624.00242 887.52758,622.753295 880.74,628 C873.95242,633.246705 872.703295,643.00242 877.95,649.79 Z" id="Shape" fill="#000000" fill-rule="nonzero" opacity="0.25"></path>
                <path d="M851.67,718.59 C858.67,723.5 887.98,725 887.98,725 C887.98,725 876.48,698 869.44,693.12 C864.892877,689.842058 858.932168,689.268905 853.843751,691.62034 C848.755334,693.971775 845.328966,698.882839 844.878626,704.470184 C844.428287,710.057529 847.023873,715.453962 851.67,718.59 Z" id="Shape" fill="#000000" fill-rule="nonzero" opacity="0.25"></path>
                <path d="M835.3,788.97 C841.4,794.97 870.01,801.42 870.01,801.42 C870.01,801.42 863.23,772.89 857.12,766.89 C853.191019,762.897113 847.416174,761.329597 842.007531,762.787892 C836.598889,764.246187 832.394759,768.504266 831.005542,773.931061 C829.616326,779.357857 831.257343,785.112248 835.3,788.99 L835.3,788.97 Z" id="Shape" fill="#000000" fill-rule="nonzero" opacity="0.25"></path>
                <path d="M872.01,835.6 C872.01,835.6 833.17,773.84 842.74,717.6 C846.914987,694.054611 843.339368,669.79023 832.55,648.45 C827.343559,638.356898 821.221182,628.763276 814.26,619.79" id="Shape" stroke="#535461" stroke-width="2"></path>
                <path d="M820.06,584.32 C822.38,592.58 814.19,620.73 814.19,620.73 C814.19,620.73 792.49,601.01 790.19,592.73 C788.682339,587.388879 790.138657,581.649153 794.010373,577.67292 C797.882088,573.696687 803.580996,572.088032 808.960373,573.45292 C814.339749,574.817808 818.582339,578.948879 820.09,584.29 L820.06,584.32 Z" id="Shape" fill="#487BB3" fill-rule="nonzero"></path>
                <path d="M857.66,623.08 C855.13,631.27 832.95,650.45 832.95,650.45 C832.95,650.45 825.45,622.11 827.95,613.91 C830.482226,605.714094 839.179094,601.122774 847.375,603.655 C855.570906,606.187226 860.162226,614.884094 857.63,623.08 L857.66,623.08 Z" id="Shape" fill="#487BB3" fill-rule="nonzero"></path>
                <path d="M878.62,701.52 C872.3,707.31 843.47,712.67 843.47,712.67 C843.47,712.67 851.31,684.42 857.63,678.67 C863.95366,672.871011 873.78101,673.296341 879.579999,679.620001 C885.378989,685.943661 884.95366,695.77101 878.63,701.57 L878.62,701.52 Z" id="Shape" fill="#487BB3" fill-rule="nonzero"></path>
                <path d="M881.12,764.44 C875.87,771.22 848.36,781.37 848.36,781.37 C848.36,781.37 851.36,752.2 856.56,745.37 C859.90265,740.833327 865.440513,738.463309 871.030238,739.177228 C876.619963,739.891148 881.384375,743.576971 883.479475,748.808153 C885.574575,754.039335 884.671587,759.994964 881.12,764.37 L881.12,764.44 Z" id="Shape" fill="#487BB3" fill-rule="nonzero"></path>
                <path d="M802.02,660.89 C809.56,664.98 838.82,663.15 838.82,663.15 C838.82,663.15 824.34,637.66 816.82,633.58 C811.941538,630.936235 806.023222,631.095923 801.294423,633.998912 C796.565624,636.901901 793.74476,642.107158 793.894423,647.653912 C794.044086,653.200666 797.141538,658.246235 802.02,660.89 Z" id="Shape" fill="#487BB3" fill-rule="nonzero"></path>
                <path d="M805.87,734.45 C814.29,736.09 841.67,725.6 841.67,725.6 C841.67,725.6 820.22,705.6 811.8,703.97 C806.295416,702.764724 800.569842,704.635741 796.839185,708.85893 C793.108527,713.08212 791.958196,718.994788 793.833389,724.308618 C795.708583,729.622447 800.31505,733.503602 805.87,734.45 Z" id="Shape" fill="#487BB3" fill-rule="nonzero"></path>
                <path d="M819.42,805.43 C827.42,808.43 856.2,802.74 856.2,802.74 C856.2,802.74 838.44,779.42 830.42,776.38 C822.555674,773.866168 814.099159,777.945221 811.171017,785.664869 C808.242875,793.384516 811.866841,802.045821 819.42,805.38 L819.42,805.43 Z" id="Shape" fill="#487BB3" fill-rule="nonzero"></path>
                <polygon id="Shape" fill="url(#linearGradient-1)" fill-rule="nonzero" points="286.63 58.83 286.63 86.21 286.63 764.29 794.03 764.29 794.03 86.21 794.03 58.83"></polygon>
                <rect id="Rectangle-path" fill="#F6F7F9" fill-rule="nonzero" x="291.08" y="65.02" width="498.5" height="26.89"></rect>
                <g id="Group" opacity="0.2" transform="translate(291.000000, 65.000000)" fill="#487BB3" fill-rule="nonzero">
                    <rect id="Rectangle-path" x="0.08" y="0.02" width="498.5" height="26.89"></rect>
                </g>
                <rect id="Rectangle-path" fill="#F6F7F9" fill-rule="nonzero" x="291.08" y="91.91" width="498.5" height="666.19"></rect>
                <circle id="Oval" fill="#F6F7F9" fill-rule="nonzero" cx="304.19" cy="78.47" r="4.56"></circle>
                <circle id="Oval" fill="#F6F7F9" fill-rule="nonzero" cx="316.55" cy="78.47" r="4.56"></circle>
                <circle id="Oval" fill="#F6F7F9" fill-rule="nonzero" cx="328.91" cy="78.47" r="4.56"></circle>
                <g id="Group" opacity="0.2" transform="translate(380.000000, 132.000000)" fill="#487BB3" fill-rule="nonzero">
                    <rect id="Rectangle-path" x="0.05" y="0.98" width="320.55" height="12.55"></rect>
                </g>
                <rect id="Rectangle-path" fill="#487BB3" fill-rule="nonzero" x="658.01" y="132.98" width="42.59" height="12.55"></rect>
                <g id="Group" opacity="0.2" transform="translate(338.000000, 204.000000)" fill="#487BB3" fill-rule="nonzero">
                    <rect id="Rectangle-path" x="0.61" y="0.47" width="403.44" height="144.49"></rect>
                </g>
                <text id="home---FontAwesome" font-family="FontAwesome" font-size="48" font-weight="normal" fill="#F6F7F9">
                    <tspan x="368" y="293"></tspan>
                </text>
                <rect id="Rectangle-path" fill="#F6F7F9" fill-rule="nonzero" x="451.83" y="257.13" width="232.71" height="12.55"></rect>
                <rect id="Rectangle-path" fill="#F6F7F9" fill-rule="nonzero" x="451.83" y="283.75" width="120.73" height="12.55"></rect>
                <rect id="Rectangle-path" fill="#487BB3" fill-rule="nonzero" x="658.01" y="321.77" width="42.59" height="12.55"></rect>
                <g id="Group" opacity="0.2" transform="translate(338.000000, 389.000000)" fill="#487BB3" fill-rule="nonzero">
                    <rect id="Rectangle-path" x="0.61" y="0.46" width="403.44" height="144.49"></rect>
                </g>
                <rect id="Rectangle-path" fill="#F6F7F9" fill-rule="nonzero" x="451.83" y="442.12" width="232.71" height="12.55"></rect>
                <rect id="Rectangle-path" fill="#F6F7F9" fill-rule="nonzero" x="451.83" y="468.74" width="120.73" height="12.55"></rect>
                <rect id="Rectangle-path" fill="#487BB3" fill-rule="nonzero" x="658.01" y="506.76" width="42.59" height="12.55"></rect>
                <text id="home---FontAwesome" font-family="FontAwesome" font-size="48" font-weight="normal" fill="#F6F7F9">
                    <tspan x="368" y="293"></tspan>
                </text>
                <text id="home---FontAwesome" font-family="FontAwesome" font-size="48" font-weight="normal" fill="#F6F7F9">
                    <tspan x="368" y="476"></tspan>
                </text>
                <g id="Group" opacity="0.2" transform="translate(338.000000, 574.000000)" fill="#487BB3" fill-rule="nonzero">
                    <rect id="Rectangle-path" x="0.61" y="0.45" width="403.44" height="144.49"></rect>
                </g>
                <text id="home---FontAwesome" font-family="FontAwesome" font-size="48" font-weight="normal" fill="#F6F7F9">
                    <tspan x="368" y="661"></tspan>
                </text>
                <rect id="Rectangle-path" fill="#F6F7F9" fill-rule="nonzero" x="451.83" y="627.11" width="232.71" height="12.55"></rect>
                <rect id="Rectangle-path" fill="#F6F7F9" fill-rule="nonzero" x="451.83" y="653.73" width="120.73" height="12.55"></rect>
                <rect id="Rectangle-path" fill="#487BB3" fill-rule="nonzero" x="658.01" y="691.75" width="42.59" height="12.55"></rect>
                <path d="M164.55,455.4 C160.68,473.01 153.7,494.71 153.7,494.71 C160.6,502.76 190.7,504.2 190.7,504.2 L190.75,504.14 L191.22,504.14 C191.43,505.25 191.67,506.32 191.96,507.34 C191.906667,508.346667 191.856667,509.366667 191.81,510.4 C191.380785,511.603905 191.233674,512.890275 191.38,514.16 C191.439008,514.443557 191.512437,514.723921 191.6,515 C190.88,530.94 190.37,547.94 190.81,557.76 C190.812752,560.541635 191.097541,563.315823 191.66,566.04 C192.180738,568.11888 192.475777,570.247854 192.54,572.39 C193.03,586.76 189.54,610.9 189.54,610.9 C189.54,610.9 189.63,611.23 189.68,611.4 C189.62,611.81 189.58,612.05 189.58,612.05 C189.88342,613.022687 190.05495,614.03169 190.09,615.05 C190.35,627.17 183.4,653.54 183.4,653.54 C183.4,653.54 177.78,694.09 178.58,709.54 C178.606016,710.773847 178.696137,712.005508 178.85,713.23 C180.57,726.08 182.85,761.96 182.85,761.96 C183.248782,762.551706 183.686411,763.116281 184.16,763.65 C183.96,764.45 183.72,765.26 183.46,766.06 C180.769755,774.147279 179.633119,782.670354 180.11,791.18 C180.18,792.18 180.26,793.27 180.36,794.37 C181.51,807.61 213.54,799.37 215.65,797.83 C216.37,797.3 215.86,792.5 214.87,786.41 L247.87,794.56 C247.87,794.56 271.27,798.02 282.4,794.56 C293.53,791.1 293.14,781.56 277.22,779.99 C266.07,778.91 257.22,768.53 252.85,762.4 C254.54,757.79 267.21,722.8 269.54,701.14 C271.047634,687.146816 273.516805,673.27402 276.93,659.62 L279.42,627.39 L283.84,608.39 L289.11,583.27 C295.06,564.85 296.88,534.06 296.88,534.06 L301.48,503.85 C302.120883,500.566715 302.478862,497.234493 302.55,493.89 C306.863507,494.774325 311.120939,495.912979 315.3,497.3 C322.5,491.7 312.3,437.74 312.3,437.74 C312.3,437.74 307.39,403.66 303.23,372.59 C312.76,371.16 323.09,373.4 323.09,373.4 L383.52,374.73 C384.775207,373.083706 385.860729,371.314709 386.76,369.45 L389.35,369.45 C389.67098,369.003195 389.923744,368.511149 390.1,367.99 L391.17,368.19 C395.098094,369.097914 398.960249,370.270592 402.73,371.7 C402.73,371.7 421.79,374 418.91,354.01 C416.77,339.11 399.81,344.52 391.33,348.22 L390.26,348.71 C390.18,348.15 390.13,347.83 390.13,347.83 L387.4,348.33 C387.23088,347.913901 387.040633,347.506704 386.83,347.11 C386.83,347.11 357.19,345.96 333.16,342.36 C316.07,339.8 303.16,330.03 297.09,324.61 C292.88,303.24 280.65,296.75 280.65,296.75 C273.86,296.41 267.74,293.42 263.98,291.11 C262.620819,290.298638 261.317866,289.396594 260.08,288.41 L259.42,288.79 L259.34,288.72 C263.41,284.94 267.63,281.47 271.34,278.56 L273.01,277.27 C284.854347,276.110286 295.421712,269.334435 301.418151,259.054542 C307.41459,248.774649 308.110887,236.240833 303.29,225.36 C303.13,225 302.94,224.64 302.77,224.29 C306.594036,223.866975 309.629285,220.877213 310.11,217.06 C310.48,212.87 307.59,208.41 309.48,204.65 C309.827171,204.092157 310.128172,203.506876 310.38,202.9 C310.536716,202.32732 310.584209,201.730254 310.52,201.14 C310.237681,197.556767 308.413218,194.272734 305.52,192.14 C301.23,189.03 297.42,190.61 292.73,190.34 C287.31,190.03 281.94,188.72 276.6,187.84 C270.47,186.84 264.19,186.16 258.07,187.23 C251.95,188.3 245.96,191.3 242.41,196.4 C240.89,198.58 239.86,201.07 238.41,203.32 C236.78,205.92 234.67,208.17 232.8,210.59 C229.65,214.66 227.1,219.54 227.35,224.68 C227.49,227.59 228.52,230.39 228.72,233.3 C228.72951,236.011444 228.52891,238.71955 228.12,241.4 C227.810544,244.85366 228.009326,248.334034 228.71,251.73 C228.850738,252.793402 229.256502,253.804373 229.89,254.67 C230.603772,255.434859 231.497582,256.008961 232.49,256.34 C233.527937,256.749513 234.59403,257.083712 235.68,257.34 C234.464874,260.167008 232.967271,262.864034 231.21,265.39 L229.59,263.71 L225.21,270.55 L225.04,270.09 C224.83,270.52 224.59,270.93 224.34,271.34 L223.89,270.09 C221.95,273.98 218.32,277.23 214.08,279.91 C202.62,287.11 186.63,290.09 186.63,290.09 C160.87,293.83 165.63,320.44 165.63,320.44 C165.63,320.44 154.7,367.92 151.63,397.27 C148.56,426.62 159.97,445.32 159.97,445.32 L164.55,455.4 Z M287.4,368.62 C288.4,371.89 289.28,374.99 290.03,377.7 L289.55,377.89 C289,375.38 288.25,372.16 287.43,368.62 L287.4,368.62 Z M259.06,288.95 L258.92,289.04 L259.05,288.91 L259.06,288.95 Z M214.63,785.08 C213.37,777.55 211.49,768.46 210.33,763.03 C211.15,760.36 212.24,756.28 213.52,750.21 C216.4,736.6 218.12,688.44 218.12,688.44 L224.84,647.98 C230.98,632.44 232.32,613.98 232.32,613.98 C234.79,607.46 240.5,567.55 241.41,561.14 C241.15,565.57 240.53,576.79 240.2,589.25 C240.2,589.36 240.2,589.48 240.2,589.59 C239.95,599 239.88,609.09 240.2,617.46 C240.29,619.81 240.41,622.04 240.57,624.1 C240.62,624.63 240.65,625.18 240.67,625.72 C241.39,647.42 231.67,674.72 231.67,674.72 C231.67,674.72 227.34,694.96 227.98,706.27 C227.972443,708.301244 228.26218,710.32266 228.84,712.27 C229.126427,713.170705 229.291219,714.105645 229.33,715.05 C229.51,725.87 223.12,748.58 221.49,754.15 C217.93,761.49 215.28,780.2 214.63,785.08 Z" id="Shape" fill="url(#linearGradient-2)" fill-rule="nonzero"></path>
                <path d="M250.28,755.55 C250.28,755.55 261.5,775.89 277.28,777.41 C293.06,778.93 293.44,788.41 282.41,791.86 C271.38,795.31 248.19,791.86 248.19,791.86 L215.11,783.69 C215.11,783.69 219.11,750.99 224.42,749.28 C229.73,747.57 250.28,755.55 250.28,755.55 Z" id="Shape" fill="#4C4C78" fill-rule="nonzero"></path>
                <path d="M209.97,755.89 C209.97,755.89 218.34,793.53 216.25,795.06 C214.16,796.59 182.41,804.75 181.25,791.63 C181.15,790.54 181.07,789.48 181.01,788.47 C180.528146,780.034583 181.654827,771.58448 184.33,763.57 C185.243667,761.115111 185.681466,758.508681 185.62,755.89 C185.07,750.61 209.97,755.89 209.97,755.89 Z" id="Shape" fill="#4C4C78" fill-rule="nonzero"></path>
                <path d="M220.34,279.36 C220.34,279.36 246,342.36 241.44,322.16 C238.44,308.74 257.95,290.93 271.44,280.46 C278.31,275.12 283.63,271.69 283.63,271.69 C283.63,271.69 235.43,215.51 238.85,239.75 C239.786135,246.387805 238.876202,253.155214 236.22,259.31 C232.705105,267.227322 227.241842,274.125208 220.34,279.36 Z" id="Shape" fill="#FFB9B9" fill-rule="nonzero"></path>
                <path d="M384.32,368.89 C386.281664,368.618011 388.278014,368.743845 390.19,369.26 C394.08233,370.154648 397.908124,371.317422 401.64,372.74 C401.64,372.74 420.54,375.02 417.64,355.21 C415.52,340.43 398.72,345.79 390.31,349.47 C387.45,350.72 385.55,351.78 385.55,351.78 L384.32,368.89 Z" id="Shape" fill="#FFB9B9" fill-rule="nonzero"></path>
                <path d="M384.32,368.89 C386.281664,368.618011 388.278014,368.743845 390.19,369.26 C392.24,364.07 390.68,351.78 390.35,349.47 C387.49,350.72 385.59,351.78 385.59,351.78 L384.32,368.89 Z" id="Shape" fill="#000000" fill-rule="nonzero" opacity="0.1"></path>
                <path d="M384.22,350.02 L389.16,349.11 C389.16,349.11 391.7,366.11 388.39,370.55 L382.7,370.55 L384.22,350.02 Z" id="Shape" fill="#CBCDDA" fill-rule="nonzero"></path>
                <path d="M285.07,381.01 C285.07,381.01 300.19,372.01 301.99,383.38 C303.79,394.75 306.18,414.28 306.18,414.28 L310.36,439.09 L315.78,488.81 L315.02,497.27 C315.02,497.27 298.95,491.89 295.15,493.75 C291.35,495.61 288.3,472.89 288.3,472.89 L282.03,449.31 L281.03,399.31 L285.07,381.01 Z" id="Shape" fill="#4C4C78" fill-rule="nonzero"></path>
                <path d="M285.07,381.01 C285.07,381.01 300.19,372.01 301.99,383.38 C303.79,394.75 306.18,414.28 306.18,414.28 L310.36,439.09 L315.78,488.81 L315.02,497.27 C315.02,497.27 298.95,491.89 295.15,493.75 C291.35,495.61 288.3,472.89 288.3,472.89 L282.03,449.31 L281.03,399.31 L285.07,381.01 Z" id="Shape" fill="#000000" fill-rule="nonzero" opacity="0.1"></path>
                <path d="M293.2,322.45 C293.2,322.45 308.89,340.13 332.7,343.7 C356.51,347.27 385.89,348.4 385.89,348.4 C385.89,348.4 393.3,361.66 382.61,375.78 L322.72,374.46 C322.72,374.46 309.46,371.58 299.19,374.46 L293.2,322.45 Z" id="Shape" fill="#4C4C78" fill-rule="nonzero"></path>
                <path d="M293.2,322.45 C293.2,322.45 308.89,340.13 332.7,343.7 C356.51,347.27 385.89,348.4 385.89,348.4 C385.89,348.4 393.3,361.66 382.61,375.78 L322.72,374.46 C322.72,374.46 309.46,371.58 299.19,374.46 L293.2,322.45 Z" id="Shape" fill="#000000" fill-rule="nonzero" opacity="0.05"></path>
                <path d="M238.78,258.76 C244.63,271.27 254.78,280.5 269.54,280.5 C270.19,280.5 270.82,280.5 271.46,280.5 C278.33,275.16 283.65,271.73 283.65,271.73 C283.65,271.73 235.45,215.55 238.87,239.79 C239.92,247.16 241.13,253.19 238.78,258.76 Z" id="Shape" fill="#000000" fill-rule="nonzero" opacity="0.1"></path>
                <path d="M232.8,242.62 C232.794478,262.910941 249.239058,279.364475 269.529999,279.369997 C289.82094,279.37552 306.274474,262.93094 306.279997,242.639999 C306.28552,222.349058 289.840941,205.895524 269.55,205.89 C259.799437,205.866045 250.441041,209.727467 243.544455,216.6203 C236.647869,223.513133 232.781352,232.869426 232.8,242.62 Z" id="Shape" fill="#FFB9B9" fill-rule="nonzero"></path>
                <path d="M210.35,467.13 C210.35,467.13 292.29,474.36 295.35,463.9 C298.41,453.44 286.99,425.12 286.99,425.12 L290.65,385.57 L290.79,384.05 C290.79,384.05 280.55,341.27 280.89,337.89 C281.24,334.82 264.36,298.89 260.89,291.58 L260.26,290.26 L259.61,290.64 L259.33,290.81 L255.33,293.15 L239.46,289.41 L220.36,279.41 L218.55,388.81 L210.35,467.13 Z" id="Shape" fill="#CBCDDA" fill-rule="nonzero"></path>
                <path d="M252.94,291.55 C252.94,291.55 258.55,290.03 260.74,295.64 C261.584645,298.036896 262.58683,300.375329 263.74,302.64 L265.93,315.64 L269.93,336.17 L272.87,427.17 L271.55,443.37 L264.23,430.37 L262.9,345.37 L262.9,334.77 C262.468156,325.623555 260.402229,316.628307 256.8,308.21 L255.8,305.82 L249.43,297.65 L252.94,291.55 Z" id="Shape" fill="#000000" fill-rule="nonzero" opacity="0.1"></path>
                <path d="M254.08,290.41 C254.08,290.41 259.69,288.89 261.88,294.5 C262.724645,296.896896 263.72683,299.235329 264.88,301.5 L267.07,314.5 L271.07,335.03 L274.02,426.03 L272.68,442.19 L265.36,429.19 L264.03,344.19 L264.03,333.59 C263.601542,324.444141 261.538999,315.448879 257.94,307.03 L256.94,304.64 L250.55,296.5 L254.08,290.41 Z" id="Shape" fill="#4C4C78" fill-rule="nonzero"></path>
                <path d="M230.13,266.89 C230.13,266.89 249.52,287.43 256.36,289.89 C256.36,289.89 252.94,305.48 249.52,308.52 C249.52,308.52 229.17,287.77 225.52,286.09 L222.52,278.7 L230.13,266.89 Z" id="Shape" fill="#000000" fill-rule="nonzero" opacity="0.1"></path>
                <path d="M230.13,265.79 C230.13,265.79 249.52,286.33 256.36,288.79 C256.36,288.79 252.94,304.38 249.52,307.42 C249.52,307.42 229.17,286.67 225.52,284.99 L222.52,277.6 L230.13,265.79 Z" id="Shape" fill="#CBCDDA" fill-rule="nonzero"></path>
                <path d="M259.13,290.24 L259.33,290.77 L265.55,307.43 L276.65,338.89 C276.65,338.89 276.76,339.21 276.95,339.81 C278.79,345.53 288.69,376.58 290.64,385.61 L290.78,384.09 C290.78,384.09 280.55,341.27 280.89,337.89 C281.24,334.82 264.36,298.89 260.89,291.58 C260.34,291.2 259.89,290.88 259.61,290.64 L259.13,290.24 Z" id="Shape" fill="#000000" fill-rule="nonzero" opacity="0.1"></path>
                <path d="M260.26,290.22 L266.68,307.43 L277.79,338.89 C277.79,338.89 277.9,339.21 278.09,339.81 C280.04,345.91 291.15,380.71 292.09,387.08 C293.09,394.08 307.09,431.86 307.09,431.86 L315.09,497.31 C322.22,491.75 312.09,438.31 312.09,438.31 C312.09,438.31 300.68,359.03 297.98,332.66 C295.28,306.29 280.65,298.49 280.65,298.49 C273.92,298.15 267.86,295.19 264.13,292.9 C262.781774,292.09382 261.488897,291.198495 260.26,290.22 Z" id="Shape" fill="#4C4C78" fill-rule="nonzero"></path>
                <path d="M179.75,711.25 C181.46,723.99 183.75,759.55 183.75,759.55 C191.75,771.55 209.42,765.06 209.42,765.06 C209.42,765.06 211.31,761.44 214.16,747.94 C217.01,734.44 218.73,686.72 218.73,686.72 L225.39,646.61 C231.47,631.21 232.8,612.96 232.8,612.96 C235.46,605.96 241.93,559.72 241.93,559.72 C241.93,559.72 239.26,601.17 240.93,623.03 C242.6,644.89 232.19,674.37 232.19,674.37 C232.19,674.37 226.29,701.94 229.34,710.49 C232.39,719.04 221.73,754.41 221.73,754.41 C222.68,764.68 252.91,760.49 252.91,760.49 C252.91,760.49 267.17,722.28 269.64,699.27 C271.13546,685.397985 273.584589,671.645442 276.97,658.11 L279.43,626.17 L283.81,607.35 L289.04,582.45 C294.93,564.19 296.74,533.68 296.74,533.68 L301.3,503.74 C304.3,488.93 300.43,471.57 297.83,462.45 C296.71,458.52 295.83,456.11 295.83,456.11 C293.21,457.97 278.21,460.11 270.45,461.92 C266.190017,462.894737 261.808943,463.231743 257.45,462.92 C237.839731,461.370909 218.439016,457.822489 199.55,452.33 L197.55,451.73 L197.15,455.15 L196.21,463.31 L194.55,477.78 C194.55,477.78 189.41,554.97 192.45,565.43 C195.49,575.89 190.36,611.02 190.36,611.02 C193.21,619.36 184.28,653.26 184.28,653.26 C184.28,653.26 178.04,698.52 179.75,711.25 Z" id="Shape" fill="#000000" fill-rule="nonzero" opacity="0.1"></path>
                <path d="M179.75,710.11 C181.46,722.85 183.75,758.41 183.75,758.41 C191.75,770.41 209.42,763.92 209.42,763.92 C209.42,763.92 211.31,760.3 214.16,746.8 C217.01,733.3 218.73,685.58 218.73,685.58 L225.39,645.47 C231.47,630.07 232.8,611.82 232.8,611.82 C235.46,604.82 241.93,558.58 241.93,558.58 C241.93,558.58 239.26,600.03 240.93,621.89 C242.6,643.75 232.19,673.23 232.19,673.23 C232.19,673.23 226.29,700.8 229.34,709.35 C232.39,717.9 221.73,753.27 221.73,753.27 C222.68,763.54 252.91,759.35 252.91,759.35 C252.91,759.35 267.17,721.14 269.64,698.13 C271.13546,684.257985 273.584589,670.505442 276.97,656.97 L279.43,625.03 L283.81,606.21 L289.04,581.31 C294.93,563.05 296.74,532.54 296.74,532.54 L301.3,502.59 C304.3,487.79 300.43,470.43 297.83,461.31 C296.71,457.38 295.83,454.97 295.83,454.97 C293.21,456.83 278.21,458.97 270.45,460.78 C266.190017,461.754737 261.808943,462.091743 257.45,461.78 C237.839731,460.230909 218.439016,456.682489 199.55,451.19 L197.55,450.59 L197.15,454.01 L196.21,462.17 L194.55,476.64 C194.55,476.64 189.41,553.83 192.45,564.29 C195.49,574.75 190.39,609.89 190.39,609.89 C193.24,618.23 184.31,652.13 184.31,652.13 C184.31,652.13 178.04,697.38 179.75,710.11 Z" id="Shape" fill="#474463" fill-rule="nonzero"></path>
                <path d="M232.8,242.62 C232.797887,249.031066 234.477072,255.330595 237.67,260.89 C243.39,261.89 249.48,260.79 253.81,257 C256.74,254.42 258.63,250.89 261.15,247.9 C262.778736,246.0546 264.532905,244.32382 266.4,242.72 C267.613165,241.50794 269.010434,240.495426 270.54,239.72 C272.105482,238.918811 273.955743,238.896607 275.54,239.66 C277.54,240.79 278.26,243.3 279.4,245.31 C280.281816,247.027136 281.788623,248.340671 283.61,248.98 C285.471284,249.564995 287.496764,248.872281 288.61,247.27 C289.85,245.13 288.94,241.79 291.03,240.49 C291.579146,240.218994 292.147319,239.988383 292.73,239.8 C295.42,238.58 295.73,234.97 295.95,232.03 C296.07,230.58 296.38,228.94 297.6,228.16 C298.82,227.38 300.41,227.77 301.86,227.81 C302.289374,227.81925 302.7185,227.782371 303.14,227.7 C296.106932,211.828087 278.924106,203.045165 261.940226,206.640928 C244.956346,210.23669 232.80726,225.229652 232.81,242.59 L232.8,242.62 Z" id="Shape" fill="#000000" fill-rule="nonzero" opacity="0.1"></path>
                <path d="M305.34,194.89 C308.203459,196.988769 310.010652,200.230763 310.29,203.77 C310.357639,204.356307 310.313527,204.950122 310.16,205.52 C309.907414,206.12151 309.609906,206.703153 309.27,207.26 C307.39,210.98 310.27,215.4 309.89,219.56 C309.390907,223.615505 305.97567,226.680681 301.89,226.74 C300.44,226.74 298.89,226.31 297.63,227.09 C296.37,227.87 296.1,229.51 295.98,230.96 C295.75,233.91 295.45,237.52 292.76,238.73 C292.178719,238.926129 291.610847,239.159958 291.06,239.43 C288.97,240.73 289.89,244.08 288.64,246.2 C287.531568,247.808706 285.503531,248.506351 283.64,247.92 C281.820704,247.277101 280.315069,245.964587 279.43,244.25 C278.28,242.25 277.59,239.73 275.57,238.6 C273.986265,237.838121 272.138182,237.856602 270.57,238.65 C269.040784,239.426 267.643601,240.438452 266.43,241.65 C264.565311,243.256432 262.811315,244.987041 261.18,246.83 C258.66,249.83 256.77,253.35 253.83,255.93 C248.31,260.78 239.83,261.26 233.03,258.5 C232.048442,258.168357 231.162766,257.601936 230.45,256.85 C229.808543,255.979331 229.395932,254.961557 229.25,253.89 C228.559226,250.523152 228.36049,247.073906 228.66,243.65 C229.066989,241.002909 229.267593,238.328185 229.26,235.65 C229.07,232.77 228.04,229.99 227.9,227.11 C227.65,222.02 230.18,217.18 233.3,213.11 C235.16,210.71 237.25,208.48 238.86,205.91 C240.26,203.68 241.28,201.21 242.79,199.05 C246.31,194.05 252.25,191.05 258.31,189.96 C264.37,188.87 270.6,189.56 276.68,190.56 C281.97,191.44 287.29,192.73 292.68,193.04 C297.31,193.32 301.09,191.75 305.34,194.89 Z" id="Shape" fill="#472727" fill-rule="nonzero"></path>
                <path d="M260.26,290.22 L266.68,307.43 L277.79,338.89 C277.79,338.89 277.9,339.21 278.09,339.81 L264.09,292.9 C262.75549,292.09232 261.476015,291.197022 260.26,290.22 Z" id="Shape" fill="#000000" fill-rule="nonzero" opacity="0.1"></path>
                <path d="M190.87,487.1 C190.87,487.1 190.2,507.91 195.81,513.1 L210.73,484.96 L198.19,478.89 L190.87,487.1 Z" id="Shape" fill="#FFB9B9" fill-rule="nonzero"></path>
                <path d="M156.03,494.7 C162.88,502.7 192.67,504.11 192.67,504.11 L222.2,457.63 C222.2,457.63 229.2,452.78 242.29,430.96 C255.38,409.14 254.98,392.32 254.29,379.77 C253.6,367.22 245.29,331.14 245.29,331.14 C244.02,323.02 225.63,272.14 225.63,272.14 C223.7,276 220.11,279.21 215.9,281.87 C204.55,288.98 188.68,291.89 188.68,291.89 C163.15,295.6 167.86,321.98 167.86,321.98 C167.86,321.98 167.55,424.55 169.15,436.81 C170.75,449.07 156.03,494.7 156.03,494.7 Z" id="Shape" fill="#000000" fill-rule="nonzero" opacity="0.1"></path>
                <polygon id="Shape" fill="#CBCDDA" fill-rule="nonzero" points="190.49 491.09 191.34 498.69 201.71 494.89 209.31 483.39 203.61 478.92"></polygon>
                <path d="M190.85,461.62 L196.27,462.17 L248.55,467.39 C256.937883,468.232514 265.404552,467.817944 273.67,466.16 L297.9,461.31 C296.78,457.38 295.9,454.97 295.9,454.97 C293.28,456.83 278.28,458.97 270.52,460.78 C266.260017,461.754737 261.878943,462.091743 257.52,461.78 C237.886153,460.235636 218.461745,456.687172 199.55,451.19 L197.19,454.01 L190.85,461.62 Z" id="Shape" fill="#000000" fill-rule="nonzero" opacity="0.1"></path>
                <g id="Group" opacity="0.1" transform="translate(179.000000, 450.000000)" fill="#000000" fill-rule="nonzero">
                    <path d="M116.3,5.26 C116.475083,5.17256023 116.64533,5.07575333 116.81,4.97 L116.86,5.11 L116.3,5.26 Z" id="Shape"></path>
                    <path d="M5.26,202.12 C5.26,202.12 14.2,168.22 11.34,159.88 C11.34,159.88 16.48,124.75 13.43,114.29 C10.38,103.83 15.53,26.64 15.53,26.64 L17.22,12.17 L18.22,4.01 L18.62,0.59 C18.62,0.59 19.3,0.81 20.62,1.19 L21.83,1.55 L21.55,2.89 L20.6,11.05 L18.91,25.52 C18.91,25.52 13.78,102.7 16.81,113.17 C19.84,123.64 14.73,158.76 14.73,158.76 C17.58,167.1 8.65,201 8.65,201 C8.65,201 2.37,246.26 4.08,259 C5.79,271.74 8.08,307.29 8.08,307.29 C13.91,316.05 24.92,314.95 30.42,313.72 C30.36,313.87 30.32,313.95 30.32,313.95 C30.32,313.95 12.64,320.41 4.65,308.44 C4.65,308.44 2.37,272.88 0.65,260.14 C-1.07,247.4 5.26,202.12 5.26,202.12 Z" id="Shape"></path>
                    <path d="M50.32,259.35 C47.32,250.8 53.18,223.23 53.18,223.23 C53.18,223.23 63.62,193.76 61.91,171.89 C61.2,162.78 61.25,150.28 61.55,138.79 C63.98,123.99 66.29,107.44 66.29,107.44 C66.29,107.44 63.62,148.88 65.34,170.75 C67.06,192.62 56.6,222.09 56.6,222.09 C56.6,222.09 50.7,249.66 53.75,258.21 C56.8,266.76 46.14,302.13 46.14,302.13 C46.9,310.36 66.44,309.31 74.14,308.56 L73.85,309.35 C73.85,309.35 43.62,313.54 42.68,303.27 C42.72,303.27 53.36,267.89 50.32,259.35 Z" id="Shape"></path>
                </g>
                <path d="M154.89,494.7 C161.74,502.7 191.53,504.11 191.53,504.11 L221.05,457.63 C221.05,457.63 228.05,452.78 241.15,430.96 C254.25,409.14 253.84,392.32 253.15,379.77 C252.46,367.22 244.15,331.14 244.15,331.14 C242.88,323.02 224.49,272.14 224.49,272.14 C222.56,276 218.97,279.21 214.76,281.87 C203.4,288.98 187.55,291.89 187.55,291.89 C162.02,295.6 166.73,321.98 166.73,321.98 C166.73,321.98 166.45,424.51 168.02,436.77 C169.59,449.03 154.89,494.7 154.89,494.7 Z" id="Shape" fill="#4C4C78" fill-rule="nonzero"></path>
                <path d="M219.05,297.35 L225.47,299.77 L221.19,302.77 L253.11,379.77 C252.37,367.22 244.11,331.14 244.11,331.14 C242.84,323.02 224.45,272.14 224.45,272.14 C222.52,276 218.93,279.21 214.72,281.87 L219.05,297.35 Z" id="Shape" fill="#000000" fill-rule="nonzero" opacity="0.1"></path>
                <polygon id="Shape" fill="#000000" fill-rule="nonzero" opacity="0.1" points="211.36 434.52 178.7 426.11 174.42 439.37 207.79 447.5"></polygon>
                <path d="M192.67,302.77 C192.67,302.77 207.5,316.77 201.94,347.83 C196.38,378.89 187.4,412.71 187.4,412.71 L211.55,479.59 C211.55,479.59 194.72,497.13 186.45,499.26 L162.35,445.79 C162.35,445.79 151.09,427.25 154.08,398.17 C157.07,369.09 167.91,322.02 167.91,322.02 C167.91,322.02 167.86,293.36 192.67,302.77 Z" id="Shape" fill="#000000" fill-rule="nonzero" opacity="0.1"></path>
                <path d="M191.55,302.77 C191.55,302.77 206.38,316.77 200.82,347.83 C195.26,378.89 186.28,412.71 186.28,412.71 L210.35,479.59 C210.35,479.59 193.55,497.13 185.26,499.26 L161.16,445.79 C161.16,445.79 149.9,427.25 152.89,398.17 C155.88,369.09 166.72,322.02 166.72,322.02 C166.72,322.02 166.72,293.36 191.55,302.77 Z" id="Shape" fill="#4C4C78" fill-rule="nonzero"></path>
                <path d="M209.55,481.01 C209.55,481.01 190.73,507.01 192.16,514.01 C193.59,521.01 199.1,517.24 199.1,517.24 L206.55,507.06 L213.21,488.06 C213.21,488.06 212.55,479.89 209.55,481.01 Z" id="Shape" fill="#000000" fill-rule="nonzero" opacity="0.1"></path>
                <path d="M211.88,481.01 C211.88,481.01 193.05,507.01 194.48,514.01 C195.91,521.01 201.42,517.24 201.42,517.24 L208.83,507.07 L215.49,488.07 C215.49,488.07 214.84,479.89 211.88,481.01 Z" id="Shape" fill="#000000" fill-rule="nonzero" opacity="0.1"></path>
                <path d="M210.73,481.01 C210.73,481.01 191.91,507.01 193.34,514.01 C194.77,521.01 200.28,517.24 200.28,517.24 L207.69,507.07 L214.35,488.07 C214.35,488.07 213.7,479.89 210.73,481.01 Z" id="Shape" fill="#474463" fill-rule="nonzero"></path>
            </g>
        </g>
    </g>
</svg>